<svg width="142" height="134" viewBox="0 0 142 134" fill="none" xmlns="http://www.w3.org/2000/svg">
<g filter="url(#filter0_d_219:3396)">
<path d="M70.7498 112.924C97.7118 112.924 119.569 91.0506 119.569 64.0678C119.569 37.085 97.7118 15.2112 70.7498 15.2112C43.7877 15.2112 21.9307 37.085 21.9307 64.0678C21.9307 91.0506 43.7877 112.924 70.7498 112.924Z" stroke="#F5D800" stroke-width="6" stroke-miterlimit="10" stroke-linecap="round" stroke-linejoin="round"/>
<path d="M98.088 67.9765L92.2297 64.068V66.1251H71.6743L71.7771 49.4624H73.3187L70.441 44.3196L67.2549 49.5652H69.0021V69.4165H69.6188L92.2297 69.5193V71.3707L98.088 67.9765Z" fill="white"/>
<path d="M70.955 30.7425H70.6467C70.3384 30.7425 70.1328 30.5368 70.1328 30.2282V22.9254C70.1328 22.6168 70.3384 22.4111 70.6467 22.4111H70.955C71.2634 22.4111 71.4689 22.6168 71.4689 22.9254V30.2282C71.4689 30.5368 71.2634 30.7425 70.955 30.7425Z" fill="white"/>
<path d="M70.955 106.342H70.6467C70.3384 106.342 70.1328 106.136 70.1328 105.828V98.5248C70.1328 98.2162 70.3384 98.0105 70.6467 98.0105H70.955C71.2634 98.0105 71.4689 98.2162 71.4689 98.5248V105.828C71.4689 106.033 71.2634 106.342 70.955 106.342Z" fill="white"/>
<path d="M27.583 63.8622V63.5536C27.583 63.245 27.7886 63.0393 28.0969 63.0393H35.3941C35.7024 63.0393 35.9079 63.245 35.9079 63.5536V63.8622C35.9079 64.1707 35.7024 64.3764 35.3941 64.3764H28.0969C27.7886 64.3764 27.583 64.1707 27.583 63.8622Z" fill="white"/>
<path d="M105.591 63.8622V63.5536C105.591 63.245 105.796 63.0393 106.105 63.0393H113.402C113.71 63.0393 113.916 63.245 113.916 63.5536V63.8622C113.916 64.1707 113.71 64.3764 113.402 64.3764H106.105C105.899 64.3764 105.591 64.1707 105.591 63.8622Z" fill="white"/>
<path d="M135.602 63.0393C135.602 98.8332 106.619 127.839 70.8523 127.839C35.0859 127.839 6 98.8332 6 63.0393C6 51.9308 8.77498 41.5424 13.7083 32.3882" stroke="white" stroke-width="4" stroke-miterlimit="10" stroke-linecap="round" stroke-linejoin="round"/>
<path d="M23.0611 22.4112L7.85009 26.5254C7.23343 26.7312 7.02787 27.4511 7.43898 27.9654L18.5389 39.0739C19.0528 39.5882 19.7722 39.2796 19.9778 38.6625L23.9861 23.4398C24.2944 22.8226 23.6777 22.2055 23.0611 22.4112L7.85009 26.5254C7.23343 26.7312 7.02787 27.4511 7.43898 27.9654L18.5389 39.0739C19.0528 39.5882 19.7722 39.2796 19.9778 38.6625L23.9861 23.4398C24.2944 22.8226 23.6777 22.2055 23.0611 22.4112Z" fill="white"/>
<path d="M79.1771 10.3771C77.841 6.67426 74.2438 4 70.1328 4C65.9189 4 62.4245 6.67426 61.0884 10.3771C64.0689 9.8628 67.0494 9.55423 70.1328 9.55423C73.2161 9.55423 76.1966 9.8628 79.1771 10.3771Z" fill="#F5D800"/>
<path d="M110.524 27.7597L114.533 22.7197C116.999 19.634 116.486 15.1084 113.402 12.6398C110.319 10.1713 105.797 10.6856 103.33 13.7712L99.5273 18.5026C103.638 21.1769 107.338 24.2626 110.524 27.7597Z" fill="#F5D800"/>
<path opacity="0.08" d="M84.8979 99.4936C104.27 91.6732 113.639 69.6173 105.825 50.2304C98.0104 30.8435 75.9715 21.467 56.5995 29.2874C37.2275 37.1078 27.8582 59.1637 35.6726 78.5506C43.487 97.9375 65.5259 107.314 84.8979 99.4936Z" fill="#FEFEFE"/>
</g>
<defs>
<filter id="filter0_d_219:3396" x="0" y="0" width="141.602" height="133.839" filterUnits="userSpaceOnUse" color-interpolation-filters="sRGB">
<feFlood flood-opacity="0" result="BackgroundImageFix"/>
<feColorMatrix in="SourceAlpha" type="matrix" values="0 0 0 0 0 0 0 0 0 0 0 0 0 0 0 0 0 0 127 0" result="hardAlpha"/>
<feOffset/>
<feGaussianBlur stdDeviation="2"/>
<feComposite in2="hardAlpha" operator="out"/>
<feColorMatrix type="matrix" values="0 0 0 0 0.960784 0 0 0 0 0.847059 0 0 0 0 0 0 0 0 0.45 0"/>
<feBlend mode="normal" in2="BackgroundImageFix" result="effect1_dropShadow_219:3396"/>
<feBlend mode="normal" in="SourceGraphic" in2="effect1_dropShadow_219:3396" result="shape"/>
</filter>
</defs>
</svg>
