<svg width="138" height="148" viewBox="0 0 138 148" fill="none" xmlns="http://www.w3.org/2000/svg">
<g filter="url(#filter0_d_219:3344)">
<path d="M6.15587 127.323C5.6922 127.323 5.22854 127.179 4.85181 126.892C3.8955 126.173 3.72163 124.822 4.4461 123.873L29.3681 91.439C29.3971 91.4102 29.426 91.3815 29.426 91.3527C31.4256 88.995 31.1358 83.8481 29.8317 80.1964C28.6726 76.9761 28.6146 76.1422 28.6436 75.5671L28.7885 72.9793C28.8465 71.8005 29.8607 70.8804 31.0778 70.9379C32.266 70.9954 33.1933 72.0017 33.1354 73.2094L33.0194 75.7684C33.0484 75.9409 33.1933 76.6598 33.9468 78.7875C34.7872 81.1741 35.2798 83.9631 35.2508 86.4647C35.1929 89.6275 34.3525 92.3016 32.8166 94.1418L7.89461 126.489C7.45992 127.036 6.82239 127.323 6.15587 127.323ZM32.9905 75.7684C32.9905 75.7972 32.9905 75.8259 32.9905 75.8259C32.9905 75.8259 32.9905 75.7972 32.9905 75.7684Z" fill="white"/>
<path d="M35.8886 144C35.4829 144 35.0772 143.885 34.7004 143.655C33.6862 142.994 33.4254 141.671 34.0629 140.665L53.9135 110.675C57.0433 105.931 61.4481 102.106 66.6064 99.6624L74.6625 95.8095C76.9229 94.3143 87.3843 82.7842 93.5569 75.7109C95.0348 73.7556 94.5132 71.0528 93.0932 69.7589C91.5863 68.35 90.3112 65.6185 90.1663 65.3022C90.0794 65.1297 90.0214 64.9571 89.9924 64.7559L89.3839 61.2192C89.0361 59.1777 87.4133 57.5675 85.3558 57.2512L84.1966 57.0787C83.4142 56.9637 82.7767 56.4174 82.4869 55.6986L81.4147 52.7657C80.7192 50.868 78.8645 49.5741 76.836 49.5741H75.387C74.3148 49.5741 73.3875 48.7978 73.2426 47.7339L72.8658 45.2323C72.5471 43.0183 70.6924 41.3219 68.49 41.1206L64.8386 41.2356C63.6505 41.2644 62.6362 40.3443 62.6073 39.1366C62.5783 37.9578 63.5056 36.9514 64.7227 36.9226L68.49 36.8076C68.548 36.8076 68.6349 36.8076 68.6929 36.8076C72.9818 37.0952 76.5462 40.373 77.1837 44.5998L77.2706 45.2611C80.98 45.4336 84.2546 47.7914 85.5297 51.2705L86.1672 52.9957C90.0214 53.6571 93.0352 56.6474 93.7018 60.5004L94.2524 63.7495C94.716 64.6984 95.4985 66.0498 96.078 66.5961C99.2947 69.5864 99.6714 74.8483 96.9764 78.3562C96.9474 78.3849 96.9184 78.4137 96.8895 78.4424C94.1364 81.6053 80.1685 97.5059 76.8649 99.4899C76.807 99.5186 76.749 99.5474 76.6621 99.6049L68.49 103.487C64.0272 105.614 60.26 108.892 57.5359 112.975L37.6853 142.965C37.2796 143.655 36.5841 144 35.8886 144Z" fill="white"/>
<path d="M131.809 127.323C131.2 127.323 130.592 127.064 130.157 126.576L103.757 95.7808C102.076 93.8256 101.468 90.2601 101.903 84.9408C102.163 81.7779 101.989 78.5 101.439 75.2509L99.9899 67.0274C99.7001 65.4173 98.9756 63.9221 97.9324 62.6569C97.8744 62.5994 97.8165 62.5132 97.7585 62.4269L91.2382 52.3057C90.6297 51.3569 89.5864 50.7243 88.4273 50.6093L78.5744 49.7754C77.3863 49.6604 76.4879 48.6253 76.6038 47.4464C76.7197 46.2675 77.763 45.3762 78.9511 45.4912L88.804 46.325C91.2962 46.5263 93.5566 47.9065 94.8896 49.9767L101.352 60.0116C102.83 61.8231 103.844 63.9796 104.279 66.2799L105.728 74.5033C106.365 78.1262 106.539 81.7492 106.249 85.2858C105.873 89.8001 106.423 92.2154 107.09 92.963L133.461 123.758C134.243 124.678 134.127 126.029 133.2 126.806C132.823 127.151 132.302 127.323 131.809 127.323Z" fill="#F5D800"/>
<path d="M101.7 144C100.946 144 100.193 143.598 99.8162 142.908C99.7003 142.678 87.4711 121.199 80.719 111.797C79.1251 109.583 76.6329 108.145 73.9089 107.857L62.694 106.88C61.5059 106.765 60.6075 105.73 60.7235 104.551C60.8394 103.372 61.8826 102.48 63.0708 102.595L74.2856 103.573H74.3146C78.3137 103.976 81.9071 106.075 84.2255 109.295C91.0935 118.87 103.062 139.889 103.583 140.78C104.163 141.815 103.815 143.138 102.743 143.713C102.424 143.914 102.048 144 101.7 144Z" fill="#F5D800"/>
<path d="M88.8039 99.7488C88.1953 99.7488 87.6157 99.49 87.1811 99.0299C83.8195 95.2633 82.5734 88.6212 86.2827 84.0495C87.0362 83.1293 88.3982 82.9568 89.3255 83.7044C90.2528 84.452 90.4267 85.8034 89.6733 86.7235C87.4419 89.4838 88.3402 93.7968 90.4557 96.1546C91.2381 97.046 91.1512 98.3974 90.2529 99.2025C89.8471 99.5763 89.3255 99.7488 88.8039 99.7488Z" fill="#F5D800"/>
<path d="M39.3658 72.8932C37.5112 72.8932 35.6275 72.1744 34.2365 70.7655L31.1937 67.6889C29.8607 66.3375 29.1362 64.526 29.1362 62.6283C29.1652 60.7306 29.9187 58.9479 31.2807 57.6252C32.6427 56.3026 34.4684 55.5837 36.381 55.5837C38.2936 55.6125 40.0903 56.3601 41.4233 57.7115L44.4661 60.7881C47.2191 63.6059 47.1902 68.1202 44.3502 70.8518C42.9882 72.2319 41.1625 72.8932 39.3658 72.8932ZM36.323 59.8967C35.5986 59.8967 34.9031 60.1555 34.3525 60.7018C33.2513 61.7945 33.2223 63.5484 34.3235 64.6698L37.3663 67.7464C38.4675 68.839 40.2352 68.8678 41.3654 67.7752C42.4666 66.6825 42.4956 64.9286 41.3944 63.8072L38.3516 60.7306C37.772 60.1843 37.0475 59.8967 36.323 59.8967Z" fill="#F5D800"/>
<path d="M46.234 64.8422C46.205 64.8422 46.176 64.8422 46.1471 64.8422C44.2344 64.8135 42.4377 64.0659 41.1047 62.7145L38.0619 59.6379C36.7289 58.2865 36.0044 56.475 36.0044 54.5773C36.0334 52.6796 36.7868 50.8969 38.1488 49.5742C39.5109 48.2515 41.3076 47.5327 43.2492 47.5327C45.1618 47.5615 46.9585 48.3091 48.2915 49.6605L51.3343 52.7371C54.0873 55.5549 54.0583 60.0692 51.2184 62.8007C49.8854 64.1234 48.1176 64.8422 46.234 64.8422ZM43.1622 51.817C42.4088 51.817 41.7133 52.1045 41.1916 52.6221C40.641 53.1396 40.3513 53.8584 40.3513 54.606C40.3513 55.3536 40.641 56.0725 41.1627 56.59L44.2055 59.6666C44.7271 60.2129 45.4516 60.5005 46.205 60.5005C46.9585 60.5292 47.683 60.2129 48.2046 59.6954C49.3058 58.6027 49.3348 56.8488 48.2336 55.7274L45.1908 52.6508C44.6691 52.1045 43.9447 51.817 43.1912 51.817C43.1912 51.817 43.1912 51.817 43.1622 51.817Z" fill="#F5D800"/>
<path d="M53.7975 57.4813C51.9428 57.4813 50.0592 56.7625 48.6682 55.3536L45.6254 52.2482C44.2923 50.8968 43.5679 49.0854 43.5679 47.1876C43.5969 45.2899 44.3503 43.5072 45.7123 42.1846C47.0743 40.8619 48.8421 40.1431 50.7257 40.1431C50.7547 40.1431 50.7837 40.1431 50.8126 40.1431C52.7252 40.1718 54.5219 40.9194 55.855 42.2708L58.8978 45.3474C61.6508 48.1653 61.6218 52.6795 58.7819 55.4111C57.4199 56.82 55.5942 57.4813 53.7975 57.4813ZM50.7547 44.4848C50.0012 44.4848 49.3057 44.7724 48.7841 45.2899C48.2335 45.8075 47.9437 46.5263 47.9437 47.2739C47.9437 48.0215 48.2335 48.7403 48.7551 49.2579L51.7979 52.3632C52.3195 52.9096 53.044 53.1971 53.7975 53.1971C54.5509 53.1971 55.2754 52.9096 55.797 52.392C56.8982 51.2994 56.9272 49.5454 55.826 48.424L52.7832 45.3474C52.2616 44.8011 51.5371 44.5136 50.7836 44.5136C50.7547 44.4848 50.7547 44.4848 50.7547 44.4848Z" fill="#F5D800"/>
<path d="M62.0854 50.8393C60.2307 50.8393 58.3471 50.1205 56.9561 48.7115L53.9133 45.6349C51.1603 42.8171 51.1893 38.3028 54.0292 35.5713C55.3912 34.2486 57.1589 33.5298 59.0426 33.5298C59.0716 33.5298 59.1005 33.5298 59.1295 33.5298C61.0421 33.5585 62.8388 34.3061 64.1719 35.6575L67.2147 38.7341C68.5477 40.0855 69.2722 41.897 69.2722 43.7947C69.2432 45.6924 68.4897 47.4752 67.1277 48.7978C65.7078 50.1492 63.8821 50.8393 62.0854 50.8393ZM59.0426 37.8428C58.2891 37.8428 57.5936 38.1303 57.072 38.6479C55.9708 39.7405 55.9418 41.4945 57.043 42.6158L60.0858 45.6924C60.6075 46.2388 61.3319 46.5263 62.0854 46.5263H62.1144C62.8678 46.5263 63.5633 46.2388 64.0849 45.7212C64.6355 45.2036 64.9253 44.4848 64.9253 43.7372C64.9253 42.9896 64.6355 42.2708 64.1139 41.7532L61.0711 38.6766C60.5495 38.1303 59.825 37.8428 59.0716 37.8428C59.0426 37.8428 59.0426 37.8428 59.0426 37.8428Z" fill="#F5D800"/>
<path d="M68.0841 26.1688C66.8959 26.1688 65.9106 25.1912 65.9106 24.0123V6.1565C65.9106 4.97761 66.8959 4 68.0841 4C69.2722 4 70.2575 4.97761 70.2575 6.1565V24.0123C70.2865 25.22 69.3012 26.1688 68.0841 26.1688C68.113 26.1688 68.0841 26.1688 68.0841 26.1688Z" fill="#F5D800"/>
<path d="M90.3976 30.3668C90.0209 30.3668 89.6442 30.2805 89.2964 30.0505C88.2532 29.4466 87.9344 28.124 88.5429 27.0889L97.2946 12.4534C97.9032 11.4183 99.2362 11.102 100.279 11.7058C101.323 12.3097 101.641 13.6323 101.033 14.6674L92.2523 29.3029C91.8466 29.9642 91.1221 30.3668 90.3976 30.3668Z" fill="#F5D800"/>
<path d="M109.987 38.3314C109.379 38.3314 108.799 38.1014 108.365 37.6126C107.553 36.7213 107.64 35.3699 108.538 34.5648L117.696 26.3988C118.594 25.5937 119.956 25.68 120.768 26.5713C121.579 27.4627 121.492 28.8141 120.594 29.6192L111.436 37.7851C111.031 38.1302 110.509 38.3314 109.987 38.3314Z" fill="#F5D800"/>
<path d="M47.5957 30.3668C46.8422 30.3668 46.1467 29.993 45.712 29.3029L36.9314 14.6675C36.3228 13.6324 36.6706 12.3097 37.6848 11.7059C38.7281 11.1021 40.0611 11.4471 40.6697 12.4535L49.4503 27.0889C50.0589 28.1241 49.7111 29.4467 48.6969 30.0505C48.3491 30.2518 47.9724 30.3668 47.5957 30.3668Z" fill="#F5D800"/>
<path d="M27.977 38.3314C27.4553 38.3314 26.9337 38.1589 26.528 37.7851L17.3706 29.6192C16.4723 28.8141 16.4143 27.4627 17.1967 26.5713C18.0082 25.68 19.3702 25.6224 20.2685 26.3988L29.4259 34.5647C30.3243 35.3698 30.3822 36.7212 29.5998 37.6126C29.1651 38.0726 28.5565 38.3314 27.977 38.3314Z" fill="#F5D800"/>
</g>
<defs>
<filter id="filter0_d_219:3344" x="0" y="0" width="137.979" height="148" filterUnits="userSpaceOnUse" color-interpolation-filters="sRGB">
<feFlood flood-opacity="0" result="BackgroundImageFix"/>
<feColorMatrix in="SourceAlpha" type="matrix" values="0 0 0 0 0 0 0 0 0 0 0 0 0 0 0 0 0 0 127 0" result="hardAlpha"/>
<feOffset/>
<feGaussianBlur stdDeviation="2"/>
<feComposite in2="hardAlpha" operator="out"/>
<feColorMatrix type="matrix" values="0 0 0 0 0.960784 0 0 0 0 0.847059 0 0 0 0 0 0 0 0 0.45 0"/>
<feBlend mode="normal" in2="BackgroundImageFix" result="effect1_dropShadow_219:3344"/>
<feBlend mode="normal" in="SourceGraphic" in2="effect1_dropShadow_219:3344" result="shape"/>
</filter>
</defs>
</svg>
