<svg width="149" height="125" viewBox="0 0 149 125" fill="none" xmlns="http://www.w3.org/2000/svg">
<g filter="url(#filter0_d_219:3375)">
<path d="M32.9609 82.0186C32.9609 83.22 33.0944 84.2879 33.2279 85.4893C33.2279 86.1567 34.429 86.1567 34.2955 85.4893C34.1621 84.2879 34.1621 83.22 34.0286 82.0186C34.0286 81.3512 32.9609 81.3512 32.9609 82.0186Z" fill="white"/>
<path d="M29.2239 16.3432C30.8255 16.6101 32.5604 16.8771 34.162 17.1441C32.0266 18.4789 31.2258 19.9473 33.7616 20.7482C37.0981 21.9496 42.57 20.4812 46.5738 19.1464C53.2468 20.3478 60.0533 21.4156 66.7263 22.617C64.0571 23.6849 61.2544 24.3524 59.7864 24.7528C59.1191 24.8863 59.386 25.9542 60.0533 25.6872C61.3879 25.2868 65.5252 24.3524 69.1286 22.884C70.8636 23.151 72.5986 23.4179 74.3336 23.8184C75.0009 23.9519 75.2678 23.0175 74.6005 22.884C73.3993 22.617 72.0647 22.4835 70.8636 22.2166C72.1982 21.5491 73.3993 20.8817 74.2001 20.2143C75.5347 20.4812 77.0028 20.7482 78.3374 21.0152C79.0047 21.1487 79.2716 20.2143 78.6043 20.0808C77.4032 19.8138 76.202 19.6803 75.0009 19.4133C75.2678 19.0129 75.5347 18.4789 75.4013 17.945C75.1343 12.739 62.856 13.9404 60.0533 14.4743C57.9179 14.8748 55.7826 15.4087 53.6472 15.9427C49.9103 15.4087 46.1734 14.8748 42.4365 14.4743C43.9046 13.9404 45.5061 13.4064 47.1076 12.8725C47.7749 12.6055 47.508 11.6711 46.8407 11.9381C46.1734 12.2051 43.3707 13.006 40.3012 14.2074C38.8331 13.9404 37.365 13.8069 35.897 13.5399C35.2297 13.4064 35.2297 14.4743 35.897 14.6078C36.8312 14.7413 37.6319 14.8748 38.4327 14.8748C37.365 15.2753 36.2973 15.8092 35.4966 16.3432C33.4947 15.9427 31.4928 15.6757 29.4909 15.2753C28.8236 15.2753 28.5566 16.2097 29.2239 16.3432ZM36.5643 19.8138C32.427 19.9473 33.6281 18.6124 35.7635 17.2776C38.5662 17.678 41.2354 18.212 44.038 18.6124C41.6358 19.4133 39.1 19.8138 36.5643 19.8138ZM68.4613 21.9496C61.9217 20.8817 55.2487 19.6803 48.7092 18.6124C48.8426 18.6124 48.9761 18.4789 49.1095 18.4789C50.5776 18.0785 52.1791 17.5445 53.9141 17.0106C60.0533 17.945 66.059 18.8794 72.0647 19.9473C71.1305 20.6147 69.7959 21.2822 68.4613 21.9496ZM69.2621 15.4087C72.4651 16.6101 73.2659 17.8115 72.5986 19.0129C66.9932 18.0785 61.5214 17.1441 55.916 16.3432C60.4537 14.8748 65.3917 13.9404 69.2621 15.4087ZM39.9008 15.4087C40.0342 15.2753 40.3012 15.2753 40.4346 15.1418C44.038 15.5422 47.7749 16.0762 51.3784 16.6101C49.6434 17.1441 47.9084 17.678 46.1734 18.212C43.1038 17.678 40.0342 17.1441 37.0981 16.6101C38.2992 16.0762 39.3669 15.5422 39.9008 15.4087Z" fill="white"/>
<path d="M82.0746 13.6732C83.943 13.9402 85.9449 14.3407 87.6799 15.5421C89.5483 16.8769 90.4826 19.4132 88.6141 21.282C88.0803 21.6825 88.881 22.4834 89.2814 21.9494C90.8829 20.3476 90.8829 17.9448 89.5483 16.076C87.8134 13.8067 84.8772 13.1393 82.208 12.7388C81.6742 12.6054 81.4073 13.5398 82.0746 13.6732Z" fill="white"/>
<path d="M28.8239 24.2188C29.4912 24.3523 29.7581 23.4179 29.0908 23.2844C27.6227 23.0174 26.1547 22.4835 24.8201 21.6826C23.6189 21.0151 20.5493 18.8793 21.8839 17.144C22.2843 16.6101 21.617 15.9426 21.2166 16.4766C18.147 20.2142 26.0212 23.6849 28.8239 24.2188Z" fill="white"/>
<path d="M142.398 85.0887C135.992 76.1451 118.643 75.6112 108.9 75.0772C103.561 74.8103 97.8227 74.6768 92.2173 75.0772C92.3508 70.0047 92.3508 64.9322 92.2173 59.7262C92.3508 57.0565 90.7493 54.5203 88.347 52.518C88.347 49.5813 88.4805 46.6446 88.4805 43.7078C92.6177 41.839 95.9542 39.3028 97.8227 35.6986C97.8227 35.6986 97.8227 35.6986 97.8227 35.5651V35.4317C97.8227 35.2982 97.9562 35.1647 97.9562 35.0312C97.9562 34.8977 97.9562 34.8977 97.9562 34.7642C98.0896 29.8252 98.0896 24.8862 97.9562 19.9472C98.3565 18.2119 98.0896 16.2096 96.4881 14.0738C90.082 5.13017 72.7321 4.59622 62.9895 4.06227C49.9104 3.7953 35.0963 4.19576 22.6845 9.13477C19.348 10.4696 14.8103 12.6054 13.8761 16.4765C13.8761 16.7435 13.7426 17.0105 13.7426 17.2775C13.7426 20.6146 13.7426 23.9518 13.8761 27.289C10.1392 28.7573 5.20114 30.8931 4.26692 35.0312C4.13346 35.1647 4 35.4317 4 35.6986C4 41.9725 4.26692 48.1129 4 54.3868C4 54.6538 4 54.9207 4.13346 55.1877C4.13346 55.1877 4.13346 55.3212 4.26692 55.3212L4.40038 55.4547C4.53384 55.5882 4.53384 55.5882 4.6673 55.7216C5.60153 56.6561 6.80267 57.5905 8.00381 58.3914C8.00381 64.3983 8.27073 70.4052 8.00381 76.4121C8.00381 76.6791 8.00381 76.946 8.13727 77.213C8.13727 77.213 8.13727 77.213 8.13727 77.3465C8.13727 77.48 8.27073 77.48 8.27073 77.6135C8.40419 77.747 8.40419 77.747 8.53765 77.8805C21.8837 90.1612 42.3031 91.3626 59.653 89.4938C59.653 95.2337 59.9199 100.974 59.653 106.714C59.653 106.981 59.653 107.248 59.7865 107.515C59.7865 107.515 59.7865 107.648 59.9199 107.648L60.0534 107.781C60.1868 107.915 60.1868 107.915 60.3203 108.048C72.7321 119.662 92.0839 121.264 108.233 119.929C118.376 119.128 138.395 117.393 143.733 106.714C143.733 106.714 143.733 106.714 143.733 106.58V106.447C143.733 106.313 143.867 106.18 143.867 106.046C143.867 105.913 143.867 105.913 143.867 105.779C144 100.84 144 95.9012 143.867 90.9622C144.267 89.2268 144 87.2245 142.398 85.0887ZM124.381 80.0162C129.319 81.0841 136.793 82.2855 139.863 86.8241C140.397 87.625 140.663 88.4259 140.797 89.0933C140.797 89.3603 140.797 89.7608 140.797 90.0277C140.13 95.1002 129.052 97.9035 125.316 98.9714C107.966 103.376 90.7493 104.578 73.7998 98.1704C70.9971 96.9691 67.2602 95.5007 65.3918 93.0979C63.7903 90.9622 64.1907 86.1566 66.0591 84.2878C66.7264 83.6204 68.061 83.2199 68.9952 82.8195C74.3336 80.5502 80.2059 79.4823 85.9447 78.8149C98.6235 77.3465 111.969 77.48 124.381 80.0162ZM136.66 97.9035C137.194 97.6365 137.727 97.3695 138.261 96.9691C138.261 100.707 138.261 104.444 138.261 108.315C137.727 108.716 137.194 109.116 136.66 109.383C136.66 105.646 136.66 101.775 136.66 97.9035ZM135.592 110.051C134.257 110.852 132.789 111.386 131.321 111.92C131.722 108.048 131.989 104.044 132.389 100.173C132.389 100.039 132.389 99.9058 132.255 99.7723C133.323 99.3718 134.391 98.9714 135.459 98.4374C135.459 102.175 135.459 106.046 135.459 109.784C135.592 109.917 135.592 110.051 135.592 110.051ZM85.0105 75.7447C85.0105 73.2084 85.0105 70.8057 85.0105 68.2694C85.5443 68.0024 86.0782 67.602 86.612 67.335C86.612 70.1382 86.612 72.808 86.612 75.6112C86.0782 75.6112 85.5443 75.7447 85.0105 75.7447ZM83.9428 75.8782C82.7417 76.1451 81.4071 76.2786 80.2059 76.5456C80.3394 74.4098 80.6063 72.274 80.7398 70.1382C81.8074 69.7378 82.8751 69.3373 83.9428 68.8034C83.9428 71.2061 83.9428 73.6089 83.9428 75.8782ZM79.1382 76.8126C75.9352 77.48 72.8656 78.2809 69.796 79.4823C69.796 77.3465 69.796 75.2107 69.796 72.9414C72.999 72.4075 76.3356 71.6066 79.5386 70.6722C79.4051 72.6745 79.2717 74.6768 79.1382 76.8126ZM68.7283 79.8828C65.5253 81.0841 61.5215 83.0864 60.1868 86.2901C57.6511 86.5571 55.1153 86.8241 52.4461 86.9576C52.7131 83.2199 52.8465 79.3488 53.1134 75.6112C53.1134 75.4777 53.1134 75.3442 52.98 75.3442C56.3165 75.0772 59.5195 74.6768 62.8561 74.1428C64.591 73.8758 66.5929 73.6089 68.7283 73.2084C68.7283 75.3442 68.7283 77.6135 68.7283 79.8828ZM62.7226 94.8333C63.5234 95.6342 64.4576 96.4351 65.5253 97.1025C65.5253 100.84 65.5253 104.578 65.5253 108.449C64.591 107.781 63.6568 106.981 62.7226 106.18C62.7226 102.309 62.7226 98.5709 62.7226 94.8333ZM66.5929 97.77C67.3937 98.1704 68.061 98.7044 68.8618 98.9714V99.1048C69.1287 102.976 69.2622 106.847 69.5291 110.852C68.5949 110.318 67.6606 109.784 66.7264 109.116C66.5929 105.379 66.5929 101.508 66.5929 97.77ZM69.9295 99.6388C70.8637 100.173 71.7979 100.573 72.5987 100.84H72.7321C72.8656 100.84 72.8656 100.974 72.999 100.974C74.0667 101.374 75.001 101.641 76.0686 102.042C76.0686 105.913 76.2021 109.917 76.2021 113.788C74.2002 113.121 72.3317 112.32 70.5968 111.386C70.3298 107.515 70.1964 103.51 69.9295 99.6388ZM87.6797 75.4777C87.6797 72.541 87.6797 69.4708 87.6797 66.5341C88.2135 66.1336 88.7474 65.7332 89.1478 65.1992C89.1478 68.5364 89.1478 71.8735 89.0143 75.3442C88.7474 75.3442 88.2135 75.4777 87.6797 75.4777ZM55.3823 72.1405C47.6416 72.9414 39.7674 72.9414 32.1602 71.2061C26.8217 70.0047 15.0772 67.068 11.8742 60.9276C23.8856 67.7355 39.2336 68.5364 52.4461 67.4685C62.1887 66.6676 81.0067 65.0657 87.1459 55.4547C97.6892 65.4662 60.8541 71.6066 55.3823 72.1405ZM7.06959 42.5065C7.87035 43.3074 8.80458 44.1083 9.87226 44.7757C9.87226 48.5134 9.87226 52.251 9.87226 55.9886C8.93804 55.3212 8.00381 54.5203 7.06959 53.7193C7.06959 50.1152 7.06959 46.2441 7.06959 42.5065ZM30.2917 54.2533C30.2917 53.5859 30.2917 52.9184 30.2917 52.251C36.164 53.3189 42.1697 53.5859 48.1754 53.1854V53.3189C47.9085 57.0565 47.775 60.9276 47.5081 64.6653C41.7693 64.7988 35.897 64.6653 30.0248 63.7309C30.2917 63.7309 30.4252 63.4639 30.4252 63.1969C30.2917 61.9955 30.2917 60.9276 30.1582 59.7262C30.1582 59.0588 28.9571 59.0588 29.0906 59.7262C29.224 60.9276 29.224 61.9955 29.3575 63.1969C29.3575 63.4639 29.4909 63.5974 29.6244 63.5974C26.9552 63.1969 24.286 62.5295 21.7502 61.7286C21.7502 57.8574 21.6168 53.8528 21.6168 49.9817C24.1525 50.7826 26.6883 51.4501 29.224 51.984C29.224 51.984 29.224 51.984 29.224 52.1175C29.224 52.7849 29.224 53.4524 29.224 54.1198C29.0906 55.0542 30.2917 55.0542 30.2917 54.2533ZM39.9009 41.4386C39.9009 40.7711 38.6997 40.7711 38.8332 41.4386C38.9666 42.6399 38.9666 43.7078 39.1001 44.9092C39.1001 45.1762 39.2336 45.3097 39.367 45.3097C36.6978 44.9092 34.0286 44.2418 31.4929 43.4409C31.4929 39.4363 31.3594 35.5651 31.3594 31.5605C33.8951 32.3615 36.5643 33.0289 39.1001 33.4294C39.1001 33.5628 38.9666 33.5628 38.9666 33.6963C38.9666 34.3638 38.9666 35.0312 38.9666 35.6986C38.9666 36.3661 40.0343 36.3661 40.0343 35.6986C40.0343 35.0312 40.0343 34.3638 40.0343 33.6963C40.0343 33.6963 40.0343 33.6963 40.0343 33.5628C46.04 34.6307 52.0458 34.7642 58.0515 34.4973C57.918 34.6307 57.918 34.7642 57.918 34.8977C57.6511 38.6353 57.5176 42.5065 57.2507 46.2441C51.5119 46.3776 45.6397 46.2441 39.7674 45.3097C40.0343 45.3097 40.1678 45.0427 40.1678 44.7757C40.0343 43.7078 39.9009 42.6399 39.9009 41.4386ZM16.8122 24.0853C17.613 24.8862 18.5472 25.6871 19.6149 26.3546C19.6149 30.0922 19.6149 33.8298 19.6149 37.7009C18.6806 37.0335 17.7464 36.2326 16.8122 35.4317C16.8122 31.5605 16.8122 27.8229 16.8122 24.0853ZM20.6826 27.022C21.4833 27.4225 22.1506 27.9564 22.9514 28.2234V28.3569C23.2183 32.228 23.3518 36.0991 23.6187 40.1037C22.6845 39.5697 21.7502 39.0358 20.816 38.3684C20.6826 34.6307 20.6826 30.8931 20.6826 27.022ZM24.6864 40.7711C24.4194 36.7665 24.286 32.8954 24.0191 28.8908C24.9533 29.4248 25.8875 29.8252 26.6883 30.0922H26.8217C26.9552 30.0922 26.9552 30.2257 27.0887 30.2257C28.1563 30.6261 29.0906 30.8931 30.1582 31.2936C30.1582 35.1647 30.2917 39.1693 30.2917 43.0404C28.2898 42.5065 26.4214 41.7055 24.6864 40.7711ZM89.8151 39.4363C88.4805 40.2372 87.0124 40.7711 85.5443 41.3051C85.9447 37.434 86.2116 33.4294 86.612 29.5582C86.612 29.4248 86.612 29.2913 86.4785 29.1578C87.5462 28.7573 88.6139 28.3569 89.6816 27.8229C89.6816 31.5605 89.6816 35.4317 89.6816 39.1693C89.6816 39.3028 89.6816 39.3028 89.8151 39.4363ZM90.8827 27.1555C91.4166 26.8885 91.9504 26.6215 92.4843 26.2211C92.4843 29.9587 92.4843 33.6963 92.4843 37.5674C91.9504 37.9679 91.4166 38.3684 90.8827 38.6353C90.8827 34.8977 90.8827 31.0266 90.8827 27.1555C90.8827 27.289 90.8827 27.289 90.8827 27.1555ZM85.4109 29.5582C85.0105 33.5628 84.6101 37.7009 84.3432 41.7055C83.6759 41.9725 83.142 42.106 82.4747 42.373C80.2059 43.1739 77.8036 43.7078 75.4013 44.2418C75.4013 40.2372 75.5348 36.2326 75.5348 32.228C77.1363 31.8275 78.6044 31.5605 80.2059 31.1601C81.674 30.7596 83.5424 30.2257 85.4109 29.5582ZM81.0067 57.19C81.0067 53.5859 81.0067 49.9817 81.0067 46.3776C81.5405 46.2441 82.0744 46.1106 82.6082 45.9771C82.6082 49.3143 82.6082 52.7849 82.6082 56.1221C82.0744 56.5226 81.674 56.7895 81.0067 57.19ZM75.6683 47.9794C75.2679 51.984 74.8675 55.9886 74.6006 60.1267C73.9333 60.3937 73.3994 60.5272 72.7321 60.7942C70.4633 61.5951 68.061 62.129 65.6587 62.663C65.6587 58.6584 65.7922 54.6538 65.7922 50.7826C69.2622 49.9817 72.4652 49.0473 75.6683 47.9794ZM76.8694 47.9794C76.8694 47.8459 76.8694 47.7124 76.7359 47.579C76.8694 47.4455 76.8694 47.4455 76.8694 47.312C77.9371 47.1785 78.8713 46.9115 79.939 46.6445C79.939 50.2487 79.939 53.9863 79.939 57.5905C79.939 57.724 79.939 57.724 79.939 57.8574C78.6044 58.6584 77.1363 59.1923 75.6683 59.7262C76.0686 55.7216 76.469 51.8505 76.8694 47.9794ZM74.3336 44.5088C69.796 45.4432 65.2583 45.9771 60.5872 46.2441C59.7865 46.2441 58.9857 46.3776 58.1849 46.3776C58.4519 42.6399 58.5853 38.7688 58.8522 35.0312C58.8522 34.7642 58.7188 34.6307 58.5853 34.6307C63.7903 34.2303 69.1287 33.5628 74.4671 32.3615C74.4671 36.3661 74.4671 40.3707 74.3336 44.5088ZM64.7245 50.9161C64.7245 54.9207 64.591 58.9253 64.591 62.7965C60.0534 63.7309 55.5157 64.2648 50.8446 64.5318C50.0438 64.5318 49.2431 64.6653 48.4423 64.6653C48.7092 60.9276 48.8427 57.0565 49.1096 53.3189C49.1096 53.1854 49.1096 53.1854 49.1096 53.0519C54.3146 52.9184 59.653 52.1175 64.7245 50.9161ZM20.4156 49.8482C20.4156 53.7193 20.5491 57.7239 20.5491 61.5951C18.5472 60.9276 16.6787 60.1267 14.9438 59.1923C14.6768 55.1877 14.5434 51.3166 14.2765 47.312C15.3441 47.8459 16.4118 48.2464 17.346 48.6469C18.2803 49.1808 19.348 49.4478 20.4156 49.8482ZM13.7426 58.6584C12.8084 58.1244 11.8742 57.5905 10.9399 56.923C10.9399 53.1854 10.9399 49.3143 10.9399 45.5767C11.7407 45.9771 12.408 46.5111 13.2088 46.778C13.2088 46.778 13.2088 46.778 13.2088 46.9115C13.3422 50.7826 13.4757 54.6538 13.7426 58.6584ZM11.0734 64.6653C11.8742 65.5997 12.8084 66.2671 13.8761 67.068C13.8761 70.8057 13.8761 74.5433 13.8761 78.2809C12.9418 77.6135 12.0076 76.8126 11.0734 76.0116C11.0734 72.1405 11.0734 68.4029 11.0734 64.6653ZM14.9438 67.7355C15.6111 68.1359 16.4118 68.5364 17.2126 68.9368C17.4795 72.808 17.613 76.6791 17.8799 80.5502C16.9457 80.0162 16.0114 79.4823 15.0772 78.8149C14.9438 75.2107 14.9438 71.4731 14.9438 67.7355ZM18.2803 69.6043C20.2822 70.5387 22.4175 71.3396 24.4194 72.007C24.4194 75.8782 24.5529 79.8828 24.5529 83.7539C22.551 83.0864 20.6826 82.2855 18.9476 81.3511C18.6806 77.48 18.4137 73.4754 18.2803 69.6043ZM85.2774 52.9184C84.877 53.7194 84.3432 54.5203 83.6759 55.1877C83.6759 51.984 83.6759 48.9138 83.6759 45.7101C84.2097 45.5767 84.877 45.3097 85.4109 45.1762C85.4109 47.7124 85.4109 50.2487 85.2774 52.9184ZM93.5519 36.633C93.5519 33.0289 93.5519 29.2913 93.5519 25.6871C94.0858 25.2867 94.6196 24.8862 95.02 24.4857C95.02 27.9564 95.02 31.2936 94.8866 34.7642C94.4862 35.4317 94.0858 36.0991 93.5519 36.633ZM20.2822 13.6733C20.9495 13.0059 22.2841 12.6054 23.2183 12.205C28.5567 9.93569 34.429 8.8678 40.1678 8.20036C52.8465 6.59852 66.0591 6.73201 78.6044 9.26826C83.5424 10.3361 91.0162 11.5375 94.0858 16.0761C94.6196 16.877 94.8866 17.6779 95.02 18.3454C95.02 18.6123 95.02 19.0128 95.02 19.2798C94.3527 24.3523 83.2755 27.1555 79.5386 28.2234C62.1887 32.6284 44.9724 33.8298 28.0229 27.4225C25.2202 26.2211 21.4833 24.7527 19.6149 22.35C17.8799 20.3477 18.2803 15.5421 20.2822 13.6733ZM13.8761 30.4927C13.8761 32.228 13.8761 34.0968 13.7426 35.8321C13.7426 36.0991 13.7426 36.3661 13.8761 36.633C13.8761 36.633 13.8761 36.7665 14.0095 36.7665L14.143 36.9C14.2765 37.0335 14.2765 37.0335 14.4099 37.167C25.4871 47.579 42.0362 49.8482 56.9838 49.4478C50.3108 50.5157 43.6377 50.9161 37.0982 50.3822C30.2917 49.8482 23.2183 48.2464 16.9457 45.4432C14.5434 44.3753 11.4738 42.9069 9.7388 40.9046C5.3346 35.8321 9.7388 32.3615 13.8761 30.4927ZM25.6206 84.1543C25.6206 80.2832 25.4871 76.2786 25.4871 72.4075C25.7541 72.541 26.021 72.541 26.2879 72.6745C28.5567 73.4754 30.8255 74.0093 33.2278 74.4098C33.2278 75.0772 33.2278 75.7447 33.2278 76.4121C33.2278 77.0795 34.2955 77.0795 34.2955 76.4121C34.2955 75.7447 34.2955 75.0772 34.2955 74.5433C40.1678 75.6112 46.1735 75.7447 52.1792 75.3442C52.1792 75.4777 52.0458 75.4777 52.0458 75.6112C51.7788 79.3488 51.6454 83.2199 51.3785 86.9576C42.7035 87.358 33.7617 86.6906 25.6206 84.1543ZM85.5443 116.191C85.8112 116.191 85.9447 115.924 85.9447 115.657C85.9447 114.456 85.8112 113.388 85.6778 112.187C85.6778 111.519 84.4766 111.519 84.6101 112.187C84.7436 113.388 84.7436 114.456 84.877 115.657C84.877 115.924 85.0105 116.058 85.1439 116.058C82.4747 115.657 79.8055 114.99 77.2698 114.189C77.2698 110.184 77.1363 106.313 77.1363 102.309C79.6721 103.109 82.3413 103.777 84.877 104.177C84.877 104.311 84.7436 104.311 84.7436 104.444C84.7436 105.112 84.7436 105.779 84.7436 106.447C84.7436 107.114 85.8112 107.114 85.8112 106.447C85.8112 105.779 85.8112 105.112 85.8112 104.444C85.8112 104.444 85.8112 104.444 85.8112 104.311C91.817 105.379 97.8227 105.512 103.828 105.245C103.695 105.379 103.695 105.512 103.695 105.646C103.428 109.383 103.295 113.254 103.028 116.992C97.2888 117.259 91.2831 117.126 85.5443 116.191ZM106.631 116.992C105.83 116.992 105.03 117.126 104.229 117.126C104.496 113.388 104.629 109.517 104.896 105.779C104.896 105.512 104.763 105.379 104.629 105.379C109.834 104.978 115.173 104.311 120.511 103.109C120.511 107.114 120.377 111.119 120.377 115.123C115.84 116.058 111.169 116.725 106.631 116.992ZM121.445 114.856C121.445 110.852 121.579 106.847 121.579 102.842C123.18 102.442 124.648 102.175 126.25 101.775C127.584 101.374 129.453 100.974 131.455 100.173C131.054 104.177 130.654 108.315 130.387 112.32C129.72 112.587 129.186 112.72 128.519 112.987C126.116 113.788 123.714 114.322 121.445 114.856ZM139.329 107.381C139.329 103.777 139.329 100.039 139.329 96.4351C139.863 96.0347 140.397 95.6342 140.797 95.2337C140.797 98.7044 140.797 102.042 140.663 105.512C140.397 106.18 139.996 106.714 139.329 107.381Z" fill="#F5D800"/>
<path d="M81.8076 84.2879C81.1403 84.1544 81.1403 85.2223 81.8076 85.3558C82.6084 85.4893 83.5426 85.6228 84.3433 85.6228C83.2757 86.0232 82.208 86.5572 81.4072 87.0911C79.4053 86.6907 77.4034 86.4237 75.4015 86.0232C74.7342 85.8898 74.4673 86.9577 75.1346 86.9577C76.7361 87.2246 78.4711 87.4916 80.0726 87.7586C77.9372 89.0934 77.1365 90.5618 79.6722 91.3627C83.0087 92.5641 88.4806 91.0957 92.4844 89.7609C99.1575 90.9623 105.964 92.0302 112.637 93.2315C109.968 94.2994 107.165 94.9669 105.697 95.3673C105.03 95.5008 105.297 96.5687 105.964 96.3017C107.299 95.9013 111.436 94.9669 115.039 93.4985C116.774 93.7655 118.509 94.0325 120.244 94.4329C120.912 94.5664 121.178 93.632 120.511 93.4985C119.31 93.2315 117.975 93.0981 116.774 92.8311C118.109 92.1636 119.31 91.4962 120.111 90.8288C121.445 91.0958 122.913 91.3627 124.248 91.6297C124.915 91.7632 125.182 90.8288 124.515 90.6953C123.314 90.4283 122.113 90.2948 120.912 90.0279C121.178 89.6274 121.445 89.0934 121.312 88.5595C121.045 83.3535 108.767 84.5549 105.964 85.0888C103.829 85.4893 101.693 86.0233 99.5578 86.5572C95.8209 86.0233 92.0841 85.4893 88.3472 85.0888C89.8152 84.5549 91.4167 84.0209 93.0183 83.487C93.6856 83.22 93.4187 82.2856 92.7514 82.5526C92.0841 82.8196 89.2814 83.6205 86.2118 84.8219C84.7437 84.6884 83.2757 84.4214 81.8076 84.2879ZM82.4749 90.5618C78.3376 90.6953 79.5388 89.3604 81.6741 88.0256C84.4768 88.426 87.146 88.96 89.9487 89.3604C87.4129 90.1613 85.0106 90.5618 82.4749 90.5618ZM114.238 92.5641C107.699 91.4962 101.026 90.2948 94.4863 89.2269C94.6198 89.2269 94.7533 89.0934 94.8867 89.0934C96.3548 88.693 97.9563 88.159 99.6913 87.6251C105.83 88.5595 111.836 89.4939 117.842 90.5618C117.041 91.2292 115.707 92.0302 114.238 92.5641ZM115.173 86.1567C118.376 87.3581 119.177 88.5595 118.509 89.7609C112.904 88.8265 107.432 87.8921 101.827 87.0911C106.364 85.6228 111.302 84.6884 115.173 86.1567ZM97.4225 87.3581C95.6875 87.8921 93.9525 88.426 92.2175 88.96C89.1479 88.426 86.0783 87.8921 83.1422 87.3581C84.2099 86.8242 85.2776 86.2902 85.9449 86.1567C86.0783 86.0233 86.3453 86.0233 86.4787 85.8898C90.0821 86.2902 93.6856 86.8242 97.4225 87.3581Z" fill="white"/>
<path d="M127.985 84.2878C129.853 84.5547 131.855 84.9552 133.59 86.1566C135.458 87.4914 136.393 90.0277 134.524 91.8965C133.99 92.297 134.791 93.0979 135.192 92.5639C136.793 90.9621 136.793 88.5593 135.458 86.6905C133.724 84.4212 130.787 83.7538 128.118 83.3533C127.584 83.2199 127.317 84.1543 127.985 84.2878Z" fill="white"/>
<path d="M75.0008 94.0324C73.3993 93.7655 72.0647 93.2315 70.7301 92.4306C69.5289 91.7632 66.4593 89.6274 67.7939 87.8921C68.1943 87.3581 67.527 86.6907 67.1266 87.2246C63.9236 90.9623 71.9312 94.4329 74.7339 94.9669C75.4012 95.1003 75.6681 94.1659 75.0008 94.0324Z" fill="white"/>
</g>
<defs>
<filter id="filter0_d_219:3375" x="0" y="0" width="148.032" height="124.323" filterUnits="userSpaceOnUse" color-interpolation-filters="sRGB">
<feFlood flood-opacity="0" result="BackgroundImageFix"/>
<feColorMatrix in="SourceAlpha" type="matrix" values="0 0 0 0 0 0 0 0 0 0 0 0 0 0 0 0 0 0 127 0" result="hardAlpha"/>
<feOffset/>
<feGaussianBlur stdDeviation="2"/>
<feComposite in2="hardAlpha" operator="out"/>
<feColorMatrix type="matrix" values="0 0 0 0 0.960784 0 0 0 0 0.847059 0 0 0 0 0 0 0 0 0.45 0"/>
<feBlend mode="normal" in2="BackgroundImageFix" result="effect1_dropShadow_219:3375"/>
<feBlend mode="normal" in="SourceGraphic" in2="effect1_dropShadow_219:3375" result="shape"/>
</filter>
</defs>
</svg>
