<svg width="23" height="23" viewBox="0 0 23 23" fill="none" xmlns="http://www.w3.org/2000/svg">
<path d="M11.7104 0.105225C5.6359 0.105225 0.710449 5.03067 0.710449 11.1052C0.710449 17.1798 5.6359 22.1052 11.7104 22.1052C17.785 22.1052 22.7104 17.1798 22.7104 11.1052C22.7104 5.03067 17.785 0.105225 11.7104 0.105225ZM17.9962 6.33447L16.9944 7.29451C16.906 7.3608 16.8642 7.46884 16.8814 7.57442V14.6385C16.8642 14.7465 16.906 14.8546 16.9944 14.9184L17.9765 15.8784V16.0921H13.0462V15.8883L14.0602 14.9037C14.1609 14.803 14.1609 14.7735 14.1609 14.6238V8.90768L11.3372 16.0675H10.9567L7.67139 8.90768V13.7079C7.64192 13.9092 7.71313 14.113 7.85554 14.2579L9.17652 15.8563V16.07H5.42474V15.8563L6.74572 14.2579C6.81532 14.186 6.86711 14.0988 6.89696 14.0033C6.9268 13.9078 6.93387 13.8066 6.91759 13.7079V8.1588C6.93478 8.00411 6.87585 7.85433 6.75799 7.74875L5.58433 6.33447V6.12085H9.23054L12.0444 12.2961L14.5218 6.12576H17.9962V6.33447Z" fill="#7E7E7E"/>
</svg>
