<svg width="23" height="23" viewBox="0 0 23 23" fill="none" xmlns="http://www.w3.org/2000/svg">
<path fill-rule="evenodd" clip-rule="evenodd" d="M22.7104 11.1052C22.7104 17.18 17.7852 22.1052 11.7104 22.1052C5.6357 22.1052 0.710449 17.18 0.710449 11.1052C0.710449 5.03047 5.6357 0.105225 11.7104 0.105225C17.7852 0.105225 22.7104 5.03047 22.7104 11.1052ZM12.1046 8.22598C11.0349 8.67056 8.89628 9.59181 5.68978 10.9888C5.16912 11.196 4.89595 11.3986 4.8712 11.5966C4.82903 11.9321 5.24887 12.0641 5.81903 12.2428C5.89695 12.2676 5.97762 12.2923 6.06012 12.3198C6.62203 12.5022 7.37737 12.7158 7.7697 12.7241C8.12628 12.7314 8.52412 12.5847 8.9632 12.2841C11.9589 10.261 13.5053 9.23889 13.6024 9.21689C13.6712 9.20131 13.7665 9.18114 13.8307 9.23889C13.8949 9.29572 13.8884 9.40389 13.882 9.43322C13.8399 9.61014 12.1954 11.1401 11.3429 11.9321C11.077 12.1786 10.8891 12.3537 10.8506 12.3941C10.7645 12.483 10.6764 12.5682 10.5921 12.6498C10.0696 13.1521 9.67912 13.5298 10.6141 14.1458C11.0633 14.4419 11.4226 14.6866 11.781 14.9305C12.1724 15.1972 12.563 15.4631 13.0689 15.7949C13.1973 15.8792 13.3201 15.9663 13.4402 16.0516C13.8958 16.377 14.3055 16.6685 14.8115 16.6226C15.1049 16.5951 15.4092 16.3192 15.5632 15.4951C15.9271 13.5463 16.6439 9.32598 16.8099 7.58614C16.82 7.44169 16.8138 7.29656 16.7915 7.15347C16.7782 7.03791 16.7219 6.93158 16.6339 6.85556C16.5028 6.74831 16.2993 6.72539 16.2076 6.72722C15.7942 6.73456 15.1599 6.95547 12.1046 8.22598Z" fill="#7E7E7E"/>
</svg>
