<svg width="23" height="23" viewBox="0 0 23 23" fill="none" xmlns="http://www.w3.org/2000/svg">
<path d="M11.7104 0.105225C5.6359 0.105225 0.710449 5.03067 0.710449 11.1052C0.710449 17.1798 5.6359 22.1052 11.7104 22.1052C17.785 22.1052 22.7104 17.1798 22.7104 11.1052C22.7104 5.03067 17.785 0.105225 11.7104 0.105225ZM16.9968 8.39697C17.0042 8.51237 17.0042 8.63268 17.0042 8.75054C17.0042 12.355 14.2591 16.507 9.24282 16.507C7.69594 16.507 6.26201 16.0577 5.05398 15.2842C5.27496 15.3088 5.48612 15.3186 5.71201 15.3186C6.9888 15.3186 8.16246 14.8865 9.09795 14.1548C7.89973 14.1302 6.89304 13.3445 6.54929 12.2642C6.96915 12.3255 7.34728 12.3255 7.77942 12.215C7.16246 12.0897 6.60791 11.7546 6.21 11.2667C5.81209 10.7789 5.59535 10.1683 5.59661 9.53871V9.50433C5.95755 9.70813 6.38232 9.83335 6.82674 9.85054C6.45314 9.60155 6.14675 9.26422 5.93474 8.86847C5.72273 8.47271 5.61165 8.03075 5.61134 7.58179C5.61134 7.07353 5.74393 6.60947 5.9821 6.20679C6.66691 7.0498 7.52144 7.73928 8.49016 8.23041C9.45888 8.72154 10.5201 9.00333 11.6049 9.05746C11.2194 7.20366 12.6042 5.70344 14.2689 5.70344C15.0546 5.70344 15.7618 6.03246 16.2602 6.56281C16.8765 6.44741 17.4658 6.21661 17.9913 5.90723C17.7875 6.53826 17.3602 7.07107 16.793 7.40746C17.343 7.34853 17.8734 7.1963 18.3645 6.98268C17.9937 7.52777 17.5296 8.01147 16.9968 8.39697Z" fill="#7E7E7E"/>
</svg>
