<svg width="26" height="17" viewBox="0 0 26 17" fill="none" xmlns="http://www.w3.org/2000/svg">
<path d="M25.187 2.61563C25.0454 2.13116 24.7697 1.69254 24.3892 1.34641C23.9978 0.989638 23.5182 0.734429 22.9956 0.604873C21.0396 0.11018 13.2032 0.11018 13.2032 0.11018C9.93624 0.0745152 6.67011 0.23138 3.42323 0.579889C2.90058 0.719016 2.42187 0.979927 2.02966 1.33942C1.6443 1.6952 1.36517 2.13392 1.21936 2.61463C0.869084 4.42525 0.698898 6.26371 0.711092 8.10522C0.698594 9.94508 0.868363 11.7829 1.21936 13.5958C1.36205 14.0745 1.64013 14.5112 2.02654 14.864C2.41295 15.2168 2.89413 15.4716 3.42323 15.6066C5.40525 16.1003 13.2032 16.1003 13.2032 16.1003C16.4742 16.136 19.7445 15.9791 22.9956 15.6305C23.5182 15.501 23.9978 15.2458 24.3892 14.889C24.7745 14.5362 25.0484 14.0975 25.1859 13.6198C25.5453 11.8099 25.7201 9.97065 25.7077 8.1282C25.7348 6.27796 25.5602 4.43006 25.187 2.61463V2.61563ZM10.7118 11.5271V4.68434L17.2318 8.10622L10.7118 11.5271Z" fill="#7E7E7E"/>
</svg>
