<svg width="135" height="135" viewBox="0 0 135 135" fill="none" xmlns="http://www.w3.org/2000/svg">
<g filter="url(#filter0_d_467:1773)">
<path d="M72.5992 110L65.8173 93.8757C72.3496 91.4339 78.4658 88.1501 84.1244 84.319L72.5992 110ZM41.4355 69.2051L25.5 62.3427L50.8803 50.681C47.0941 56.4066 43.8487 62.5953 41.4355 69.2051ZM97.938 33.42C99.103 33.42 100.143 33.42 101.017 33.6305C101.724 39.4824 100.934 51.523 87.2865 65.3318C80.2133 72.531 71.7671 78.0461 62.2807 81.7088L53.3351 72.8678C57.163 63.1426 62.6135 54.5963 69.6451 47.4814C81.1287 35.8618 91.364 33.42 97.938 33.42ZM97.938 25C89.6998 25 77.2176 27.9049 63.7369 41.5453C54.625 50.7652 49.1744 60.9113 45.6378 69.7945C44.4728 72.952 45.2634 76.4042 47.5518 78.7618L56.4141 87.687C57.9951 89.2868 60.1171 90.2551 62.3223 90.2551C63.2792 90.2551 64.2778 90.0025 65.2348 89.6236C75.7137 85.5807 85.2284 79.3394 93.1531 71.3101C116.703 47.4814 107.882 26.6419 107.882 26.6419C107.882 26.6419 104.096 25 97.938 25ZM78.4658 56.4066C75.2205 53.1228 75.2205 47.7761 78.4658 44.4923C81.7112 41.2085 86.9953 41.2085 90.2407 44.4923C93.4444 47.7761 93.486 53.1228 90.2407 56.4066C86.9953 59.6904 81.7112 59.6904 78.4658 56.4066ZM43.9319 109.2L59.0769 93.8757C57.6623 93.4968 56.2893 92.8653 55.041 91.9812L38.0653 109.2H43.9319ZM26.2905 109.2H32.1571L52.0037 89.1605L46.0955 83.2244L26.2905 103.264V109.2ZM26.2905 97.2858L43.3078 80.109C42.4341 78.846 41.81 77.4988 41.4355 76.0253L26.2905 91.3497V97.2858Z" fill="#F5D800"/>
</g>
<defs>
<filter id="filter0_d_467:1773" x="0.5" y="0" width="134" height="135" filterUnits="userSpaceOnUse" color-interpolation-filters="sRGB">
<feFlood flood-opacity="0" result="BackgroundImageFix"/>
<feColorMatrix in="SourceAlpha" type="matrix" values="0 0 0 0 0 0 0 0 0 0 0 0 0 0 0 0 0 0 127 0" result="hardAlpha"/>
<feOffset/>
<feGaussianBlur stdDeviation="12.5"/>
<feComposite in2="hardAlpha" operator="out"/>
<feColorMatrix type="matrix" values="0 0 0 0 0.960784 0 0 0 0 0.847059 0 0 0 0 0 0 0 0 0.65 0"/>
<feBlend mode="normal" in2="BackgroundImageFix" result="effect1_dropShadow_467:1773"/>
<feBlend mode="normal" in="SourceGraphic" in2="effect1_dropShadow_467:1773" result="shape"/>
</filter>
</defs>
</svg>
