<svg width="161" height="140" viewBox="0 0 161 140" fill="none" xmlns="http://www.w3.org/2000/svg">
<g filter="url(#filter0_d_467:1784)">
<path d="M25.572 59.1567C26.3908 57.8393 27.2463 57.7539 28.3584 58.864C33.3934 63.9265 38.4285 69.0012 43.4513 74.0759C43.7691 74.4053 43.989 74.4663 44.429 74.2345C46.5432 73.0756 49.0607 73.4416 50.735 75.1006C52.4337 76.7841 52.8493 79.3824 51.7371 81.5172C51.6394 81.7124 51.5416 81.8954 51.3705 82.2614C53.9736 80.7853 56.3689 80.8219 58.3854 82.8591C60.414 84.9085 60.4385 87.3239 58.9964 89.9344C61.8317 88.3974 64.3492 88.556 66.3535 90.9713C68.0155 92.9841 67.9177 95.2287 66.5979 97.5465C69.262 96.0948 71.7551 96.2046 73.7838 98.437C75.6658 100.486 75.5925 102.853 74.1871 105.317C75.8492 106.94 77.4623 108.635 79.1977 110.197C80.652 111.514 83.0229 111.295 84.4039 109.867C85.8826 108.342 85.9437 105.952 84.4772 104.402C82.9862 102.816 81.4342 101.292 79.8943 99.7423C77.8656 97.6807 75.8369 95.6313 73.796 93.5819C73.686 93.4721 73.5638 93.3501 73.4538 93.2281C72.8795 92.5816 72.8917 91.7033 73.4661 91.1421C74.0405 90.5688 74.8959 90.581 75.5314 91.2153C77.3035 92.9841 79.0511 94.7652 80.8231 96.5462C82.7051 98.437 84.5505 100.352 86.457 102.219C88.3879 104.109 91.5042 103.561 92.7019 101.182C93.484 99.6325 93.1785 97.8027 91.8709 96.4608C89.7322 94.2772 87.5813 92.118 85.4304 89.9466C83.9761 88.4706 82.4974 87.0067 81.0553 85.5063C80.4687 84.8963 80.4931 84.0424 81.0309 83.469C81.5808 82.8957 82.3996 82.8835 83.0595 83.4446C83.2429 83.6032 83.414 83.774 83.585 83.9448C86.4814 86.8603 89.3656 89.788 92.262 92.7158C92.8119 93.2647 93.3496 93.8137 93.8996 94.3626C95.5372 96.0095 97.9447 96.0826 99.5334 94.5578C101.159 92.9841 101.183 90.4956 99.5334 88.8243C96.0382 85.2745 92.5186 81.7368 89.0234 78.1869C88.8279 77.9796 88.6201 77.7722 88.4734 77.5404C88.0946 76.9183 88.2412 76.1131 88.7912 75.6618C89.3534 75.1982 90.1599 75.2348 90.7343 75.796C91.8098 76.8451 92.8608 77.9308 93.924 79.0043C96.5026 81.6026 99.069 84.2254 101.66 86.8115C103.444 88.5926 106.267 88.312 107.66 86.2626C108.773 84.6401 108.54 82.5541 107.086 81.0781C104.373 78.3455 101.66 75.6252 98.9591 72.8926C92.4453 66.3175 85.9315 59.7301 79.4177 53.1549C77.4623 51.1787 73.9793 51.0689 71.5718 52.9231C70.4964 53.7405 69.702 54.7896 69.1765 56.0338C68.1133 58.5468 67.05 61.0476 65.9746 63.5483C64.7158 66.4761 61.8561 68.0985 58.8498 67.5984C55.819 67.086 53.5947 64.5974 53.3625 61.4379C53.277 60.2302 53.5947 59.108 54.0591 58.0101C56.54 52.24 59.0209 46.47 61.5017 40.6999C61.795 40.029 62.0639 39.3458 62.3816 38.6871C64.9603 33.1732 71.193 30.7578 76.8879 32.917C79.4177 33.8685 82.0574 34.5151 84.6483 35.2836C89.1945 36.6377 93.7407 37.9796 98.2747 39.3458C98.5313 39.419 98.8002 39.5776 98.9957 39.7728C106.169 46.9091 113.331 54.0454 120.492 61.194C120.566 61.2671 120.627 61.3403 120.737 61.4623C115.861 66.2809 110.985 71.0994 105.925 76.1009C106.512 76.5767 106.976 76.9183 107.379 77.2964C108.003 77.882 108.589 78.5041 109.188 79.1141C111.253 81.2367 111.791 84.262 110.581 86.8969C109.347 89.5807 106.805 91.0567 103.762 90.8615C103.725 90.8615 103.689 90.8737 103.579 90.8981C103.774 93.0573 103.188 94.9847 101.648 96.5584C100.108 98.1199 98.2014 98.7298 95.9405 98.5468C96.136 100.755 95.5616 102.682 94.034 104.268C92.5064 105.854 90.5999 106.439 88.3635 106.269C88.3635 106.452 88.3512 106.61 88.3635 106.757C88.5223 109.55 87.0069 112.124 84.4772 113.344C81.9841 114.539 79.0511 114.137 76.9857 112.197C75.5314 110.831 74.1627 109.379 72.7695 107.964C72.5984 107.794 72.4762 107.574 72.3051 107.33C72.024 107.598 71.8529 107.733 71.7062 107.891C70.2275 109.379 68.761 110.88 67.2822 112.356C65.7668 113.856 63.9581 114.393 61.905 113.783C59.8274 113.173 58.5809 111.709 58.1165 109.623C57.7865 108.147 58.0921 106.757 58.9598 105.354C56.0756 106.915 53.5581 106.683 51.5049 104.183C50.0262 102.377 50.0506 100.108 51.4805 97.5099C50.2584 98.376 48.9996 98.7542 47.6187 98.62C46.2377 98.4736 45.0889 97.8881 44.1601 96.8634C42.828 95.3995 41.9726 92.7768 43.8302 89.8856C43.6346 89.9954 43.5124 90.0442 43.4024 90.1174C41.0804 91.5569 38.1841 91.1177 36.4365 89.0561C34.7011 87.0189 34.6766 83.9326 36.4853 81.9564C37.9885 80.3095 39.6017 78.7481 41.1904 77.1622C41.3615 76.9915 41.5937 76.8817 41.8504 76.7231C40.6283 75.491 39.565 74.4053 38.4896 73.3196C34.4567 69.2452 30.4115 65.1708 26.3786 61.0842C26.0731 60.767 25.8164 60.401 25.5353 60.0595C25.572 59.7301 25.572 59.4495 25.572 59.1567Z" fill="#F5D800"/>
<path d="M110.997 25C112.048 25.1952 112.793 25.8539 113.526 26.5858C120.419 33.588 127.336 40.5657 134.253 47.5557C135.866 49.1903 135.866 50.8128 134.266 52.4474C132.689 54.0332 131.125 55.6313 129.536 57.2171C128.143 58.62 126.395 58.62 125.014 57.2171C117.889 50.0198 110.752 42.8225 103.627 35.6252C102.222 34.2101 102.222 32.4657 103.627 31.0384C105.07 29.5746 106.536 28.1351 107.954 26.6468C108.687 25.8905 109.432 25.2074 110.52 25C110.679 25 110.838 25 110.997 25Z" fill="#F5D800"/>
</g>
<defs>
<filter id="filter0_d_467:1784" x="0.535339" y="0" width="159.929" height="139.03" filterUnits="userSpaceOnUse" color-interpolation-filters="sRGB">
<feFlood flood-opacity="0" result="BackgroundImageFix"/>
<feColorMatrix in="SourceAlpha" type="matrix" values="0 0 0 0 0 0 0 0 0 0 0 0 0 0 0 0 0 0 127 0" result="hardAlpha"/>
<feOffset/>
<feGaussianBlur stdDeviation="12.5"/>
<feComposite in2="hardAlpha" operator="out"/>
<feColorMatrix type="matrix" values="0 0 0 0 0.960784 0 0 0 0 0.847059 0 0 0 0 0 0 0 0 0.65 0"/>
<feBlend mode="normal" in2="BackgroundImageFix" result="effect1_dropShadow_467:1784"/>
<feBlend mode="normal" in="SourceGraphic" in2="effect1_dropShadow_467:1784" result="shape"/>
</filter>
</defs>
</svg>
