<svg width="309" height="177" viewBox="0 0 309 177" fill="none" xmlns="http://www.w3.org/2000/svg">
<g clip-path="url(#clip0_377:4953)">
<path opacity="0.09" d="M224.806 14.1449C284.342 59.4499 327.642 165.724 236.703 174.451C120.444 185.608 30.2508 146.92 90.1087 52.0735C93.7354 46.3344 165.253 -31.16 224.806 14.1449Z" fill="#FF9696"/>
<path d="M138.968 143.19C138.968 143.19 125.207 62.9272 39.843 52.5293C39.8261 52.5124 51.2486 130.176 138.968 143.19Z" fill="#EBF3FF"/>
<path d="M138.747 143.072C138.73 143.105 138.696 143.139 138.68 143.173C138.459 143.409 138.103 143.426 137.866 143.223L59.1798 71.7213C58.9425 71.5019 58.9256 71.1474 59.1459 70.9111C59.3662 70.6748 59.7221 70.6579 59.9594 70.8604L138.646 142.346C138.849 142.531 138.9 142.835 138.747 143.072Z" fill="#B4D5F9"/>
<path d="M120.19 126.04C120.156 126.091 120.139 126.124 120.088 126.158C119.936 126.31 119.699 126.361 119.495 126.293L81.6858 113.313C81.3808 113.211 81.2283 112.891 81.33 112.587C81.4316 112.283 81.7706 112.131 82.0587 112.232L118.783 124.842L107.819 88.9723C107.734 88.6685 107.903 88.3478 108.208 88.2465C108.513 88.1452 108.835 88.314 108.92 88.6178L120.241 125.584C120.292 125.736 120.275 125.905 120.19 126.04Z" fill="#B4D5F9"/>
<path d="M94.8368 103.067C94.8199 103.101 94.786 103.151 94.7521 103.185C94.5996 103.337 94.3962 103.388 94.1928 103.337L64.9926 95.3191C64.6876 95.2347 64.5012 94.914 64.5859 94.6101C64.6707 94.3063 64.9926 94.1206 65.2977 94.205L93.5319 101.953L86.3801 74.8609C86.2954 74.5571 86.4818 74.2364 86.7869 74.152C87.0919 74.0676 87.4139 74.2533 87.4986 74.5571L94.9046 102.628C94.9385 102.78 94.9216 102.949 94.8368 103.067Z" fill="#B4D5F9"/>
<path d="M73.5172 83.7734C73.4494 83.8916 73.3477 83.976 73.2121 84.0266C73.0427 84.0941 72.8732 84.0604 72.7207 83.976C72.602 83.9085 72.5173 83.8072 72.4665 83.6722L65.6198 64.2437C65.5181 63.9398 65.6706 63.6191 65.9756 63.5179C66.1451 63.4503 66.3146 63.4841 66.4671 63.5685C66.5857 63.636 66.6705 63.7373 66.7213 63.8723L73.568 83.3008C73.6358 83.4527 73.6019 83.6215 73.5172 83.7734Z" fill="#B4D5F9"/>
<path d="M73.5003 83.7902C73.3647 84.0265 73.0766 84.1278 72.8055 84.0434L51.5875 76.532C51.2824 76.4307 51.1299 76.0931 51.2485 75.8061C51.3502 75.5023 51.6891 75.3504 51.9942 75.4517L73.2122 82.9631C73.5173 83.0644 73.6698 83.402 73.5511 83.6889C73.5342 83.7227 73.5173 83.7564 73.5003 83.7902Z" fill="#B4D5F9"/>
<path d="M137.951 144.439C137.951 144.439 70.6363 98.3238 0 145.806C0 145.806 106.666 203.906 137.951 144.439Z" fill="#EBF3FF"/>
<path d="M136.866 144.827C136.765 144.996 136.595 145.114 136.375 145.114L16.6254 148.085C16.3034 148.085 16.0492 147.849 16.0322 147.528C16.0322 147.207 16.2864 146.954 16.5915 146.937L136.341 143.967C136.663 143.967 136.917 144.203 136.934 144.524C136.951 144.625 136.917 144.726 136.866 144.827Z" fill="#B4D5F9"/>
<path d="M110.92 145.452C110.869 145.553 110.785 145.621 110.683 145.671L71.772 164.863C71.4838 164.998 71.1449 164.88 71.0093 164.61C70.8737 164.323 70.9924 163.986 71.2805 163.834L109.107 145.182L75.0767 129.433C74.7886 129.298 74.6699 128.96 74.8055 128.673C74.9411 128.386 75.28 128.268 75.5681 128.386L110.666 144.625C110.869 144.709 110.988 144.912 111.005 145.131C111.005 145.266 110.971 145.367 110.92 145.452Z" fill="#B4D5F9"/>
<path d="M77.9576 146.296C77.9068 146.38 77.8221 146.465 77.7204 146.515L47.283 162.028C46.9949 162.18 46.656 162.061 46.5034 161.774C46.3679 161.487 46.4695 161.15 46.7577 160.998L76.1951 146.009L49.6895 132.64C49.4014 132.505 49.2997 132.151 49.4353 131.864C49.5709 131.577 49.9268 131.459 50.2149 131.61L77.7204 145.502C77.9068 145.604 78.0424 145.789 78.0424 146.009C78.0424 146.11 78.0085 146.211 77.9576 146.296Z" fill="#B4D5F9"/>
<path d="M49.91 146.6C49.7744 146.836 49.4693 146.954 49.1982 146.836L27.1159 138.008C27.082 137.991 27.065 137.991 27.0311 137.974C26.7939 137.839 26.6752 137.535 26.7939 137.265C26.9125 136.978 27.2514 136.826 27.5395 136.945L49.6219 145.773C49.6558 145.79 49.6727 145.79 49.7066 145.806C49.9439 145.941 50.0625 146.245 49.9439 146.515C49.9439 146.549 49.9269 146.566 49.91 146.6Z" fill="#B4D5F9"/>
<path d="M49.91 146.6C49.8422 146.701 49.7405 146.802 49.6219 146.836L24.7432 156.424C24.4382 156.542 24.1162 156.39 23.9975 156.103C23.8789 155.799 24.0314 155.478 24.3365 155.36L49.2151 145.772C49.5202 145.654 49.8422 145.806 49.9608 146.093C50.0286 146.262 49.9947 146.448 49.91 146.6Z" fill="#B4D5F9"/>
<path d="M193.691 135.577C194.267 134.294 199.182 123.66 208.299 119.541C212.333 117.718 216.027 117.364 216.027 117.364C219.027 117.077 220.688 117.533 224.416 117.904C227.653 118.225 230.432 118.208 236.008 118.174C242.973 118.123 245.99 117.701 250.786 118.849C253.481 119.491 254.616 120.132 255.158 121.027C256.107 122.613 254.819 124.403 253.142 127.272C249.329 133.771 250.803 133.383 248.278 136.927C244.871 141.721 240.448 144.878 238.703 145.89C229.958 150.988 211.079 147.123 193.691 135.577Z" fill="#093F8E"/>
<path d="M255.48 129.855C256.158 130.378 257.26 131.205 258.666 132.167C261.09 133.805 262.327 134.362 265.377 136.387C267.123 137.535 268.021 138.126 268.733 138.835C269.868 139.949 270.546 141.046 271.428 142.768C273.004 145.907 273.8 147.477 274.275 149.705C274.902 152.541 275.614 155.816 273.766 159.225C273.512 159.715 270.411 165.353 264.53 166.028C262.7 166.23 260.802 165.943 251.26 160.187C240.312 153.571 238.397 151.309 237.313 148.912C236.059 146.127 235.72 142.734 237.143 142.109C238.957 141.316 242.109 145.671 245.532 144.962C247.278 144.608 248.091 143.139 250.226 139.257C251.192 137.586 252.904 134.514 255.48 129.855Z" fill="#0079AF"/>
<path d="M203.808 123.288C204.079 123.491 207.91 119.102 212.875 119.035C212.943 119.035 214.265 119.069 216.909 119.119C217.01 119.119 218.874 119.17 220.823 119.204C228.823 119.727 234.585 119.98 238.618 120.115C244.312 120.301 246.804 120.267 250.939 121.027C253.277 121.449 255.142 121.955 255.311 121.668C255.531 121.263 252.396 119.372 248.837 118.36C245.431 117.381 243.431 117.701 237.076 117.769C234.466 117.803 229.06 117.853 223.298 117.499C215.688 117.026 214.502 116.283 211.536 117.144C206.096 118.68 203.554 123.086 203.808 123.288Z" fill="#B5821C"/>
<path d="M240.414 147.308C239.872 147.308 239.33 147.258 238.77 147.139L192.335 137.028C190.03 136.522 188.301 135.037 187.844 133.129C187.386 131.222 188.284 129.314 190.2 128.15L209.401 116.402C210.587 115.676 212.061 115.321 213.536 115.389L251.752 117.313C253.786 117.414 255.633 118.326 256.684 119.727C257.734 121.145 257.87 122.883 257.04 124.386L246.075 144.32C245.058 146.177 242.821 147.308 240.414 147.308ZM213.163 117.718C212.434 117.718 211.74 117.904 211.146 118.258L191.945 130.007C190.911 130.648 190.437 131.644 190.691 132.674C190.945 133.703 191.843 134.48 193.097 134.767L239.533 144.877C241.126 145.232 242.77 144.591 243.448 143.375L254.43 123.44C254.887 122.63 254.803 121.719 254.243 120.942C253.667 120.183 252.701 119.71 251.6 119.642L213.366 117.718C213.299 117.718 213.231 117.718 213.163 117.718Z" fill="#F9D35A"/>
<path d="M258.667 123.103C258.802 123.795 258.717 124.386 258.548 125.095C257.955 127.745 256.989 129.534 256.989 129.534C254.65 133.872 251.396 137.94 249.82 142.498C249.701 142.818 249.159 144.456 247.464 145.671C246.448 146.397 245.702 146.481 245.329 146.481C244.533 146.498 243.601 146.211 243.092 145.671C241.889 144.371 243.16 141.67 245.329 140.421C246.126 139.966 246.888 139.78 247.346 139.695C249.329 136.404 251.311 133.112 253.277 129.821C254.379 127.998 255.769 125.668 256.853 123.845C257.057 123.542 257.48 122.816 257.412 121.854C257.362 121.145 257.057 120.605 256.853 120.318C257.48 120.807 258.412 121.752 258.667 123.103Z" fill="#D99B14"/>
<path d="M183.098 124.369C183.81 124.031 184.505 124.116 186.573 124.285C187.606 124.369 189.098 124.47 190.945 124.555C208.164 126.378 215.095 127.053 216.247 127.087C216.434 127.087 217.23 127.103 218.264 127.272C218.84 127.357 218.891 127.407 220.061 127.627C221.603 127.931 221.755 127.914 222.196 128.082C222.603 128.251 223.196 128.555 223.755 129.163C227.602 133.264 231.449 137.383 235.296 141.485C237.093 141.367 238.872 141.249 240.668 141.13C236.262 135.509 231.856 129.889 227.45 124.285C227.009 123.39 226.263 122.31 224.874 121.651C223.67 121.094 222.484 121.077 222.145 121.077C219.4 121.027 205.062 119.575 184.81 117.431C184.522 117.431 180.878 117.465 179.116 119.66C177.37 121.82 178.15 125.23 181.421 127.272C181.624 125.162 182.726 124.538 183.098 124.369Z" fill="#D99B14"/>
<path d="M238.533 141.147L224.636 123.761C223.924 122.867 222.772 122.293 221.467 122.158L184.641 118.579C183.014 118.427 181.471 118.967 180.505 120.065C179.556 121.145 179.421 122.512 180.15 123.711L181.641 126.141L179.048 127.188L177.557 124.757C176.353 122.782 176.557 120.52 178.133 118.731C179.709 116.925 182.251 116.013 184.963 116.284L221.789 119.862C223.941 120.065 225.856 121.044 227.043 122.512L240.939 139.898L238.533 141.147Z" fill="#F9D35A"/>
<path d="M248.108 144C247.684 145.266 246.278 146.633 244.854 146.515C243.058 146.38 241.448 143.882 242.431 142.076C243.109 140.827 245.108 139.763 246.685 140.303C248.278 140.86 248.515 142.801 248.108 144Z" fill="#D99B14"/>
<path d="M248.43 143.173C248.244 145.046 246.092 146.819 244.854 146.532C243.736 146.262 243.244 144.321 243.736 142.869C244.177 141.569 245.583 140.067 246.803 140.269C247.922 140.438 248.532 141.991 248.43 143.173Z" fill="#EAB50C"/>
<path d="M247.6 143.696C247.312 144.81 246.481 145.62 245.753 145.502C245.007 145.384 244.651 144.371 244.939 143.257C245.227 142.143 246.058 141.333 246.786 141.451C247.515 141.569 247.888 142.565 247.6 143.696Z" fill="#F9D35A"/>
<path d="M225.399 176.73C226.365 177.033 226.873 176.611 236.143 173.472C238.601 172.645 241.075 171.851 243.532 171.024C247.803 169.573 254.599 167.631 265.361 165.589C258.141 162.804 254.04 159.479 251.582 156.896C249.193 154.364 247.99 152.102 243.38 146.869C241.261 144.473 239.414 142.548 238.177 141.299C234.313 138.008 231.602 135.189 229.788 133.146C228.009 131.155 226.483 129.23 223.399 128.116C221.399 127.39 219.518 127.272 218.247 127.289C220.06 132.235 222.433 140.067 223.043 149.84C223.924 163.715 220.857 175.345 225.399 176.73Z" fill="#2CAFDD"/>
<path d="M183.319 123.643C181.793 125.044 179.658 127.07 177.268 129.618C172.218 135.02 168.575 138.902 166.524 143.578C166.032 144.709 161.711 156.677 167.575 163.023C174.015 169.995 184.437 165.977 193.08 166.923C198.215 167.496 202.859 170.433 207.333 172.24C213.383 174.687 219.722 176.088 226.399 176.983C224.28 149.3 222.636 139.476 221.382 137.181C221.162 136.775 218.925 128.201 218.908 127.255C207.045 126.057 195.182 124.858 183.319 123.643Z" fill="#B8E0F2"/>
<path d="M201.944 120.301C203.282 120.301 204.367 119.424 204.367 118.343C204.367 117.261 203.282 116.385 201.944 116.385C200.606 116.385 199.521 117.261 199.521 118.343C199.521 119.424 200.606 120.301 201.944 120.301Z" fill="#D99B14"/>
<path d="M205.266 113.684C205.266 115.743 203.215 117.398 200.673 117.398C198.131 117.398 196.08 115.726 196.08 113.684C196.08 112.874 196.402 112.114 196.961 111.49C197.792 110.561 199.148 109.954 200.673 109.954C202.537 109.954 204.147 110.865 204.876 112.165C205.113 112.637 205.266 113.144 205.266 113.684Z" fill="#EAB50C"/>
<path d="M204.859 112.165C204.215 113.346 202.74 114.19 201.046 114.19C199.029 114.19 197.351 113.026 196.961 111.49C197.792 110.561 199.148 109.954 200.673 109.954C202.537 109.97 204.147 110.865 204.859 112.165Z" fill="#F9D673"/>
<path d="M152.542 164.526H109.039C107.039 164.526 105.395 162.888 105.395 160.896C105.395 158.905 107.039 157.267 109.039 157.267H152.542C154.542 157.267 156.186 158.905 156.186 160.896C156.186 162.905 154.542 164.526 152.542 164.526Z" fill="#06B9FA"/>
<path d="M150.848 69.3582H109.428C107.208 69.3582 105.395 67.5521 105.395 65.3408C105.395 63.1296 107.208 61.3235 109.428 61.3235H150.831C153.051 61.3235 154.864 63.1296 154.864 65.3408C154.864 67.5521 153.051 69.3582 150.848 69.3582Z" fill="#06B9FA"/>
<path d="M130.935 160.356C143.402 160.356 153.508 159.737 153.508 158.972C153.508 158.208 143.402 157.588 130.935 157.588C118.467 157.588 108.361 158.208 108.361 158.972C108.361 159.737 118.467 160.356 130.935 160.356Z" fill="#A3E7FC"/>
<path d="M130.731 69.0881C143.199 69.0881 153.305 68.4684 153.305 67.704C153.305 66.9395 143.199 66.3198 130.731 66.3198C118.264 66.3198 108.158 66.9395 108.158 67.704C108.158 68.4684 118.264 69.0881 130.731 69.0881Z" fill="#0080D1"/>
<mask id="mask0_377:4953" style="mask-type:alpha" maskUnits="userSpaceOnUse" x="108" y="66" width="45" height="93">
<path d="M122.783 66.4209C121.173 67.1468 111.361 71.738 109.157 81.6633C108.124 86.3389 109.208 90.1875 109.903 92.4831C113.631 104.738 124.834 111.068 128.647 113.009C128.935 113.38 129.223 113.751 129.528 114.123C122.461 119.001 117.716 123.879 114.784 127.306C111.361 131.323 109.564 134.328 108.785 138.008C108.124 141.147 108.412 143.645 108.53 144.472C109.073 148.304 110.734 150.937 111.784 152.558C113.733 155.579 116.021 157.605 117.784 158.905C126.071 158.905 134.375 158.905 142.662 158.905C143.12 158.651 143.764 158.28 144.509 157.79C144.967 157.487 146.78 156.288 148.136 154.921C150.39 152.642 151.288 149.992 151.763 148.574C151.966 147.967 152.881 145.046 152.644 141.35C152.187 134.632 148.119 129.466 145.916 127.086C145.814 126.968 137.747 119.085 131.833 114.173C131.935 113.853 132.036 113.532 132.155 113.228C139.29 108.89 143.849 104.164 146.543 100.923C150.221 96.4836 151.254 93.7491 151.712 92.3143C152.305 90.4576 153.712 85.7988 151.915 80.3466C150.492 76.0255 147.729 73.4935 145.645 71.5692C142.696 68.8347 139.73 67.2818 137.697 66.4041C132.714 66.4209 127.749 66.4209 122.783 66.4209Z" fill="url(#paint0_linear_377:4953)"/>
</mask>
<g mask="url(#mask0_377:4953)">
<path d="M122.783 66.4209C121.173 67.1468 111.361 71.738 109.157 81.6633C108.124 86.3389 109.208 90.1875 109.903 92.4831C113.631 104.738 124.834 111.068 128.647 113.009C128.935 113.38 129.223 113.751 129.528 114.123C122.461 119.001 117.716 123.879 114.784 127.306C111.361 131.323 109.564 134.328 108.785 138.008C108.124 141.147 108.412 143.645 108.53 144.472C109.073 148.304 110.734 150.937 111.784 152.558C113.733 155.579 116.021 157.605 117.784 158.905C126.071 158.905 134.375 158.905 142.662 158.905C143.12 158.651 143.764 158.28 144.509 157.79C144.967 157.487 146.78 156.288 148.136 154.921C150.39 152.642 151.288 149.992 151.763 148.574C151.966 147.967 152.881 145.046 152.644 141.35C152.187 134.632 148.119 129.466 145.916 127.086C145.814 126.968 137.747 119.085 131.833 114.173C131.935 113.853 132.036 113.532 132.155 113.228C139.29 108.89 143.849 104.164 146.543 100.923C150.221 96.4836 151.254 93.7491 151.712 92.3143C152.305 90.4576 153.712 85.7988 151.915 80.3466C150.492 76.0255 147.729 73.4935 145.645 71.5692C142.696 68.8347 139.73 67.2818 137.697 66.4041C132.714 66.4209 127.749 66.4209 122.783 66.4209Z" fill="url(#paint1_linear_377:4953)"/>
<path d="M122.782 66.4715L122.359 66.6741C122.223 66.7416 122.071 66.8091 121.935 66.8935C121.799 66.961 121.664 67.0454 121.511 67.113L121.105 67.3493C120.562 67.6531 120.02 67.9907 119.495 68.3283C118.969 68.6659 118.444 69.0372 117.935 69.4086C117.817 69.5099 117.681 69.5943 117.563 69.6955L117.376 69.8475L117.19 69.9994L116.817 70.3032L116.461 70.607L116.275 70.759L116.105 70.9109L115.749 71.2316L115.41 71.5523L115.241 71.7211C115.19 71.7717 115.122 71.8393 115.071 71.8899L114.732 72.2275C114.614 72.3456 114.512 72.4638 114.41 72.5651C114.309 72.6832 114.19 72.7845 114.088 72.9027L113.783 73.2571L113.631 73.4259L113.478 73.6116L113.19 73.983C113.139 74.0505 113.088 74.1011 113.055 74.1686L112.919 74.3543C112.817 74.4725 112.733 74.6075 112.631 74.7257L112.36 75.1139C112.275 75.2489 112.173 75.3671 112.105 75.5021L111.851 75.8904C111.817 75.9579 111.767 76.0254 111.733 76.0929L111.614 76.2955C110.987 77.3758 110.462 78.5067 110.055 79.6714C109.648 80.853 109.377 82.0683 109.224 83.2837C109.072 84.5159 109.055 85.765 109.157 86.9972L109.174 87.2335L109.208 87.4698L109.258 87.9256L109.326 88.3813L109.36 88.6176L109.394 88.8539C109.496 89.4616 109.631 90.0693 109.801 90.6769C109.953 91.2846 110.14 91.8754 110.326 92.4831L110.614 93.3608C110.665 93.5127 110.716 93.6478 110.767 93.7997L110.936 94.2386C111.394 95.4032 111.919 96.5342 112.512 97.6145C113.715 99.792 115.207 101.818 116.885 103.657C118.562 105.497 120.444 107.168 122.46 108.654C123.46 109.396 124.511 110.105 125.579 110.764C126.646 111.422 127.731 112.03 128.849 112.604L128.951 112.654L129.019 112.739L129.883 113.853L130.205 114.258L129.782 114.545C125.934 117.195 122.291 120.149 118.952 123.407C118.122 124.217 117.308 125.061 116.512 125.922C115.715 126.783 114.936 127.66 114.19 128.555C113.444 129.45 112.733 130.361 112.072 131.323L111.817 131.678L111.58 132.049C111.495 132.167 111.428 132.285 111.343 132.42L111.123 132.792L111.004 132.977L110.902 133.163L110.699 133.534C110.631 133.669 110.563 133.788 110.496 133.923L110.394 134.108L110.343 134.21L110.292 134.311C109.292 136.387 108.716 138.683 108.58 140.995C108.547 141.569 108.53 142.16 108.547 142.734C108.564 143.308 108.614 143.898 108.682 144.472L108.75 144.894C108.767 145.029 108.801 145.181 108.818 145.316L108.902 145.738L108.919 145.84L108.936 145.941L108.987 146.16C109.123 146.717 109.292 147.274 109.479 147.831C109.868 148.929 110.36 149.992 110.936 150.988C111.224 151.494 111.529 151.984 111.851 152.473L112.089 152.845L112.207 153.03C112.241 153.098 112.292 153.149 112.326 153.216L112.58 153.571L112.834 153.925C114.241 155.782 115.919 157.436 117.8 158.803L117.698 158.769L123.918 158.753L130.137 158.719L142.577 158.618L142.407 158.651C142.916 158.364 143.407 158.061 143.899 157.74C144.39 157.419 144.865 157.082 145.339 156.744C146.271 156.052 147.186 155.309 147.966 154.465C148.169 154.263 148.339 154.043 148.525 153.824L148.796 153.486L148.864 153.402L148.932 153.317L149.051 153.149C149.373 152.676 149.678 152.186 149.949 151.68C150.22 151.174 150.457 150.65 150.678 150.11C150.898 149.57 151.084 149.03 151.254 148.473C151.423 147.933 151.576 147.376 151.694 146.802C151.813 146.245 151.915 145.671 151.982 145.097C152.05 144.523 152.101 143.949 152.118 143.375V142.936V142.717V142.497V142.059L152.101 141.637L152.084 141.417C152.084 141.35 152.067 141.282 152.067 141.198L152.033 140.776C151.999 140.489 151.966 140.202 151.915 139.915L151.881 139.695L151.864 139.594L151.847 139.493L151.762 139.071C151.728 138.936 151.694 138.784 151.677 138.649L151.627 138.446L151.576 138.244C151.44 137.687 151.271 137.13 151.084 136.59C151.033 136.455 151 136.32 150.949 136.184L150.796 135.779C150.694 135.509 150.576 135.239 150.457 134.986C149.542 132.876 148.288 130.901 146.831 129.095C146.475 128.639 146.085 128.2 145.695 127.778L145.543 127.627L145.475 127.542L145.441 127.508L145.407 127.475L145.102 127.171L144.458 126.563C143.611 125.753 142.746 124.926 141.899 124.132C140.187 122.512 138.459 120.908 136.696 119.339C134.95 117.752 133.188 116.199 131.375 114.697L131.07 114.444L131.188 114.072L131.51 113.127L131.578 112.924L131.764 112.806C132.849 112.131 133.934 111.456 134.967 110.713C135.493 110.359 136.001 109.97 136.527 109.599C136.781 109.413 137.035 109.211 137.289 109.025L137.662 108.738L138.035 108.434C139.035 107.641 140.001 106.814 140.95 105.953C141.899 105.092 142.797 104.198 143.678 103.286C144.56 102.358 145.407 101.412 146.203 100.433C147.017 99.4544 147.78 98.4416 148.491 97.3951C148.576 97.26 148.678 97.1419 148.762 97.0068L149.017 96.6017C149.051 96.5342 149.101 96.4667 149.135 96.3991L149.254 96.1966C149.339 96.0616 149.423 95.9265 149.491 95.7915C149.813 95.2513 150.101 94.6943 150.372 94.1204C150.644 93.5465 150.864 92.9726 151.067 92.3818C151.271 91.7741 151.457 91.1833 151.61 90.5757C151.915 89.3603 152.118 88.1112 152.186 86.8621C152.254 85.613 152.203 84.3471 151.999 83.1149C151.61 80.6336 150.678 78.2535 149.22 76.1942C148.864 75.6709 148.474 75.1814 148.068 74.6919C147.661 74.2024 147.22 73.7467 146.78 73.2909C146.339 72.8352 145.865 72.3963 145.407 71.9574C145.288 71.8393 145.17 71.738 145.051 71.6367C144.932 71.5354 144.814 71.4173 144.695 71.316C144.458 71.1134 144.221 70.894 143.966 70.6914C142.001 69.071 139.814 67.7037 137.493 66.6741L137.594 66.691L130.154 66.6066L126.426 66.5559L122.782 66.4715ZM122.765 66.3702L126.477 66.3196L130.205 66.269L137.679 66.1846H137.73L137.781 66.2015C140.17 67.2142 142.441 68.5477 144.475 70.1682C144.729 70.3707 144.983 70.5733 145.221 70.7927C145.339 70.894 145.458 71.0121 145.593 71.1134C145.712 71.2147 145.831 71.3329 145.949 71.4341C146.424 71.873 146.898 72.3119 147.373 72.7676C147.83 73.2234 148.288 73.696 148.729 74.1855C149.152 74.675 149.576 75.1814 149.949 75.7216C150.728 76.785 151.372 77.9497 151.881 79.165C152.389 80.3804 152.762 81.6463 152.982 82.9461C153.203 84.2458 153.287 85.5624 153.22 86.879C153.169 88.1956 152.965 89.4954 152.66 90.7782C152.508 91.4196 152.321 92.0442 152.118 92.6687C151.915 93.2933 151.677 93.9178 151.389 94.5255C151.118 95.1332 150.813 95.7071 150.491 96.281C150.406 96.416 150.322 96.568 150.237 96.703L150.118 96.9224C150.084 96.9899 150.034 97.0575 149.983 97.125L149.728 97.547C149.644 97.682 149.542 97.817 149.457 97.9521C148.729 99.0324 147.949 100.079 147.136 101.092C146.322 102.104 145.458 103.083 144.577 104.029C143.678 104.974 142.763 105.886 141.797 106.763C140.831 107.641 139.848 108.502 138.831 109.312L138.459 109.616L138.069 109.92C137.815 110.122 137.56 110.325 137.289 110.511C136.764 110.899 136.238 111.287 135.713 111.641C134.645 112.401 133.544 113.093 132.442 113.768L132.696 113.448L132.374 114.393L132.188 113.768L132.866 114.342C133.086 114.528 133.324 114.73 133.544 114.916C133.984 115.304 134.442 115.693 134.883 116.081C135.323 116.469 135.764 116.857 136.205 117.262L136.865 117.853L137.526 118.444C139.272 120.048 141.001 121.651 142.712 123.288C143.577 124.099 144.424 124.926 145.271 125.753L145.898 126.377L146.22 126.698L146.271 126.749L146.305 126.783L146.373 126.867L146.525 127.036C146.932 127.491 147.322 127.947 147.695 128.42C148.44 129.365 149.135 130.344 149.762 131.374C150.389 132.403 150.949 133.467 151.423 134.581C151.542 134.851 151.66 135.138 151.762 135.425L151.915 135.847C151.966 135.982 152.016 136.134 152.067 136.269C152.254 136.843 152.423 137.417 152.576 138.007L152.626 138.227L152.677 138.446C152.711 138.598 152.745 138.733 152.779 138.885L152.864 139.324L152.881 139.442L152.898 139.56L152.932 139.78C152.982 140.084 153.016 140.388 153.05 140.674L153.084 141.13C153.084 141.198 153.101 141.282 153.101 141.35L153.118 141.569L153.135 142.025V142.481V142.7V142.919L153.118 143.375C153.084 143.983 153.033 144.574 152.965 145.181C152.881 145.772 152.779 146.38 152.643 146.954C152.508 147.544 152.355 148.118 152.169 148.709C151.982 149.266 151.779 149.84 151.542 150.397C151.305 150.954 151.05 151.494 150.762 152.034C150.474 152.558 150.152 153.081 149.779 153.571L149.644 153.756L149.576 153.841L149.508 153.925L149.22 154.279C149.017 154.516 148.83 154.735 148.61 154.955C148.508 155.056 148.407 155.174 148.288 155.275L148.118 155.427L147.949 155.579C147.729 155.782 147.491 155.984 147.271 156.17C146.814 156.558 146.322 156.913 145.848 157.267C145.356 157.622 144.865 157.942 144.356 158.263C143.848 158.584 143.339 158.888 142.797 159.175L142.712 159.225H142.628L130.188 159.124L123.969 159.09L117.749 159.073H117.698L117.647 159.04C116.698 158.331 115.8 157.571 114.953 156.744C114.851 156.643 114.749 156.541 114.648 156.423L114.343 156.102C114.139 155.883 113.936 155.664 113.749 155.444C113.546 155.225 113.36 154.988 113.173 154.769C113.088 154.651 112.987 154.533 112.902 154.415L112.766 154.246L112.631 154.06C112.275 153.587 111.936 153.098 111.614 152.608C111.292 152.119 110.987 151.613 110.682 151.106C110.089 150.076 109.58 149.013 109.174 147.899C108.97 147.342 108.801 146.768 108.665 146.194L108.614 145.975L108.58 145.873L108.564 145.772L108.479 145.333C108.445 145.181 108.428 145.046 108.394 144.894L108.326 144.456C108.242 143.865 108.191 143.274 108.157 142.683C108.123 142.092 108.14 141.502 108.157 140.911C108.191 140.32 108.242 139.729 108.326 139.138C108.411 138.548 108.513 137.974 108.648 137.383C108.682 137.231 108.716 137.096 108.75 136.944C108.784 136.809 108.818 136.657 108.869 136.522L109.004 136.1L109.072 135.881L109.14 135.678L109.292 135.256C109.343 135.121 109.394 134.986 109.462 134.834C109.563 134.564 109.699 134.294 109.818 134.007C110.309 132.927 110.919 131.897 111.563 130.901C112.224 129.905 112.936 128.96 113.665 128.048C114.41 127.12 115.173 126.225 115.953 125.348C116.156 125.128 116.342 124.909 116.546 124.689C116.749 124.47 116.935 124.251 117.139 124.048L117.749 123.407L118.376 122.782C121.698 119.423 125.341 116.385 129.222 113.684L129.121 114.376L128.239 113.262L128.409 113.397C126.121 112.232 123.935 110.882 121.884 109.363C120.85 108.603 119.867 107.793 118.918 106.932C117.969 106.071 117.054 105.177 116.207 104.214C114.495 102.307 112.987 100.214 111.75 97.9521C111.14 96.8211 110.614 95.6564 110.157 94.458L109.987 94.0022C109.936 93.8503 109.868 93.6984 109.835 93.5465L109.546 92.635C109.36 92.0273 109.191 91.4197 109.038 90.7951C108.886 90.1706 108.75 89.546 108.648 88.9046L108.614 88.6683L108.58 88.432L108.513 87.9593L108.462 87.4867L108.445 87.2504L108.428 87.0141C108.343 85.7312 108.377 84.4315 108.564 83.1655C108.75 81.8826 109.055 80.6336 109.496 79.4351C109.936 78.2198 110.512 77.0719 111.173 75.9748L111.292 75.7722C111.326 75.7047 111.377 75.6372 111.428 75.5697L111.699 75.1645C111.783 75.0295 111.885 74.8945 111.97 74.7763L112.258 74.3881C112.36 74.253 112.461 74.1349 112.546 74.0167C112.648 73.8986 112.749 73.7635 112.851 73.6454L113.156 73.274L113.309 73.0883L113.478 72.9196L113.8 72.5651C113.902 72.4469 114.021 72.3288 114.139 72.2275C114.258 72.1093 114.359 71.9912 114.478 71.8899L114.817 71.5523C114.868 71.5017 114.936 71.4341 114.987 71.3835L115.156 71.2316L115.512 70.9109L115.885 70.607L116.071 70.4551L116.258 70.3032L116.63 69.9994L117.003 69.7124L117.19 69.5605L117.376 69.4255C117.512 69.3411 117.63 69.2398 117.766 69.1554C118.291 68.784 118.817 68.4464 119.359 68.1088C119.901 67.7713 120.461 67.4674 121.02 67.1805L121.443 66.961C121.579 66.8935 121.732 66.826 121.867 66.7585C122.003 66.691 122.155 66.6234 122.308 66.5559L122.528 66.4546C122.613 66.4378 122.698 66.404 122.765 66.3702Z" fill="#3EBEFF"/>
</g>
<path d="M149.543 152.44C149.255 154.702 137.358 155.664 127.122 155.242C119.478 154.921 112.75 153.841 112.496 151.933C112.411 151.326 113.581 150.11 115.919 147.68C117.394 146.144 118.631 144.844 120.529 143.595C122.088 142.565 124.647 140.877 128.376 140.54C129.409 140.455 132.324 140.287 135.477 141.637C135.782 141.772 136.087 141.924 136.409 142.076C138.205 143.004 138.849 143.848 140.849 145.654C146.746 150.954 149.695 151.309 149.543 152.44Z" fill="#FFEC45"/>
<path d="M149.543 152.44C149.255 154.702 137.358 155.664 127.122 155.242C129.85 153.604 133.138 151.326 134.68 147.173C135.477 145.013 135.51 143.173 135.46 141.637C135.765 141.772 136.07 141.924 136.392 142.076C138.188 143.004 138.832 143.848 140.832 145.654C146.747 150.954 149.695 151.309 149.543 152.44Z" fill="#FFBC00"/>
<path d="M147.374 98.9314C144.899 100.535 139.629 103.489 132.274 104.063C123.902 104.721 117.58 101.953 114.937 100.602C117.055 103.337 120.105 106.629 124.359 109.566C125.986 110.697 127.579 111.625 129.088 112.384C129.494 115.305 130.155 117.432 130.782 117.432C131.409 117.432 132.036 115.254 132.375 112.283C133.307 111.743 134.595 110.95 136.053 109.903C138.629 108.046 140.357 106.375 142.018 104.755C143.51 103.303 145.357 101.362 147.374 98.9314Z" fill="#FFBC00"/>
<path d="M131.884 124.724C131.257 124.724 130.748 124.217 130.748 123.593V111.777C130.748 111.152 131.257 110.646 131.884 110.646C132.511 110.646 133.019 111.152 133.019 111.777V123.593C133.019 124.2 132.511 124.724 131.884 124.724Z" fill="#FFBC00"/>
<path d="M132.748 140.067C132.104 140.067 131.579 139.544 131.579 138.902V131.593C131.579 130.952 132.104 130.429 132.748 130.429C133.392 130.429 133.917 130.952 133.917 131.593V138.902C133.917 139.527 133.392 140.067 132.748 140.067Z" fill="#FFBC00"/>
<path d="M127.393 127.745C126.647 127.745 126.037 127.137 126.037 126.395V120.588C126.037 119.845 126.647 119.238 127.393 119.238C128.138 119.238 128.748 119.845 128.748 120.588V126.395C128.748 127.137 128.138 127.745 127.393 127.745Z" fill="#FFBC00"/>
<path d="M128.24 135.51C127.444 135.51 126.8 134.868 126.8 134.075V132.032C126.8 131.239 127.444 130.598 128.24 130.598C129.037 130.598 129.681 131.239 129.681 132.032V134.075C129.681 134.868 129.037 135.51 128.24 135.51Z" fill="#FFBC00"/>
<path opacity="0.67" d="M127.393 69.4763C125.579 71.0293 122.851 73.73 120.766 77.8149C120.766 77.8149 119.173 80.9207 118.512 84.0435C116.36 94.1713 126.088 105.548 126.884 106.443C125.139 106.021 123.393 105.616 121.631 105.194C119.377 102.966 116.665 99.6065 114.886 94.9984C114.106 92.9559 113.038 90.1202 113.14 86.2885C113.242 82.1867 114.614 79.199 115.394 77.5786C117.563 72.9873 120.716 70.0671 122.766 68.4973C124.308 68.818 125.851 69.1556 127.393 69.4763Z" fill="white"/>
<path opacity="0.67" d="M117.902 71.603C116.665 72.5652 114.699 74.3544 113.157 77.2071C112.835 77.7979 111.276 80.7687 111.039 84.9211C110.7 90.7445 113.208 95.1839 114.902 98.1041C119.326 105.717 125.8 109.835 129.511 111.793C129.07 111.945 128.613 112.097 128.172 112.249C125.867 111.101 123.122 109.413 120.393 106.949C119.139 105.818 115.224 102.088 112.276 95.876C110.903 92.9727 109.767 90.5758 109.53 87.0817C109.412 85.4275 109.174 80.8868 112.005 76.38C113.513 73.9831 115.326 72.4639 116.512 71.6199C116.987 71.603 117.445 71.603 117.902 71.603Z" fill="white"/>
<path opacity="0.67" d="M136.002 69.4764C137.765 70.3879 141.408 72.5991 144.001 76.9372C147.526 82.8451 146.747 88.7023 146.492 90.4915C144.849 102.746 132.918 108.89 131.63 109.532C131.799 110.021 131.969 110.528 132.121 111.017C134.578 109.819 138.188 107.692 141.612 104.046C144.255 101.227 149.018 96.1631 149.475 88.3647C149.56 86.9299 149.882 78.929 144.103 72.9367C142.34 71.0968 140.493 69.9828 139.239 69.3245C138.171 69.392 137.087 69.4426 136.002 69.4764Z" fill="white"/>
<path opacity="0.67" d="M147.102 73.8649C147.865 74.4894 148.95 75.5191 149.949 77.072C150.373 77.7303 152.153 80.5999 152.441 84.8535C152.661 88.0944 151.915 90.542 151.441 92.0274C150.865 93.8335 150.17 95.2345 149.611 96.1798C150.187 94.4749 150.848 91.9768 150.983 88.854C151.085 86.5584 151.221 83.1825 149.678 79.4689C148.543 76.7176 146.916 74.7933 145.543 73.5442C146.086 73.6623 146.594 73.7636 147.102 73.8649Z" fill="white"/>
<path opacity="0.67" d="M128.138 120.233C126.02 122.478 123.478 125.804 121.648 130.311C120.715 132.606 119.241 136.37 119.394 141.384C119.461 143.409 119.546 146.127 121.021 149.098C123.461 154.01 127.986 156.204 129.765 156.93C128.681 157.166 127.02 157.419 125.02 157.183C123.122 156.964 121.631 156.39 120.648 155.934C119.919 155.208 118.936 154.111 117.902 152.693C117.326 151.916 114.682 148.186 113.784 144.608C111.513 135.577 120.139 126.597 121.648 125.078C124.037 122.698 126.444 121.179 128.138 120.233Z" fill="white"/>
<path opacity="0.67" d="M119.648 156.694C118.258 155.664 116.055 153.756 114.276 150.718C113.987 150.229 111.632 146.093 111.53 141.012C111.327 130.564 120.851 123.778 121.648 123.221C119.411 124.521 115.377 127.289 112.411 132.302C111.327 134.109 109.615 137.079 109.327 141.029C108.734 148.878 114.157 154.651 115.411 155.934C116.818 156.204 118.224 156.44 119.648 156.694Z" fill="white"/>
<path opacity="0.67" d="M133.019 118.866C136.155 120.622 142.154 124.622 145.882 132.049C147.526 135.324 150.017 140.303 148.628 146.481C147.357 152.085 143.577 155.529 142.001 156.812C142.917 156.643 143.832 156.474 144.747 156.322C145.831 155.326 147.374 153.706 148.611 151.343C150.729 147.359 150.746 143.696 150.729 142.38C150.678 135.746 147.119 131.053 145.137 128.42C141.018 123.002 135.985 120.217 133.019 118.866Z" fill="white"/>
<path d="M160.677 63.5685H100.904C98.9383 63.5685 97.3452 61.9649 97.3452 60.0237C97.3452 58.0657 98.9552 56.479 100.904 56.479H160.677C162.643 56.479 164.236 58.0826 164.236 60.0237C164.236 61.9818 162.643 63.5685 160.677 63.5685Z" fill="#00A7F1"/>
<path d="M160.016 171.21H100.26C98.2942 171.21 96.7012 169.606 96.7012 167.665C96.7012 165.707 98.3112 164.121 100.26 164.121H160.033C161.999 164.121 163.592 165.724 163.592 167.665C163.575 169.606 161.982 171.21 160.016 171.21Z" fill="#00A7F1"/>
<path d="M150.306 59.838H106.887C106.361 59.838 105.938 59.416 105.938 58.8928C105.938 58.3695 106.361 57.9475 106.887 57.9475H150.306C150.831 57.9475 151.255 58.3695 151.255 58.8928C151.238 59.416 150.814 59.838 150.306 59.838Z" fill="#A3E7FC"/>
<path d="M145.831 168.104H102.412C101.887 168.104 101.463 167.682 101.463 167.159C101.463 166.636 101.887 166.214 102.412 166.214H145.831C146.357 166.214 146.78 166.636 146.78 167.159C146.78 167.682 146.357 168.104 145.831 168.104Z" fill="#A3E7FC"/>
<path d="M158.355 41.6586C156.22 42.4181 155.067 42.1312 154.39 41.7092C153.762 41.3041 153.661 40.8314 152.508 39.5655C151.678 38.654 151.153 38.2489 150.627 37.7594C150.153 37.3205 146.035 33.4719 147.017 30.3154C147.119 29.9778 147.407 29.0663 148.204 28.6612C150.305 27.5809 154.237 30.7205 156.186 33.6238C158.203 36.6284 158.406 39.8187 158.355 41.6586Z" fill="#058DD8"/>
<path d="M156.339 55.6181C154.915 54.9598 153.813 50.3854 153.542 48.7987C153.22 46.8407 153.288 39.92 155.339 38.9916C159.186 37.253 158.287 43.4647 158.169 45.2202C158.05 47.0095 159.287 56.1751 156.339 55.6181Z" fill="#058DD8"/>
<path d="M155.086 55.1454C155.17 54.6559 155.221 54.6221 155.238 54.2677C155.255 54.0314 155.238 53.8457 155.306 53.8288C155.374 53.8119 155.441 54.0314 155.679 54.2508C155.933 54.4871 156.204 54.5377 156.306 54.5546C156.543 54.6053 156.729 54.5715 157.102 54.4871C157.526 54.4027 157.645 54.3014 157.679 54.2677C157.831 54.1326 157.899 53.947 157.933 53.8288L158.729 54.1158L160.305 54.7403L162.085 55.1961L162.881 55.3311C163 55.3817 163.17 55.4324 163.407 55.483C163.83 55.5843 164 55.5843 164.203 55.7024C164.237 55.7362 164.627 55.9725 164.61 56.2088C164.576 56.4283 164.22 56.5633 164.085 56.6139C163.034 56.9684 161.221 56.6308 160.153 56.5127C157.899 56.2595 156.763 56.1413 155.916 56.3776C155.763 56.4283 155.272 56.5633 155.069 56.327C154.916 56.192 154.967 55.8375 155.086 55.1454Z" fill="#022299"/>
<path d="M154.83 56.8503L164.592 57.0866L164.609 56.3777C161.423 56.2933 158.22 56.2258 155.033 56.1414C154.966 56.1414 154.915 56.1414 154.847 56.1414C154.83 56.3777 154.83 56.614 154.83 56.8503Z" fill="#00458A"/>
<path d="M147.882 55.7193C149.898 56.749 151.119 58.3526 150.627 59.3147C150.136 60.2769 148.102 60.2262 146.085 59.2134C144.069 58.1838 142.848 56.5802 143.34 55.6181C143.848 54.6559 145.882 54.7066 147.882 55.7193Z" fill="#022299"/>
<path d="M149.95 44.1568C144.798 45.7097 143.018 32.3073 142.323 29.0158C141.662 25.893 144.645 21.6562 147.712 25.201C149.441 27.2096 149.272 32.8643 149.644 35.3794C150.017 37.6919 151.627 41.9962 149.95 44.1568Z" fill="#07A8EF"/>
<path d="M145.577 57.2554L145.306 57.2048C144.103 56.9684 143.323 55.7869 143.56 54.5884L146.018 42.5195C146.255 41.321 147.441 40.5446 148.645 40.7809L148.916 40.8315C150.119 41.0678 150.899 42.2494 150.661 43.4479L148.204 55.5168C147.95 56.7152 146.78 57.4917 145.577 57.2554Z" fill="#07A8EF"/>
<path d="M162.779 36.4933C162.66 36.0544 162.508 35.4468 162.355 34.7041C162.236 34.1133 162.084 33.3199 161.982 32.4084C161.965 32.2228 161.813 30.923 161.982 29.4883C162.372 26.0448 163.829 25.0827 163.185 23.6648C162.728 22.6182 161.372 21.8418 160.457 22.1625C159.457 22.5001 158.779 24.2049 159.355 26.2811C158.949 28.8975 158.542 31.4969 158.152 34.1133C159.406 36.3414 160.677 38.5526 161.931 40.7807C162.05 40.882 162.575 41.304 162.999 41.1183C162.999 41.1183 163.152 41.0508 163.27 40.8989C163.711 40.2406 162.88 36.8984 162.779 36.4933Z" fill="#DD966C"/>
<path d="M161.372 25.3022C161.66 25.4541 162.423 25.8761 163.05 25.6229C163.287 25.5216 163.541 25.319 164.05 23.9012C164.524 22.6183 164.761 21.96 164.795 21.2173C164.812 20.7615 164.897 18.8035 164.185 18.5334C162.948 18.0777 159.372 22.8546 160.423 24.4919C160.609 24.762 160.982 25.0827 161.372 25.3022Z" fill="#0047C0"/>
<path d="M159.067 14.128C153.729 15.9679 151.068 16.8963 150.271 17.3183C147.373 18.9049 141.815 21.9264 142.205 25.1504C142.408 26.754 143.984 27.8512 145.035 28.5601C147.526 30.2818 150.221 30.2143 151.085 30.1637C154.864 29.9949 157.491 27.8343 159.762 25.9438C162.05 24.0532 163.117 22.3653 163.389 21.9264C164.812 19.6139 165.117 17.6896 165.202 17.0988C165.422 15.529 165.626 14.0267 164.795 13.284C163.914 12.5076 162.304 13.0139 159.067 14.128Z" fill="#A5D5FA"/>
<path d="M161.49 23.26C161.728 23.2938 161.88 22.703 162.592 21.4539C163.778 19.3777 164.304 19.3777 164.507 18.348C164.71 17.3184 164.456 16.0355 163.592 15.1409C163.084 14.6176 161.965 13.7736 161.27 14.1281C160.779 14.3813 160.745 15.1409 160.965 19.4452C161.118 22.3147 161.185 23.2262 161.49 23.26Z" fill="#B98B74"/>
<path d="M163.592 18.6519C162.779 19.9178 161.982 21.2007 161.169 22.4667C161.101 23.2769 161.016 24.0871 160.948 24.8804C162.287 23.5976 163.473 22.0784 164.914 19.8503C164.473 19.4452 164.033 19.0401 163.592 18.6519Z" fill="#001EB2"/>
<path d="M160.304 13.706C160.423 14.2799 160.508 14.8876 160.575 15.5459C160.881 19.0737 159.965 22.0614 159.067 24.087C159.779 23.5469 160.474 23.0236 161.186 22.4834C161.779 19.3269 162.355 16.1536 162.948 12.9971C162.067 13.2165 161.186 13.4528 160.304 13.706Z" fill="#001EB2"/>
<path d="M153.22 31.6996C156.118 34.2822 158.999 36.8479 161.897 39.4305C162.236 38.7891 162.575 38.1646 162.914 37.5231C160.999 35.4132 159.084 33.3032 157.169 31.1933C157.067 28.0536 156.966 24.8972 156.864 21.7575C156.559 21.6225 155.152 21.0148 154.034 21.6563C153.373 22.0445 152.983 22.7534 152.729 24.2726C152.458 25.7243 152.237 28.2731 153.22 31.6996Z" fill="#FBB486"/>
<path d="M159.644 19.0398C159.644 19.3774 159.576 19.7319 159.424 20.0695L157.39 24.6945C156.56 24.1543 155.475 23.5804 154.238 23.0403C153.73 22.8209 153.221 22.6183 152.747 22.4495L154.696 18.027C155.272 16.7273 156.797 16.1365 158.085 16.7104C159.068 17.1155 159.644 18.0608 159.644 19.0398Z" fill="#0047C0"/>
<path d="M164.473 42.9416C164.388 43.0935 164.185 43.1611 164.016 43.0598L163.406 42.7053C163.253 42.6209 163.185 42.4184 163.287 42.2496C163.372 42.0976 163.575 42.0301 163.744 42.1314L164.355 42.4859C164.507 42.5872 164.575 42.7897 164.473 42.9416Z" fill="#DD966C"/>
<path d="M164.219 43.6843C164.117 43.8362 163.897 43.8699 163.745 43.7687L162.779 43.0766C162.626 42.9753 162.592 42.7559 162.694 42.604C162.796 42.452 163.016 42.4183 163.168 42.5196L164.134 43.2116C164.287 43.3129 164.321 43.5323 164.219 43.6843Z" fill="#DD966C"/>
<path d="M163.745 44.2751C163.609 44.4271 163.372 44.4271 163.236 44.292L162.27 43.4143C162.118 43.2792 162.118 43.0429 162.253 42.9079C162.389 42.756 162.626 42.756 162.762 42.891L163.728 43.7688C163.863 43.8869 163.88 44.1232 163.745 44.2751Z" fill="#DD966C"/>
<path d="M163.168 44.832C162.999 44.9164 162.813 44.832 162.728 44.6801L162.372 43.9374C162.287 43.7686 162.372 43.5829 162.524 43.4985C162.694 43.4141 162.88 43.4985 162.965 43.6504L163.321 44.3932C163.406 44.562 163.338 44.7645 163.168 44.832Z" fill="#DD966C"/>
<path d="M164.626 42.756C164.727 42.8235 164.778 42.8573 164.863 42.8741C164.931 42.891 165.049 42.9079 165.134 42.8404C165.202 42.7897 165.202 42.7053 165.202 42.6885C164.914 42.4184 164.863 42.2833 164.897 42.2158C164.914 42.1821 164.931 42.1314 164.914 42.0639C164.897 42.0133 164.846 41.9795 164.812 41.9458C164.711 41.8445 164.727 41.7263 164.677 41.5744C164.643 41.49 164.524 41.3887 164.287 41.203C164.083 41.0343 164.033 41.0005 163.812 40.8148C163.643 40.6629 163.66 40.6629 163.609 40.6291C163.406 40.4941 163.168 40.511 162.812 40.5616C161.965 40.6629 161.897 40.6291 161.796 40.7135C161.711 40.7979 161.66 40.9667 161.558 41.3212C161.423 41.777 161.355 41.9964 161.457 42.2496C161.474 42.3171 161.558 42.5028 161.745 42.5703C161.863 42.6209 161.965 42.5872 162.202 42.5197C162.88 42.334 162.948 42.4184 163.117 42.2665C163.321 42.0808 163.304 41.8614 163.473 41.8445C163.558 41.8445 163.575 41.912 163.812 41.9964C163.965 42.047 164.016 42.0302 164.083 42.0977C164.151 42.1821 164.117 42.2327 164.168 42.3509C164.202 42.469 164.355 42.5703 164.626 42.756Z" fill="#DD966C"/>
<path d="M162.185 36.9998C162.219 37.0167 162.304 37.0505 162.524 37.2024C162.592 37.2361 162.66 37.2868 162.778 37.3374C162.863 37.3712 163.151 37.4893 163.558 37.5062C163.829 37.5231 163.914 37.4725 164.1 37.4725C164.202 37.4725 164.287 37.4725 164.338 37.4725C164.49 37.4893 164.778 37.4893 165.371 37.4893C165.253 37.7088 165.117 37.9113 164.999 38.1308C165.185 38.2152 165.304 38.3164 165.371 38.4008C165.49 38.5359 165.575 38.6709 165.643 38.8059C165.693 38.8903 165.71 38.9579 165.744 39.0085C165.744 39.0085 165.744 39.1098 165.761 39.1604C165.778 39.2448 165.846 39.2786 165.931 39.363C166.015 39.4474 166.032 39.5318 166.1 39.6162C166.304 39.9538 166.609 39.9031 166.693 40.1563C166.761 40.3589 166.626 40.5614 166.592 40.6121C166.558 40.6627 166.49 40.764 166.354 40.8146C166.27 40.8484 166.202 40.8484 166.168 40.8484C166.185 40.8821 166.236 40.9328 166.236 41.0341C166.236 41.186 166.117 41.2704 166.1 41.3041C166.083 41.321 165.965 41.4223 165.812 41.3885C165.761 41.3717 165.71 41.3379 165.693 41.321C165.693 41.3548 165.71 41.4054 165.693 41.4729C165.66 41.5911 165.558 41.6586 165.524 41.6755C165.49 41.6924 165.388 41.7599 165.27 41.7261C165.151 41.6924 165.134 41.5742 165.049 41.5742C164.999 41.5742 164.965 41.6248 164.914 41.6417C164.88 41.6755 164.761 41.743 164.422 41.6248C164.05 41.5067 163.711 41.2535 163.558 41.1353C162.982 40.7133 162.694 40.4939 162.558 40.3251C162.389 40.1226 162.423 40.1057 162.135 39.7343C161.982 39.5318 161.813 39.3292 161.592 39.1098C161.44 38.9579 161.202 38.7553 160.914 38.5359C161.711 37.1686 162.05 36.9323 162.185 36.9998Z" fill="#FBB486"/>
<path d="M168.897 17.4209C167.676 19.5308 165.388 20.4761 163.778 19.5646C163.66 19.4971 163.541 19.4127 163.423 19.3283C162.118 18.2648 161.948 16.0198 163.067 14.0787C164.219 12.0869 166.338 11.1247 167.931 11.7999C168.015 11.8337 168.1 11.8843 168.185 11.935C169.812 12.8465 170.117 15.3109 168.897 17.4209Z" fill="#B98B74"/>
<path d="M168.286 17.0481C167.134 19.0399 165.016 20.002 163.423 19.3099C162.118 18.2465 161.948 16.0015 163.067 14.0604C164.219 12.0686 166.338 11.1064 167.931 11.7816C169.236 12.8619 169.422 15.1069 168.286 17.0481Z" fill="#FBB486"/>
<path d="M169.676 12.6763C169.795 12.8282 170.032 13.1152 170.117 13.554C170.134 13.6891 170.185 14.0267 170.015 14.398C169.727 15.0057 169.066 15.1239 168.998 15.1407C168.507 15.2251 168.117 15.0057 167.981 14.9382C166.914 14.3474 166.88 12.7945 166.88 12.6594C166.287 13.8916 165.693 15.1407 165.1 16.3729C165.134 16.5924 165.185 16.9131 165.338 17.2844C165.507 17.7064 165.846 18.5167 166.643 18.7867C167.422 19.0568 168.168 18.6517 168.32 18.5504C168.371 18.6179 168.422 18.7361 168.422 18.888C168.422 19.0737 168.303 19.2087 168.185 19.3269C167.524 19.9683 166.812 20.2046 166.812 20.2046C166.422 20.3228 165.507 20.5929 164.456 20.2384C163.999 20.0865 163.236 19.8164 162.914 19.1074C162.558 18.3479 162.863 17.4195 163.219 16.8962C163.524 16.4405 163.795 16.4067 164.1 15.8328C164.253 15.5458 164.456 15.1239 164.338 14.6681C164.219 14.1786 163.778 13.7566 163.558 13.8241C163.423 13.8748 163.456 14.0604 163.321 14.398C163.05 15.0395 162.473 15.377 162.304 15.4614C161.863 15.7146 161.457 15.7822 161.202 15.799C161.524 15.5965 162.016 15.242 162.338 14.6343C162.406 14.4993 162.541 14.2461 162.745 13.4021C163.067 12.0518 162.931 11.9505 163.117 11.5285C163.592 10.4651 164.965 10.1275 165.304 10.06C166.439 9.82364 167.659 10.1612 168.422 10.8702C169.015 11.3428 168.795 11.596 169.676 12.6763Z" fill="#000370"/>
<path d="M239.21 83.6329L210.355 83.0674L210.281 86.7971L239.136 87.3626L239.21 83.6329Z" fill="#F9D35A"/>
<path d="M239.143 87.1325C239.126 87.6895 238.33 88.1959 236.94 88.6179C234.567 89.3269 230.5 89.7657 225.823 89.7488C225.433 89.7488 225.06 89.7488 224.67 89.732C223.179 89.6982 221.721 89.6307 220.366 89.5125C218.264 89.3437 216.383 89.0737 214.824 88.7529C212.028 88.179 210.282 87.3857 210.299 86.5586C210.333 84.9719 216.824 83.8072 224.789 83.9591C229.907 84.0604 234.381 84.685 236.94 85.5289C236.957 85.5289 236.957 85.5289 236.974 85.5458C238.347 86.0184 239.16 86.5755 239.143 87.1325Z" fill="#F9D35A"/>
<path d="M236.94 88.6178C234.568 89.3267 230.5 89.7656 225.823 89.7487L225.891 86.3896C229.568 86.1027 233.246 85.8326 236.923 85.5457C236.94 85.5457 236.94 85.5457 236.957 85.5457V85.5625C236.94 86.5753 236.94 87.5881 236.94 88.6178Z" fill="#EAB50C"/>
<path d="M228.602 87.7569L228.585 88.6684C228.568 89.2254 228.11 89.6811 227.534 89.6643L220.365 89.5292C218.264 89.3604 216.383 89.0904 214.824 88.7696C214.654 88.6515 214.502 88.5502 214.349 88.432C214.366 88.1451 214.383 87.875 214.417 87.5881C214.434 87.453 214.519 86.9635 214.976 86.5753C215.518 86.1195 216.146 86.187 216.247 86.2039C220.026 86.3727 223.823 86.5415 227.602 86.7272C228.161 86.7272 228.602 87.1829 228.602 87.7569Z" fill="#D99B14"/>
<path d="M239.226 83.628C239.267 81.5681 232.837 79.7716 224.864 79.6154C216.892 79.4591 210.395 81.0023 210.354 83.0621C210.313 85.1219 216.743 86.9184 224.716 87.0747C232.689 87.2309 239.185 85.6878 239.226 83.628Z" fill="#FFFDB3"/>
<path d="M235.839 83.4694C235.839 83.7057 235.686 83.9251 235.432 84.1277C234.127 85.1405 229.924 85.8326 224.924 85.7313C220.162 85.63 216.129 84.8535 214.688 83.8576C214.315 83.6044 214.112 83.3175 214.112 83.0305C214.146 81.6633 219.027 80.6505 225.026 80.7686C231.009 80.9037 235.855 82.1021 235.839 83.4694Z" fill="#FCCC00"/>
<path d="M235.415 84.1447C234.11 85.1574 229.907 85.8495 224.907 85.7482C220.145 85.6469 216.112 84.8705 214.671 83.8746C215.722 82.8787 220.026 82.1866 225.162 82.2879C230.059 82.3892 234.178 83.1656 235.415 84.1447Z" fill="#F7E821"/>
<path d="M234.651 100.091L205.796 99.5251L205.722 103.255L234.577 103.82L234.651 100.091Z" fill="#F9D35A"/>
<path d="M234.584 103.59C234.567 104.147 233.771 104.653 232.381 105.075C230.009 105.784 225.941 106.223 221.264 106.206C220.874 106.206 220.501 106.206 220.111 106.189C218.62 106.156 217.163 106.088 215.807 105.97C213.705 105.801 211.824 105.531 210.265 105.21C207.469 104.637 205.723 103.843 205.74 103.016C205.774 101.429 212.265 100.265 220.23 100.417C225.348 100.518 229.822 101.142 232.381 101.986C232.398 101.986 232.398 101.986 232.415 102.003C233.788 102.476 234.601 103.033 234.584 103.59Z" fill="#F9D35A"/>
<path d="M232.381 105.076C230.008 105.784 225.941 106.223 221.264 106.206L221.331 102.847C225.009 102.56 228.687 102.29 232.364 102.003C232.381 102.003 232.381 102.003 232.398 102.003V102.02C232.381 103.033 232.381 104.046 232.381 105.076Z" fill="#EAB50C"/>
<path d="M224.026 104.215L224.009 105.126C223.992 105.683 223.535 106.139 222.958 106.122L215.79 105.987C213.688 105.818 211.807 105.548 210.248 105.227C210.078 105.109 209.926 105.008 209.773 104.89C209.79 104.603 209.807 104.333 209.841 104.046C209.858 103.911 209.943 103.421 210.4 103.033C210.943 102.577 211.57 102.645 211.672 102.662C215.451 102.83 219.247 102.999 223.026 103.185C223.585 103.185 224.043 103.641 224.026 104.215Z" fill="#D99B14"/>
<path d="M234.663 100.081C234.704 98.0208 228.274 96.2243 220.301 96.068C212.328 95.9118 205.832 97.4549 205.791 99.5147C205.75 101.575 212.18 103.371 220.152 103.527C228.125 103.684 234.622 102.14 234.663 100.081Z" fill="#FFFDB3"/>
<path d="M231.263 99.9272C231.263 100.163 231.11 100.383 230.856 100.585C229.551 101.598 225.348 102.29 220.349 102.189C215.587 102.088 211.553 101.311 210.113 100.315C209.74 100.062 209.536 99.7753 209.536 99.4883C209.57 98.121 214.451 97.1083 220.45 97.2264C226.45 97.3615 231.297 98.5599 231.263 99.9272Z" fill="#FCCC00"/>
<path d="M230.856 100.602C229.551 101.615 225.348 102.307 220.349 102.206C215.587 102.104 211.553 101.328 210.113 100.332C211.163 99.3362 215.468 98.6441 220.603 98.7454C225.501 98.8467 229.602 99.6232 230.856 100.602Z" fill="#F7E821"/>
<path d="M133.985 53.3006L105.129 52.7351L105.055 56.4648L133.911 57.0303L133.985 53.3006Z" fill="#F9D35A"/>
<path d="M133.918 56.7997C133.901 57.3568 133.104 57.8631 131.714 58.2851C129.342 58.9941 125.275 59.433 120.597 59.4161C120.207 59.4161 119.834 59.4161 119.445 59.3992C117.953 59.3654 116.496 59.2979 115.14 59.1798C113.039 59.011 111.157 58.7409 109.598 58.4202C106.802 57.8463 105.056 57.0529 105.073 56.2258C105.107 54.6391 111.598 53.4744 119.563 53.6264C124.681 53.7276 129.155 54.3522 131.714 55.1962C131.731 55.1962 131.731 55.1962 131.748 55.213C133.121 55.6857 133.935 56.2427 133.918 56.7997Z" fill="#F9D35A"/>
<path d="M131.714 58.2852C129.342 58.9942 125.274 59.433 120.597 59.4162L120.665 56.0571C124.342 55.7702 128.02 55.5001 131.697 55.2131C131.714 55.2131 131.714 55.2131 131.731 55.2131V55.23C131.714 56.2428 131.714 57.2556 131.714 58.2852Z" fill="#EAB50C"/>
<path d="M123.359 57.4243L123.342 58.3358C123.325 58.8929 122.868 59.3486 122.291 59.3317L115.123 59.1967C113.021 59.0279 111.14 58.7578 109.581 58.4371C109.411 58.319 109.259 58.2177 109.106 58.0995C109.123 57.8126 109.14 57.5425 109.174 57.2555C109.191 57.1205 109.276 56.631 109.733 56.2428C110.276 55.787 110.903 55.8545 111.005 55.8714C114.784 56.0402 118.58 56.209 122.359 56.3947C122.918 56.3947 123.376 56.8504 123.359 57.4243Z" fill="#D99B14"/>
<path d="M133.996 53.2898C134.037 51.23 127.607 49.4335 119.634 49.2773C111.661 49.121 105.165 50.6642 105.124 52.724C105.083 54.7838 111.513 56.5803 119.486 56.7365C127.459 56.8928 133.955 55.3497 133.996 53.2898Z" fill="#FFFDB3"/>
<path d="M130.596 53.1369C130.596 53.3732 130.443 53.5926 130.189 53.7952C128.884 54.808 124.681 55.5 119.682 55.3987C114.92 55.2975 110.886 54.521 109.446 53.5251C109.073 53.2719 108.869 52.985 108.869 52.698C108.903 51.3308 113.784 50.318 119.783 50.4361C125.783 50.5712 130.63 51.7696 130.596 53.1369Z" fill="#FCCC00"/>
<path d="M130.189 53.8119C128.884 54.8247 124.681 55.5168 119.682 55.4155C114.92 55.3142 110.886 54.5377 109.446 53.5418C110.496 52.5459 114.801 51.8539 119.936 51.9551C124.834 52.0564 128.935 52.8329 130.189 53.8119Z" fill="#F7E821"/>
<path d="M137.883 49.4183L109.027 48.8528L108.953 52.5824L137.809 53.148L137.883 49.4183Z" fill="#F9D35A"/>
<path d="M137.815 52.9174C137.798 53.4744 137.002 53.9808 135.612 54.4028C133.24 55.1118 129.172 55.5506 124.495 55.5338C124.105 55.5338 123.732 55.5338 123.342 55.5169C121.851 55.4831 120.394 55.4156 119.038 55.2974C116.936 55.1286 115.055 54.8586 113.496 54.5379C110.7 53.9639 108.954 53.1706 108.971 52.3435C109.005 50.7568 115.496 49.5921 123.461 49.744C128.579 49.8453 133.053 50.4699 135.612 51.3138C135.629 51.3138 135.629 51.3138 135.646 51.3307C137.019 51.8034 137.832 52.3604 137.815 52.9174Z" fill="#F9D35A"/>
<path d="M135.612 54.4029C133.239 55.1118 129.172 55.5507 124.495 55.5338L124.562 52.1748C128.24 51.8878 131.918 51.6178 135.595 51.3308C135.612 51.3308 135.612 51.3308 135.629 51.3308V51.3477C135.612 52.3605 135.612 53.3732 135.612 54.4029Z" fill="#EAB50C"/>
<path d="M127.257 53.542L127.24 54.4535C127.223 55.0105 126.766 55.4663 126.189 55.4494L119.021 55.3144C116.919 55.1456 115.038 54.8755 113.479 54.5548C113.309 54.4366 113.157 54.3354 113.004 54.2172C113.021 53.9302 113.038 53.6602 113.072 53.3732C113.089 53.2382 113.174 52.7487 113.631 52.3604C114.174 51.9047 114.801 51.9722 114.902 51.9891C118.682 52.1579 122.478 52.3267 126.257 52.5123C126.816 52.5123 127.274 52.9681 127.257 53.542Z" fill="#D99B14"/>
<path d="M137.894 49.4075C137.935 47.3477 131.505 45.5512 123.532 45.3949C115.559 45.2387 109.063 46.7818 109.022 48.8416C108.981 50.9015 115.411 52.698 123.384 52.8542C131.357 53.0105 137.853 51.4673 137.894 49.4075Z" fill="#FFFDB3"/>
<path d="M134.494 49.2546C134.494 49.4909 134.341 49.7103 134.087 49.9129C132.782 50.9256 128.579 51.6177 123.58 51.5164C118.818 51.4152 114.784 50.6387 113.344 49.6428C112.971 49.3896 112.767 49.1026 112.767 48.8157C112.801 47.4484 117.682 46.4356 123.681 46.5538C129.681 46.6888 134.528 47.8873 134.494 49.2546Z" fill="#FCCC00"/>
<path d="M134.087 49.9296C132.782 50.9423 128.579 51.6344 123.58 51.5331C118.817 51.4319 114.784 50.6554 113.344 49.6595C114.394 48.6636 118.699 47.9715 123.834 48.0728C128.732 48.1741 132.833 48.9506 134.087 49.9296Z" fill="#F7E821"/>
<path d="M134.764 46.11L105.909 45.5444L105.835 49.2741L134.69 49.8396L134.764 46.11Z" fill="#F9D35A"/>
<path d="M134.697 49.6091C134.68 50.1661 133.883 50.6725 132.494 51.0945C130.121 51.8034 126.054 52.2423 121.376 52.2254C120.987 52.2254 120.614 52.2254 120.224 52.2085C118.733 52.1748 117.275 52.1072 115.919 51.9891C113.818 51.8203 111.937 51.5502 110.378 51.2295C107.581 50.6556 105.836 49.8622 105.853 49.0351C105.887 47.4485 112.377 46.2838 120.343 46.4357C125.461 46.537 129.935 47.1615 132.494 48.0055C132.511 48.0055 132.511 48.0055 132.528 48.0224C133.9 48.495 134.714 49.052 134.697 49.6091Z" fill="#F9D35A"/>
<path d="M132.494 51.0945C130.121 51.8035 126.054 52.2424 121.376 52.2255L121.444 48.8664C125.122 48.5795 128.799 48.3094 132.477 48.0225C132.494 48.0225 132.494 48.0225 132.511 48.0225V48.0393C132.494 49.0521 132.494 50.0649 132.494 51.0945Z" fill="#EAB50C"/>
<path d="M124.139 50.2337L124.122 51.1452C124.105 51.7022 123.647 52.1579 123.071 52.1411L115.902 52.006C113.801 51.8372 111.92 51.5672 110.361 51.2464C110.191 51.1283 110.039 51.027 109.886 50.9088C109.903 50.6219 109.92 50.3518 109.954 50.0649C109.971 49.9298 110.055 49.4403 110.513 49.0521C111.055 48.5963 111.682 48.6638 111.784 48.6807C115.563 48.8495 119.36 49.0183 123.139 49.204C123.698 49.204 124.156 49.6598 124.139 50.2337Z" fill="#D99B14"/>
<path d="M134.776 46.0992C134.817 44.0393 128.387 42.2428 120.414 42.0866C112.441 41.9303 105.944 43.4735 105.903 45.5333C105.862 47.5931 112.292 49.3896 120.265 49.5459C128.238 49.7021 134.735 48.159 134.776 46.0992Z" fill="#FFFDB3"/>
<path d="M131.375 45.9462C131.375 46.1825 131.223 46.4019 130.969 46.6045C129.664 47.6173 125.461 48.3093 120.461 48.2081C115.699 48.1068 111.666 47.3303 110.225 46.3344C109.852 46.0812 109.649 45.7943 109.649 45.5073C109.683 44.1401 114.564 43.1273 120.563 43.2455C126.562 43.3805 131.409 44.5789 131.375 45.9462Z" fill="#FCCC00"/>
<path d="M130.969 46.6215C129.664 47.6343 125.461 48.3263 120.461 48.2251C115.699 48.1238 111.666 47.3473 110.225 46.3514C111.276 45.3555 115.58 44.6634 120.715 44.7647C125.613 44.866 129.714 45.6425 130.969 46.6215Z" fill="#F7E821"/>
<path d="M162.856 40.3903L139.227 56.8992L141.378 59.9532L165.007 43.4444L162.856 40.3903Z" fill="#F9D35A"/>
<path d="M164.88 43.2624C165.202 43.7182 164.846 44.5959 163.982 45.7606C162.491 47.7186 159.474 50.47 155.678 53.2214C155.373 53.4408 155.051 53.6603 154.729 53.8966C153.508 54.7575 152.288 55.5508 151.136 56.2597C149.339 57.3569 147.662 58.2515 146.221 58.9098C143.611 60.0914 141.747 60.4796 141.273 59.8045C140.357 58.5047 144.899 53.7447 151.424 49.1872C155.61 46.267 159.593 44.1233 162.152 43.3131C162.169 43.3131 162.169 43.3131 162.186 43.2962C163.575 42.8404 164.541 42.8067 164.88 43.2624Z" fill="#F9D35A"/>
<path d="M163.982 45.7606C162.491 47.7186 159.474 50.47 155.678 53.2214L153.746 50.47C156.542 48.0731 159.355 45.6931 162.152 43.2962L162.169 43.2793V43.2962C162.762 44.1064 163.372 44.9335 163.982 45.7606Z" fill="#EAB50C"/>
<path d="M156.729 49.9635L157.254 50.7063C157.576 51.162 157.457 51.8034 157 52.1241L151.119 56.2259C149.323 57.3231 147.645 58.2177 146.204 58.876C146.001 58.8929 145.798 58.8929 145.628 58.876C145.476 58.6397 145.323 58.4034 145.171 58.1671C145.103 58.0489 144.883 57.5931 145.018 57.0192C145.188 56.3441 145.73 56.0233 145.815 55.9727C148.967 53.8796 152.136 51.8034 155.288 49.7104C155.763 49.3896 156.407 49.5078 156.729 49.9635Z" fill="#D99B14"/>
<path d="M153.191 51.6997C159.719 47.1382 164.049 42.0731 162.861 40.3864C161.673 38.6996 155.417 41.0301 148.889 45.5916C142.36 50.153 138.03 55.2182 139.218 56.9049C140.406 58.5916 146.662 56.2612 153.191 51.6997Z" fill="#FFFDB3"/>
<path d="M160.033 42.2666C160.169 42.4522 160.186 42.7223 160.084 43.043C159.643 44.6297 156.644 47.668 152.56 50.5207C148.662 53.2383 144.95 54.9769 143.188 55.0276C142.73 55.0444 142.391 54.9432 142.239 54.7068C141.442 53.5759 144.798 49.8962 149.695 46.4527C154.61 43.0093 159.237 41.1356 160.033 42.2666Z" fill="#FCCC00"/>
<path d="M160.084 43.0428C159.644 44.6295 156.644 47.6678 152.56 50.5205C148.662 53.2381 144.95 54.9767 143.188 55.0273C143.442 53.5926 146.509 50.5205 150.712 47.5834C154.729 44.7814 158.508 42.9922 160.084 43.0428Z" fill="#F7E821"/>
<path d="M234.67 67.051L205.846 68.499L206.036 72.2245L234.86 70.7765L234.67 67.051Z" fill="#F9D35A"/>
<path d="M234.855 70.5566C234.889 71.1136 234.11 71.6707 232.754 72.1939C230.432 73.0717 226.416 73.7975 221.738 74.1013C221.348 74.1351 220.975 74.152 220.586 74.1688C219.094 74.2364 217.637 74.2701 216.281 74.2532C214.18 74.2195 212.281 74.1013 210.705 73.8819C207.875 73.4937 206.079 72.8353 206.028 72.0082C205.943 70.4216 212.332 68.8011 220.298 68.396C225.399 68.1428 229.924 68.4466 232.517 69.1218C232.533 69.1218 232.533 69.1218 232.55 69.1387C233.974 69.4932 234.821 69.9827 234.855 70.5566Z" fill="#F9D35A"/>
<path d="M232.754 72.1771C230.432 73.0548 226.416 73.7806 221.738 74.0845L221.569 70.7254C225.213 70.1853 228.873 69.6451 232.517 69.105C232.534 69.105 232.534 69.105 232.551 69.105V69.1219C232.618 70.1515 232.686 71.1643 232.754 72.1771Z" fill="#EAB50C"/>
<path d="M224.365 71.907L224.416 72.8185C224.45 73.3755 224.009 73.865 223.45 73.8819L216.281 74.2364C214.18 74.2026 212.282 74.0845 210.706 73.865C210.519 73.7638 210.367 73.6625 210.214 73.5612C210.214 73.2742 210.214 73.0042 210.214 72.7172C210.231 72.5822 210.282 72.0758 210.689 71.6707C211.197 71.1812 211.824 71.198 211.926 71.198C215.705 71.1136 219.501 71.0124 223.28 70.928C223.857 70.9111 224.348 71.35 224.365 71.907Z" fill="#D99B14"/>
<path d="M220.45 71.4981C228.414 71.098 234.785 69.1056 234.68 67.0481C234.575 64.9905 228.034 63.6469 220.07 64.047C212.105 64.4471 205.734 66.4395 205.839 68.497C205.944 70.5546 212.485 71.8982 220.45 71.4981Z" fill="#FFFDB3"/>
<path d="M231.297 67.13C231.314 67.3663 231.178 67.5858 230.924 67.8221C229.704 68.9361 225.535 69.9152 220.569 70.1684C215.824 70.4047 211.739 69.9152 210.214 69.0205C209.824 68.7842 209.587 68.531 209.587 68.2441C209.519 66.8768 214.315 65.5096 220.315 65.2226C226.297 64.9019 231.212 65.7628 231.297 67.13Z" fill="#FCCC00"/>
<path d="M230.924 67.8223C229.704 68.9363 225.534 69.9154 220.569 70.1685C215.824 70.4049 211.739 69.9153 210.214 69.0207C211.197 67.9404 215.434 66.9614 220.569 66.7082C225.45 66.455 229.602 66.9445 230.924 67.8223Z" fill="#F7E821"/>
<path d="M223.127 45.514L198.193 59.9934L200.08 63.2161L225.013 48.7367L223.127 45.514Z" fill="#F9D35A"/>
<path d="M224.891 48.5286C225.179 49.0181 224.755 49.8621 223.789 50.9424C222.128 52.7823 218.891 55.2636 214.892 57.6774C214.57 57.88 214.231 58.0656 213.892 58.2682C212.604 59.0278 211.316 59.703 210.113 60.3106C208.231 61.2559 206.486 61.9986 204.977 62.5387C202.283 63.5009 200.385 63.7372 199.961 63.0114C199.148 61.6272 204.079 57.2723 210.977 53.2718C215.4 50.7061 219.552 48.9169 222.162 48.3092C222.179 48.3092 222.179 48.3092 222.196 48.3092C223.636 48.0054 224.602 48.0391 224.891 48.5286Z" fill="#F9D35A"/>
<path d="M223.789 50.9425C222.128 52.7824 218.891 55.2637 214.892 57.6775L213.197 54.7742C216.196 52.6305 219.179 50.4699 222.179 48.3262C222.196 48.3262 222.196 48.3093 222.213 48.3093V48.3262C222.721 49.1871 223.247 50.0648 223.789 50.9425Z" fill="#EAB50C"/>
<path d="M216.214 54.538L216.671 55.3145C216.959 55.804 216.79 56.4285 216.298 56.7155L210.096 60.3109C208.215 61.2561 206.469 61.9988 204.961 62.539C204.757 62.539 204.571 62.5221 204.385 62.4883C204.249 62.2351 204.13 61.9819 203.995 61.7456C203.944 61.6275 203.757 61.1548 203.944 60.5978C204.164 59.9395 204.74 59.6526 204.825 59.6188C208.147 57.7958 211.469 55.9897 214.79 54.1667C215.299 53.8797 215.926 54.0485 216.214 54.538Z" fill="#D99B14"/>
<path d="M212.548 55.9751C219.437 51.9744 224.177 47.2884 223.135 45.5085C222.093 43.7287 215.664 45.529 208.775 49.5297C201.886 53.5305 197.145 58.2165 198.187 59.9964C199.229 61.7762 205.659 59.9759 212.548 55.9751Z" fill="#FFFDB3"/>
<path d="M220.145 47.1277C220.264 47.3302 220.264 47.6003 220.145 47.9041C219.569 49.4571 216.332 52.2253 212.027 54.7235C207.909 57.1036 204.062 58.5383 202.3 58.437C201.842 58.4033 201.52 58.2851 201.385 58.0319C200.69 56.8504 204.333 53.4407 209.519 50.4361C214.688 47.4146 219.45 45.9461 220.145 47.1277Z" fill="#FCCC00"/>
<path d="M220.145 47.9042C219.569 49.4571 216.332 52.2254 212.028 54.7236C207.909 57.1036 204.062 58.5383 202.3 58.4371C202.673 57.0361 205.994 54.2172 210.418 51.6515C214.654 49.187 218.569 47.7185 220.145 47.9042Z" fill="#F7E821"/>
<path d="M199.74 32.3796L186.929 58.1389L190.285 59.7948L203.096 34.0355L199.74 32.3796Z" fill="#F9D35A"/>
<path d="M202.893 33.928C203.401 34.1812 203.52 35.1264 203.3 36.5443C202.927 38.975 201.605 42.8404 199.588 47.0435C199.419 47.381 199.249 47.7355 199.08 48.0731C198.419 49.4066 197.724 50.6895 197.046 51.8542C195.995 53.6603 194.962 55.2638 193.996 56.5298C192.267 58.8086 190.826 60.0408 190.081 59.6694C188.64 58.9605 190.352 52.6306 193.894 45.5074C196.165 40.933 198.639 37.1689 200.503 35.2277L200.52 35.2108C201.554 34.1812 202.385 33.6748 202.893 33.928Z" fill="#F9D35A"/>
<path d="M203.3 36.5442C202.927 38.9748 201.605 42.8403 199.588 47.0433L196.555 45.5579C197.86 42.1313 199.182 38.6879 200.486 35.2613C200.486 35.2444 200.486 35.2444 200.503 35.2275H200.52C201.452 35.6833 202.368 36.1053 203.3 36.5442Z" fill="#EAB50C"/>
<path d="M198.961 43.7012L199.775 44.1063C200.283 44.3595 200.486 44.9672 200.232 45.4736L197.046 51.871C195.995 53.6771 194.962 55.2807 193.996 56.5466C193.826 56.6479 193.657 56.7492 193.487 56.8167C193.233 56.6817 192.996 56.5466 192.742 56.3947C192.623 56.3272 192.216 56.0234 192.064 55.4663C191.877 54.7911 192.199 54.251 192.267 54.1666C194.03 50.8244 195.809 47.4991 197.572 44.157C197.826 43.6675 198.453 43.448 198.961 43.7012Z" fill="#D99B14"/>
<path d="M196.688 46.9061C200.228 39.7886 201.595 33.2774 199.741 32.3629C197.888 31.4484 193.516 36.4768 189.976 43.5942C186.436 50.7116 185.069 57.2228 186.922 58.1374C188.776 59.0519 193.148 54.0235 196.688 46.9061Z" fill="#FFFDB3"/>
<path d="M198.165 35.3627C198.368 35.464 198.521 35.6834 198.588 36.021C198.961 37.6246 197.792 41.7263 195.572 46.1657C193.453 50.4193 191.03 53.7109 189.505 54.5886C189.098 54.8249 188.759 54.8924 188.505 54.7574C187.268 54.1497 188.437 49.3053 191.098 43.9544C193.758 38.6036 196.928 34.755 198.165 35.3627Z" fill="#FCCC00"/>
<path d="M198.588 36.021C198.961 37.6246 197.792 41.7263 195.572 46.1657C193.453 50.4193 191.03 53.7109 189.505 54.5886C189.047 53.2214 190.267 49.0521 192.538 44.4608C194.708 40.1059 197.165 36.7299 198.588 36.021Z" fill="#F7E821"/>
<path d="M179.363 27.5709L174.525 55.9116L178.218 56.5368L183.055 28.1961L179.363 27.5709Z" fill="#F9D35A"/>
<path d="M182.827 28.155C183.387 28.2562 183.759 29.1171 183.963 30.5519C184.319 32.9994 184.149 37.0674 183.437 41.6755C183.386 42.0469 183.319 42.4351 183.251 42.8065C182.997 44.275 182.709 45.6929 182.404 47.0095C181.929 49.052 181.387 50.875 180.827 52.3604C179.845 55.0273 178.794 56.6309 177.98 56.4959C176.404 56.2258 176.201 49.6765 177.54 41.8443C178.404 36.8142 179.675 32.493 180.895 30.113C180.895 30.0961 180.912 30.0961 180.912 30.0792C181.607 28.7795 182.268 28.0706 182.827 28.155Z" fill="#F9D35A"/>
<path d="M183.98 30.5519C184.335 32.9995 184.166 37.0675 183.454 41.6756L180.133 41.1186C180.404 37.4557 180.658 33.7928 180.929 30.13C180.929 30.1131 180.929 30.1131 180.929 30.0962H180.946C181.946 30.2481 182.963 30.4 183.98 30.5519Z" fill="#EAB50C"/>
<path d="M181.878 38.6541L182.776 38.806C183.336 38.9073 183.709 39.4306 183.607 39.9876L182.404 47.0264C181.929 49.0689 181.387 50.8919 180.828 52.3773C180.692 52.5292 180.556 52.6642 180.421 52.7824C180.15 52.7149 179.862 52.6642 179.59 52.5967C179.455 52.563 178.98 52.3942 178.675 51.9046C178.302 51.3139 178.455 50.6893 178.489 50.588C179.218 46.8914 179.946 43.1779 180.692 39.4812C180.794 38.9242 181.319 38.5528 181.878 38.6541Z" fill="#D99B14"/>
<path d="M180.648 42.3587C181.99 34.5288 181.423 27.9024 179.384 27.5583C177.344 27.2142 174.604 33.2827 173.263 41.1125C171.921 48.9424 172.488 55.5687 174.527 55.9129C176.567 56.257 179.307 50.1886 180.648 42.3587Z" fill="#FFFDB3"/>
<path d="M178.709 30.8893C178.946 30.9231 179.133 31.1088 179.302 31.3957C180.116 32.8305 180.184 37.0842 179.336 41.9793C178.54 46.6549 177.167 50.5035 175.964 51.7864C175.642 52.1239 175.337 52.2759 175.065 52.2252C173.71 51.9889 173.422 47.0263 174.421 41.1353C175.438 35.2443 177.353 30.653 178.709 30.8893Z" fill="#FCCC00"/>
<path d="M179.302 31.3958C180.116 32.8305 180.183 37.0842 179.336 41.9793C178.54 46.655 177.167 50.5035 175.964 51.7864C175.133 50.6048 175.082 46.2667 175.947 41.2197C176.777 36.409 178.15 32.476 179.302 31.3958Z" fill="#F7E821"/>
<path d="M294.188 167.631C293.459 167.935 292.629 167.581 292.324 166.855L291.747 165.471C291.442 164.745 291.798 163.918 292.527 163.614C293.256 163.31 294.086 163.665 294.391 164.391L294.967 165.775C295.256 166.501 294.917 167.328 294.188 167.631Z" fill="#FFB584"/>
<path d="M295.052 166.028C294.781 165.555 294.713 165.538 294.544 165.167C294.442 164.931 294.374 164.728 294.307 164.728C294.222 164.728 294.239 164.998 294.069 165.319C293.9 165.656 293.629 165.825 293.527 165.876C293.307 166.011 293.086 166.045 292.663 166.112C292.188 166.18 292.019 166.129 291.968 166.095C291.747 166.011 291.612 165.842 291.527 165.741L290.815 166.348L289.409 167.614L287.731 168.762L286.951 169.201C286.85 169.286 286.68 169.421 286.477 169.573C286.07 169.843 285.901 169.893 285.731 170.113C285.697 170.163 285.392 170.552 285.511 170.805C285.63 171.024 286.053 171.024 286.223 171.024C287.443 170.99 289.222 169.961 290.307 169.421C292.561 168.307 293.696 167.733 294.679 167.665C294.866 167.648 295.425 167.614 295.544 167.294C295.628 167.057 295.442 166.703 295.052 166.028Z" fill="#FF6C5F"/>
<path d="M295.985 167.716L285.867 171.682L285.579 170.956C288.884 169.657 292.189 168.357 295.51 167.057C295.578 167.024 295.646 167.007 295.697 166.973C295.781 167.226 295.883 167.462 295.985 167.716Z" fill="#3C4F77"/>
<path d="M290.07 135.712C289.155 137.518 287.917 140.033 286.663 142.92C285.375 145.89 286.053 144.692 284.681 148.574C284.647 148.676 284.528 149.03 284.477 149.486C284.409 150.127 284.511 150.617 284.545 150.735C284.596 150.971 284.714 151.326 284.935 151.697L291.358 166.062L294.832 164.812L290.46 152.153L289.358 150.06L292.239 147.359L295.815 143.342L298.272 141.029L291.307 133.619L290.07 135.712Z" fill="#004F90"/>
<path d="M296.205 169.438C295.442 169.438 294.832 168.83 294.832 168.07V166.45C294.832 165.69 295.442 165.083 296.205 165.083C296.967 165.083 297.578 165.69 297.578 166.45V168.07C297.578 168.83 296.967 169.438 296.205 169.438Z" fill="#FFB584"/>
<path d="M298.001 168.745C297.916 168.205 297.849 168.172 297.832 167.766C297.815 167.496 297.832 167.294 297.764 167.277C297.679 167.243 297.611 167.513 297.34 167.75C297.069 168.003 296.747 168.07 296.645 168.087C296.391 168.138 296.171 168.104 295.747 168.003C295.273 167.901 295.137 167.8 295.103 167.75C294.934 167.598 294.849 167.395 294.815 167.26L293.934 167.581L292.171 168.29L290.189 168.796L289.307 168.948C289.172 168.999 288.985 169.066 288.731 169.134C288.257 169.252 288.07 169.235 287.85 169.387C287.799 169.421 287.375 169.674 287.409 169.961C287.443 170.214 287.833 170.349 288.002 170.4C289.155 170.788 291.188 170.433 292.375 170.298C294.883 170.028 296.137 169.876 297.086 170.146C297.256 170.197 297.798 170.366 298.035 170.096C298.205 169.893 298.137 169.522 298.001 168.745Z" fill="#FF907F"/>
<path d="M298.306 170.636L287.426 170.889L287.409 170.096C290.968 170.011 294.527 169.927 298.069 169.843C298.137 169.843 298.205 169.843 298.272 169.843C298.289 170.113 298.289 170.383 298.306 170.636Z" fill="#3C4F77"/>
<path d="M292.866 133.636C292.612 135.999 292.561 138.058 292.578 139.746C292.595 142.261 292.866 142.683 292.985 145.907C293.019 146.92 293.019 147.629 293.222 148.659C293.358 149.401 293.51 149.857 293.629 150.836C293.714 151.511 293.731 151.95 293.748 152.541C293.832 154.702 293.832 154.702 293.985 156.643C294.086 157.909 293.951 157.436 294.036 159.985C294.103 161.791 294.205 163.395 294.324 165.201C294.375 165.893 294.408 166.467 294.442 166.838L298.154 167.243C297.883 160.171 298.086 157.504 298.357 156.474C298.374 156.389 298.645 155.41 298.713 154.144C298.747 153.621 298.747 153.064 298.645 152.44C298.577 152.035 298.493 151.68 298.408 151.444L300.001 139.645L299.357 135.189L292.866 133.636Z" fill="#005DB5"/>
<path d="M296.289 136.067C295.629 136.067 294.985 136.067 294.324 136.067C293.544 136.067 292.764 136.067 291.985 136.067C291.985 129.484 291.985 122.9 291.985 116.301H296.289V136.067Z" fill="#A5D5FA"/>
<path d="M293.815 129.247C293.459 130.294 293.12 131.34 292.764 132.387C293.069 127.627 293.358 122.883 293.663 118.123C293.866 118.14 294.086 118.157 294.29 118.174C294.137 121.887 293.968 125.567 293.815 129.247Z" fill="#FF4B72"/>
<path d="M292.036 130.074C292.273 130.851 292.527 131.627 292.765 132.387C293.07 127.627 293.358 122.883 293.663 118.123C293.46 118.107 293.239 118.09 293.036 118.073C292.697 122.073 292.358 126.074 292.036 130.074Z" fill="#FF4B72"/>
<path d="M294.137 118.292H293.307C293.019 118.292 292.781 118.056 292.781 117.769C292.781 117.482 293.019 117.246 293.307 117.246H294.137C294.425 117.246 294.663 117.482 294.663 117.769C294.68 118.056 294.442 118.292 294.137 118.292Z" fill="#FF4B72"/>
<path d="M292.036 118.292C292.595 117.938 293.171 117.583 293.73 117.229C293.849 116.672 293.968 116.115 294.086 115.574C293.663 115.642 293.239 115.726 292.832 115.794C292.561 116.638 292.29 117.465 292.036 118.292Z" fill="white"/>
<path d="M297.899 114.646C297.849 115.845 298.577 116.182 298.374 116.722C298.018 117.718 294.951 118.005 294.12 116.857C293.934 116.587 294.018 116.486 293.578 115.389C293.391 114.933 293.256 114.748 292.849 114.005C292.425 113.245 298.34 111.642 298.442 112.03C298.459 112.047 297.916 114.359 297.899 114.646Z" fill="#D88D65"/>
<path d="M293.73 117.246C294.154 117.837 294.578 118.444 294.985 119.035L298.459 116.655L297.696 115.541C296.374 116.098 295.052 116.672 293.73 117.246Z" fill="white"/>
<path d="M295.815 118.968C295.866 118.748 295.9 118.546 295.95 118.36C296.035 117.989 296.171 117.381 296.238 117.212C296.544 116.267 298.12 115.828 298.204 115.794C299.848 115.355 302.17 116.182 302.78 117.668C303.441 119.271 301.577 120.284 300.357 124.538C300.018 125.736 299.492 127.576 299.543 129.973C299.594 132.64 300.357 135.915 300.594 136.978C301.102 139.156 301.492 140.219 300.882 140.827C300.052 141.688 297.984 141.063 297.747 140.979C297.001 140.742 296.391 140.354 296.018 140.033C294.849 139.038 295.12 137.586 295.069 132.826C295.035 130.142 294.967 129.939 294.984 127.745C295.001 126.209 295.018 125.061 295.154 123.458C295.188 123.255 295.374 121.111 295.815 118.968Z" fill="#0047C0"/>
<path d="M293.103 115.608C292.849 115.305 292.002 115.592 291.493 115.828C290.832 116.115 290.171 116.52 289.951 116.655C290.002 118.799 290.036 123.576 289.578 128.285C289.392 130.26 289.29 131.256 289.104 132.218C288.561 135.138 287.697 136.202 288.24 137.349C288.545 137.974 289.324 138.767 291.612 139.105C291.934 132.404 292.256 125.719 292.578 119.018C292.561 118.056 292.73 117.313 292.883 116.79C293.069 116.182 293.273 115.811 293.103 115.608Z" fill="#0039B3"/>
<path d="M296.561 116.655C297.035 117.803 297.527 118.967 298.001 120.115L296.51 120.925L297.544 122.715L294.985 130.277C294.934 127.492 295.035 125.196 295.154 123.474C295.273 121.82 295.408 120.571 295.781 119.069C296.052 118.073 296.34 117.246 296.561 116.655Z" fill="#001EB2"/>
<path d="M292.459 121.499C292.459 121.499 292.459 121.516 292.121 128.184V128.201C292.053 128.217 291.273 123.643 290.917 121.567C291.324 120.841 291.561 120.149 291.714 119.508L291.985 119.221L291.799 119.052C291.9 118.343 291.849 117.701 291.731 117.178C292.205 116.739 292.68 116.3 293.137 115.845C292.476 118.242 292.392 120.166 292.459 121.499Z" fill="#022299"/>
<path d="M292.781 110.241C292.443 111.473 292.07 114.157 293.375 114.95C294.781 115.811 297.933 114.342 298.645 111.895C299.374 109.397 297.374 106.443 295.713 106.46C294.205 106.476 293.137 108.975 292.781 110.241Z" fill="#FBB486"/>
<path d="M293.595 106.78C293.73 106.611 293.985 106.375 295.086 106.037C297.272 105.362 297.188 105.548 297.493 105.615C298.984 105.919 299.713 107.523 299.814 107.759C300.289 108.806 300.17 109.734 300.136 109.92C299.865 111.827 298.204 112.806 297.984 112.941C298.526 112.249 298.51 111.473 298.154 111.169C297.933 110.983 297.527 110.949 297.222 111.084C296.73 111.287 296.679 111.81 296.459 111.777C296.222 111.76 295.967 111.203 296.018 110.646C296.103 109.785 296.883 109.565 296.832 108.907C296.798 108.434 296.357 107.979 295.984 107.979C295.578 107.979 295.527 108.468 294.934 108.721C294.442 108.924 293.68 108.924 293.341 108.485C292.951 107.995 293.256 107.202 293.595 106.78Z" fill="#00436B"/>
<path d="M292.154 111.996C291.748 112.874 292.019 113.734 292.154 114.038C292.256 114.241 292.392 114.393 292.392 114.393C292.392 114.393 292.544 114.578 292.781 114.73C293.069 114.933 294.086 115.152 295.442 115.152C295.493 115.136 295.578 115.085 295.628 115.017C295.747 114.882 295.747 114.714 295.747 114.663C295.747 114.562 295.747 114.781 296.323 112.671C296.391 112.418 296.476 112.08 296.594 111.692C296.476 111.658 296.34 111.641 296.222 111.608C295.391 112.3 295.086 112.604 295.001 112.739C294.984 112.755 294.934 112.857 294.815 112.924C294.781 112.941 294.629 113.042 294.493 112.992C294.374 112.941 294.324 112.772 294.307 112.671C294.307 112.671 294.154 112.08 293.713 111.608C293.646 111.54 293.273 111.118 292.849 111.203C292.493 111.27 292.307 111.692 292.154 111.996Z" fill="#00436B"/>
<path d="M292.748 113.515C292.578 113.481 292.476 113.346 292.442 113.296C292.256 113.059 292.205 112.654 292.392 112.536C292.51 112.452 292.697 112.502 292.748 112.519C292.934 112.57 292.951 112.671 293.086 112.722C293.392 112.84 293.697 112.502 293.781 112.587C293.849 112.654 293.697 112.958 293.493 113.161C293.358 113.296 293.07 113.6 292.748 113.515Z" fill="#FBB486"/>
<path d="M305.339 101.919C305.356 101.531 305.373 101.126 305.39 100.737C305.424 100.704 305.492 100.619 305.611 100.602C305.763 100.585 305.882 100.72 305.95 100.805C306.187 101.075 306.17 101.446 306.153 101.581C306.085 101.564 305.983 101.531 305.882 101.548C305.543 101.581 305.356 101.868 305.339 101.919Z" fill="#CE8865"/>
<path d="M305.814 102.729C305.865 102.712 305.797 102.527 305.899 102.341C306.017 102.121 306.272 102.037 306.475 102.003C306.475 101.97 306.407 101.699 306.153 101.581C305.933 101.497 305.746 101.581 305.678 101.615C305.475 101.699 305.373 101.868 305.339 101.936C305.661 102.611 305.763 102.746 305.814 102.729Z" fill="#DD966C"/>
<path d="M306.56 103.809C306.441 103.742 306.238 103.607 306.068 103.354C305.899 103.1 305.831 102.864 305.797 102.729C305.797 102.662 305.797 102.493 305.882 102.341C306.051 102.037 306.424 102.003 306.458 102.003C306.39 101.936 306.068 101.581 306.119 101.092C306.119 101.024 306.17 100.602 306.407 100.535C306.678 100.45 307.034 100.889 307.204 101.21C307.373 101.564 307.373 101.885 307.356 102.054C307.729 102.425 307.797 102.999 307.543 103.387C307.339 103.674 306.95 103.843 306.56 103.809Z" fill="#DD966C"/>
<path d="M306.255 102.054C306.102 102.071 305.983 101.885 305.933 101.818C305.899 101.767 305.865 101.716 305.848 101.649C305.814 101.514 305.865 101.396 305.899 101.311C306.051 100.957 306.356 100.45 306.39 100.4C306.204 100.703 306.187 100.94 306.204 101.092C306.255 101.48 306.56 101.699 306.458 101.919C306.407 101.986 306.322 102.037 306.255 102.054Z" fill="#FBB486"/>
<path d="M306.763 101.784C306.746 101.801 306.695 101.919 306.577 101.936C306.509 101.953 306.458 101.919 306.441 101.919C306.187 101.801 306.187 101.143 306.187 101.092C306.187 100.754 306.187 100.501 306.373 100.4C306.526 100.299 306.746 100.383 306.814 100.417C306.577 100.45 306.475 100.552 306.441 100.602C306.255 100.839 306.339 101.345 306.763 101.784Z" fill="#FBB486"/>
<path d="M308.39 100.653C308.119 100.535 307.932 100.619 307.577 100.585C307.407 100.568 307.136 100.535 306.831 100.4C306.746 100.4 306.627 100.417 306.543 100.501C306.373 100.653 306.441 100.923 306.492 101.193C306.577 101.581 306.729 101.733 306.763 101.767C306.814 101.818 306.916 101.919 307 101.885C307.136 101.834 307.068 101.362 307.068 101.328C307.136 101.311 307.187 101.311 307.255 101.294C307.255 101.446 307.238 101.615 307.187 101.784C307.119 102.037 307.034 102.138 306.916 102.51C306.78 102.898 306.814 102.965 306.831 102.999C306.949 103.202 307.356 103.1 307.39 103.235C307.424 103.354 307.187 103.556 306.966 103.657C306.729 103.776 306.577 103.742 306.56 103.809C306.526 103.944 306.983 104.282 307.509 104.333C307.593 104.333 308.17 104.383 308.407 104.063C308.492 103.944 308.458 103.877 308.576 103.387C308.661 103.016 308.695 103.05 308.729 102.83C308.814 102.375 308.695 102.324 308.746 101.801C308.797 101.345 308.898 101.21 308.797 101.007C308.695 100.788 308.475 100.687 308.39 100.653Z" fill="#FBB486"/>
<path d="M298.374 116.705C298.628 116.452 299.408 115.997 300.289 115.726C300.764 115.575 301.187 115.524 301.492 115.49C301.492 115.49 301.763 115.406 302.018 115.304C302.34 115.169 304.085 114.258 305.187 111.287C305.78 109.684 305.916 108.198 305.983 107.287C306.17 105.227 305.916 104.181 306.593 103.759C307.153 103.404 308.187 103.556 308.61 103.995C308.712 104.113 308.797 104.248 308.797 104.248C308.915 104.451 308.966 104.653 308.983 104.822C309.017 105.042 308.983 105.21 308.983 105.244C308.932 105.632 308.814 108.114 308.644 111.658C308.61 112.84 308.424 114.325 307.814 115.946C306.017 120.672 301.95 122.9 300.628 123.559C298.255 120.52 297.493 117.583 298.374 116.705Z" fill="#0039B3"/>
<path d="M284.138 101.109C284.121 100.72 284.104 100.315 284.087 99.927C284.053 99.8932 283.986 99.8089 283.867 99.792C283.714 99.7751 283.596 99.9101 283.528 99.9945C283.291 100.265 283.308 100.636 283.325 100.771C283.392 100.754 283.494 100.72 283.596 100.737C283.935 100.771 284.121 101.058 284.138 101.109Z" fill="#CE8865"/>
<path d="M283.664 101.919C283.613 101.902 283.681 101.716 283.579 101.531C283.46 101.311 283.206 101.227 283.003 101.193C283.003 101.159 283.07 100.889 283.325 100.771C283.545 100.687 283.731 100.771 283.799 100.805C284.003 100.889 284.104 101.058 284.138 101.125C283.816 101.801 283.714 101.936 283.664 101.919Z" fill="#DD966C"/>
<path d="M282.918 102.999C283.037 102.932 283.24 102.797 283.409 102.543C283.579 102.29 283.647 102.054 283.681 101.919C283.681 101.851 283.681 101.682 283.596 101.531C283.426 101.227 283.054 101.193 283.02 101.193C283.087 101.125 283.409 100.771 283.359 100.281C283.359 100.214 283.308 99.792 283.071 99.7244C282.799 99.64 282.443 100.079 282.274 100.4C282.105 100.754 282.104 101.075 282.121 101.244C281.749 101.615 281.681 102.189 281.935 102.577C282.138 102.864 282.528 103.033 282.918 102.999Z" fill="#DD966C"/>
<path d="M283.223 101.244C283.375 101.261 283.494 101.075 283.545 101.007C283.579 100.957 283.613 100.906 283.63 100.839C283.664 100.704 283.613 100.585 283.579 100.501C283.426 100.147 283.121 99.6402 283.087 99.5896C283.274 99.8934 283.291 100.13 283.274 100.282C283.223 100.67 282.918 100.889 283.02 101.109C283.07 101.176 283.155 101.227 283.223 101.244Z" fill="#FBB486"/>
<path d="M282.715 100.974C282.732 100.991 282.782 101.109 282.901 101.126C282.969 101.142 283.02 101.109 283.037 101.109C283.291 100.991 283.291 100.332 283.291 100.282C283.291 99.944 283.291 99.6908 283.104 99.5895C282.952 99.4882 282.732 99.5726 282.664 99.6064C282.901 99.6401 283.003 99.7414 283.037 99.7921C283.223 100.028 283.138 100.535 282.715 100.974Z" fill="#FBB486"/>
<path d="M281.089 99.845C281.36 99.7268 281.547 99.8112 281.903 99.7775C282.072 99.7606 282.343 99.7268 282.648 99.5918C282.733 99.5918 282.852 99.6087 282.936 99.6931C283.106 99.845 283.038 100.115 282.987 100.385C282.903 100.773 282.75 100.925 282.716 100.959C282.665 101.01 282.564 101.111 282.479 101.077C282.343 101.027 282.411 100.554 282.411 100.52C282.343 100.503 282.292 100.503 282.225 100.486C282.225 100.638 282.242 100.807 282.292 100.976C282.36 101.229 282.445 101.33 282.564 101.702C282.699 102.09 282.665 102.158 282.648 102.191C282.53 102.394 282.123 102.293 282.089 102.428C282.055 102.546 282.292 102.748 282.513 102.85C282.75 102.968 282.903 102.934 282.919 103.002C282.953 103.137 282.496 103.474 281.97 103.525C281.886 103.525 281.309 103.575 281.072 103.255C280.987 103.137 281.021 103.069 280.903 102.58C280.818 102.208 280.784 102.242 280.75 102.022C280.665 101.567 280.784 101.516 280.733 100.993C280.682 100.537 280.581 100.402 280.682 100.199C280.784 99.98 281.004 99.8788 281.089 99.845Z" fill="#FBB486"/>
<path d="M291.798 119.052L290.765 118.089C291.087 117.786 291.409 117.482 291.731 117.178C291.849 117.701 291.883 118.343 291.798 119.052Z" fill="#022299"/>
<path d="M291.714 119.508C291.578 120.149 291.324 120.858 290.917 121.567C290.815 120.959 290.748 120.554 290.748 120.554L291.714 119.508Z" fill="#022299"/>
<path d="M291.714 119.508L290.748 120.554C290.748 120.554 290.815 120.959 290.917 121.567C290.697 121.955 290.443 122.343 290.138 122.749C288.816 122.09 283.46 119.862 281.664 115.136C281.054 113.515 280.867 112.03 280.834 110.848C280.664 107.304 280.545 104.822 280.495 104.434C280.495 104.383 280.478 104.232 280.495 104.012C280.512 103.826 280.562 103.624 280.681 103.438C280.681 103.438 280.766 103.303 280.867 103.185C281.291 102.746 282.325 102.611 282.884 102.949C283.562 103.371 284.003 107.236 284.494 109.245C284.816 110.528 285.511 112.182 286.528 113.566C288.561 116.334 291.798 115.575 292.154 115.524C294.171 115.22 291.578 116.604 291.714 117.178C291.392 117.482 291.07 117.786 290.748 118.09L291.781 119.052C291.781 119.204 291.748 119.356 291.714 119.508Z" fill="#0039B3"/>
</g>
<defs>
<linearGradient id="paint0_linear_377:4953" x1="130.894" y1="69.7085" x2="130.445" y2="155.561" gradientUnits="userSpaceOnUse">
<stop stop-color="white"/>
<stop offset="0.2203" stop-color="#808080"/>
<stop offset="0.5223" stop-color="#808080"/>
<stop offset="0.7599" stop-color="#808080"/>
<stop offset="1" stop-color="white"/>
</linearGradient>
<linearGradient id="paint1_linear_377:4953" x1="130.894" y1="69.7085" x2="130.445" y2="155.561" gradientUnits="userSpaceOnUse">
<stop stop-color="#004CA8"/>
<stop offset="0.2203" stop-color="#9FC3E2"/>
<stop offset="0.5223" stop-color="white"/>
<stop offset="0.7599" stop-color="#B3CFE8"/>
<stop offset="1" stop-color="#004CA8"/>
</linearGradient>
<clipPath id="clip0_377:4953">
<rect width="309" height="177" fill="white"/>
</clipPath>
</defs>
</svg>
