<svg width="334" height="182" viewBox="0 0 334 182" fill="none" xmlns="http://www.w3.org/2000/svg">
<path d="M252.346 9.77075H230.331V180.634H252.346V9.77075Z" fill="#9BC1F9"/>
<path d="M221.597 61.8857H199.583V180.634H221.597V61.8857Z" fill="#9BC1F9"/>
<path d="M283.533 46.7944H261.519V180.645H283.533V46.7944Z" fill="#9BC1F9"/>
<path d="M190.86 41.5288H168.846V180.634H190.86V41.5288Z" fill="#9BC1F9"/>
<path d="M160.112 82.7712H138.098V180.634H160.112V82.7712Z" fill="#9BC1F9"/>
<path opacity="0.3" d="M252.346 49.1516H230.331V180.634H252.346V49.1516Z" fill="#9BC1F9"/>
<path opacity="0.3" d="M221.598 89.2595H199.583V180.634H221.598V89.2595Z" fill="#9BC1F9"/>
<path opacity="0.3" d="M283.533 77.6379H261.519V180.634H283.533V77.6379Z" fill="#9BC1F9"/>
<path opacity="0.3" d="M190.86 73.5842H168.846V180.634H190.86V73.5842Z" fill="#9BC1F9"/>
<path opacity="0.3" d="M160.112 105.32H138.098V180.634H160.112V105.32Z" fill="#9BC1F9"/>
<path d="M294.233 11.0818L276.689 24.3776L283.379 24.8073L241.503 98.7111L218.324 63.8576L185.521 140.57L164.429 110.52L138.13 147.797L139.789 154.461L164.418 119.718L186.719 151.487L219.4 75.0495L241.887 108.867L288.246 27.0544L292.552 31.692L294.233 11.0818Z" fill="#5183BF"/>
<path d="M118.082 131.229C92.9143 111.126 71.7565 85.1288 55.7397 54.6045C44.1941 63.9017 32.6594 73.1989 21.1138 82.496C39.6351 117.79 64.0886 147.852 93.189 171.095C101.483 157.799 109.777 144.514 118.082 131.229Z" fill="#3C8F7C"/>
<path d="M50.3127 61.8857C43.1393 67.7571 35.9768 73.6174 28.8033 79.4887C30.5061 82.6832 29.8909 86.9903 27.3423 89.1714C43.6226 118.032 64.0225 143.104 87.7729 163.461C89.7174 160.542 93.3755 159.969 96.012 162.106C101.241 153.855 106.47 145.604 111.699 137.354C109.282 135.382 108.931 131.361 110.875 128.442C90.014 110.575 72.0968 88.5545 57.8048 63.2076C55.2781 65.3887 51.8837 64.8269 50.3127 61.8857Z" fill="#96D9C9"/>
<path d="M79.2923 127.869C84.6641 120.919 84.6202 110.652 79.5449 104.516C74.4587 98.3916 65.7802 98.1052 59.7712 104.296C53.7732 110.476 53.2019 121.447 58.9143 128.343C64.6158 135.239 73.9204 134.809 79.2923 127.869Z" fill="#50BFA5"/>
<path d="M78.9296 108.13C78.2595 108.879 77.5784 109.639 76.9083 110.388C78.5232 113.362 78.1826 116.424 76.4359 118.429C74.6783 120.445 72.7119 120.632 69.7019 118.848C67.5268 117.614 66.4722 117.251 65.8131 117.967C65.2528 118.572 65.0661 119.685 66.2525 121.194C66.9006 122.009 67.5488 122.56 68.12 122.946C68.878 123.463 69.1197 124.62 68.6583 125.512C68.2079 126.371 67.2412 126.658 66.5051 126.14C65.9009 125.711 65.2528 125.127 64.5388 124.312C63.9565 124.961 63.3743 125.6 62.7811 126.25C62.1659 125.479 61.5617 124.708 60.9575 123.926C61.5947 123.232 62.2318 122.549 62.869 121.855C61.331 118.87 61.6276 115.896 63.4182 114.012C65.3956 111.93 67.6806 112.569 70.3061 114.221C72.1187 115.356 73.1733 115.543 73.9313 114.695C74.7222 113.803 74.4696 112.459 73.4699 111.181C72.7888 110.3 71.9869 109.639 71.2069 109.143C70.4379 108.658 70.2292 107.469 70.7455 106.576C70.7675 106.543 70.7785 106.51 70.8004 106.477C71.2728 105.673 72.1736 105.398 72.8547 105.838C73.6786 106.378 74.5574 107.149 75.3374 108.052C75.9746 107.358 76.6007 106.665 77.2379 105.971C77.7981 106.698 78.3694 107.414 78.9296 108.13Z" fill="#3C8F7C"/>
<path d="M99.1209 145.77C93.3866 140.846 87.8609 135.624 82.5549 130.127C81.6432 131.317 80.7314 132.496 79.8306 133.685C85.2134 139.259 90.816 144.558 96.6382 149.548C97.4621 148.281 98.286 147.025 99.1209 145.77Z" fill="#50BFA5"/>
<path d="M112.941 123.121C81.3249 119.101 50.3131 108.493 21.5423 91.8591C16.0716 104.703 10.6009 117.559 5.14111 130.403C38.4049 149.636 74.2503 161.907 110.81 166.556C111.524 152.082 112.238 137.596 112.941 123.121Z" fill="#3C8F7C"/>
<path d="M20.411 100.209C17.0605 108.261 13.7099 116.314 10.3594 124.366C13.3913 126.085 14.9623 129.797 13.8198 132.738C41.9973 147.929 71.9105 158.162 102.417 163.053C102.67 159.814 105.57 157.622 108.898 158.074C109.404 149.052 109.92 140.019 110.425 130.998C107.371 130.579 105.108 127.55 105.361 124.311C78.5677 120.015 52.3016 111.037 27.5625 97.6975C26.409 100.639 23.2013 101.795 20.411 100.209Z" fill="#96D9C9"/>
<path d="M77.6886 138.841C78.9519 130.777 73.9096 122.659 66.5164 120.191C59.1233 117.746 51.4555 121.634 49.2694 129.389C47.0833 137.133 51.9388 146.122 60.2548 148.887C68.5707 151.652 76.4253 146.893 77.6886 138.841Z" fill="#50BFA5"/>
<path d="M67.7576 123.342C67.5379 124.256 67.3182 125.17 67.0985 126.096C69.9437 127.682 71.1521 130.282 70.6138 132.705C70.0755 135.139 68.4607 136.219 64.9893 136.23C62.4956 136.285 61.408 136.494 61.1883 137.376C61.0016 138.125 61.3751 139.094 63.1437 139.722C64.0995 140.063 64.9343 140.196 65.6154 140.229C66.5272 140.273 67.3072 141.088 67.3292 142.013C67.3511 142.916 66.6591 143.599 65.7692 143.533C65.0442 143.478 64.1873 143.324 63.1767 143.016C62.9899 143.809 62.7922 144.591 62.6054 145.384C61.7046 145.065 60.7929 144.734 59.8921 144.404C60.1118 143.555 60.3205 142.707 60.5292 141.848C57.7389 140.207 56.5525 137.706 57.1896 135.36C57.8927 132.771 60.1777 132.198 63.2536 132.264C65.3847 132.308 66.3844 131.945 66.6261 130.92C66.8788 129.841 65.9999 128.894 64.5059 128.354C63.4843 127.979 62.4626 127.825 61.5399 127.803C60.6391 127.781 59.8701 126.933 59.8811 125.985C59.8811 125.952 59.8811 125.919 59.8811 125.886C59.892 125.027 60.5402 124.377 61.3531 124.41C62.3308 124.443 63.4733 124.642 64.5938 124.994C64.8025 124.146 65.0222 123.287 65.231 122.438C66.0768 122.747 66.9117 123.044 67.7576 123.342Z" fill="#3C8F7C"/>
<path d="M98.4291 59.1428C97.6601 58.8895 96.9021 58.592 96.177 58.2395C95.3531 57.843 94.2876 57.3803 93.6065 57.2702C92.1893 57.0499 89.7506 57.1931 88.3994 58.6581C86.7186 60.4757 83.7416 58.9886 84.3348 68.5171C85.0159 79.3014 91.0139 78.1227 91.1567 77.9355C91.2995 77.7482 96.5066 71.0397 96.5066 71.0397C96.5066 71.0397 98.3302 75.0163 98.3302 74.8731C98.3412 74.7299 107.635 62.2382 98.4291 59.1428Z" fill="#0E2E35"/>
<path d="M104.746 130.238C79.8637 140.097 52.4221 144.602 23.8491 143.511C25.7496 155.706 27.6391 167.9 29.5396 180.083C62.5726 181.339 94.3095 176.129 123.08 164.727C116.972 153.238 110.864 141.738 104.746 130.238Z" fill="#3C8F7C"/>
<path d="M26.8481 150.462C28.0895 158.074 29.3418 165.686 30.5832 173.298C33.5822 173.386 36.4164 175.622 36.9327 178.365C64.4182 178.563 90.893 174.223 115.357 165.487C114.061 162.877 115.171 159.991 117.796 158.977C114.039 151.784 110.271 144.58 106.514 137.387C104.097 138.323 101.054 136.902 99.7692 134.291C78.2818 141.958 55.0367 145.77 30.9018 145.593C31.4181 148.325 29.6055 150.539 26.8481 150.462Z" fill="#96D9C9"/>
<path d="M86.2571 156.873C83.4888 150.11 76.0956 145.891 69.5813 147.014C63.0779 148.149 59.2659 154.307 61.2213 161.213C63.1767 168.109 70.8226 173.077 78.1499 171.8C85.4772 170.533 89.0255 163.626 86.2571 156.873Z" fill="#50BFA5"/>
<path d="M71.9319 148.953C72.1956 149.757 72.4483 150.55 72.7119 151.355C75.5132 151.421 77.5784 152.941 78.2925 155.023C79.0175 157.127 78.3364 158.636 75.8098 160.057C74.0192 161.125 73.3271 161.731 73.5688 162.502C73.7775 163.163 74.4915 163.758 76.0734 163.516C76.9303 163.384 77.5894 163.152 78.1057 162.899C78.7868 162.557 79.7316 162.866 80.171 163.582C80.5994 164.265 80.4127 165.08 79.7316 165.399C79.1713 165.653 78.4793 165.884 77.6004 166.06C77.8201 166.754 78.0398 167.437 78.2705 168.131C77.4686 168.252 76.6557 168.374 75.8428 168.484C75.6121 167.735 75.3814 166.997 75.1397 166.248C72.3494 166.126 70.3501 164.672 69.7349 162.59C69.0538 160.299 70.4599 158.911 72.7339 157.7C74.3048 156.862 74.8651 156.168 74.5794 155.276C74.2718 154.34 73.1953 153.965 71.8551 154.152C70.9433 154.285 70.1303 154.582 69.4493 154.946C68.7791 155.298 67.8344 154.957 67.417 154.219C67.406 154.197 67.384 154.164 67.373 154.141C66.9885 153.47 67.1643 152.698 67.7685 152.39C68.4935 152.015 69.4163 151.696 70.394 151.509C70.1633 150.76 69.9216 150.022 69.6909 149.273C70.4379 149.173 71.1849 149.063 71.9319 148.953Z" fill="#3C8F7C"/>
<path d="M107.338 149.967C101.417 152.071 95.3752 153.899 89.2344 155.452C89.7067 156.598 90.1901 157.755 90.6625 158.9C96.9022 157.325 103.021 155.463 109.019 153.337C108.459 152.214 107.899 151.09 107.338 149.967Z" fill="#50BFA5"/>
<path d="M63.7041 170.456V179.389C63.7041 180.832 79.7647 182 99.5824 182C119.4 182 135.461 180.832 135.461 179.389V170.456H63.7041Z" fill="#E59F39"/>
<path d="M89.6736 181.89V170.445H63.7041V179.378C63.7041 180.579 74.6785 181.581 89.6736 181.89Z" fill="#EAB054"/>
<path d="M90.8818 181.923C93.6721 181.978 96.5833 182 99.5823 182C104.053 182 108.338 181.945 112.292 181.835V170.456H90.8818V181.923Z" fill="#EAB054"/>
<path d="M113.731 181.78C126.518 181.383 135.472 180.458 135.472 179.378V170.445H113.731V181.78Z" fill="#EAB054"/>
<path d="M99.5824 172.967C119.397 172.967 135.461 171.798 135.461 170.357C135.461 168.915 119.397 167.746 99.5824 167.746C79.7674 167.746 63.7041 168.915 63.7041 170.357C63.7041 171.798 79.7674 172.967 99.5824 172.967Z" fill="#E59F39"/>
<path d="M129.133 170.357C129.133 171.359 115.907 172.174 99.5934 172.174C83.2801 172.174 70.0537 171.359 70.0537 170.357C70.0537 169.354 83.2801 168.539 99.5934 168.539C115.907 168.539 129.133 169.354 129.133 170.357Z" fill="#F7CC7F"/>
<path d="M57.5635 161.004V169.938C57.5635 171.381 73.6241 172.549 93.4418 172.549C113.259 172.549 129.32 171.381 129.32 169.938V161.004H57.5635Z" fill="#E59F39"/>
<path d="M83.533 172.45V161.004H57.5635V169.938C57.5635 171.128 68.5379 172.13 83.533 172.45Z" fill="#EAB054"/>
<path d="M84.7412 172.472C87.5315 172.527 90.4426 172.549 93.4417 172.549C97.9127 172.549 102.197 172.494 106.152 172.384V161.004H84.7412V172.472Z" fill="#EAB054"/>
<path d="M107.591 172.339C120.378 171.943 129.331 171.018 129.331 169.938V161.004H107.591V172.339Z" fill="#EAB054"/>
<path d="M93.4418 163.516C113.257 163.516 129.32 162.347 129.32 160.905C129.32 159.463 113.257 158.294 93.4418 158.294C73.6267 158.294 57.5635 159.463 57.5635 160.905C57.5635 162.347 73.6267 163.516 93.4418 163.516Z" fill="#E59F39"/>
<path d="M122.993 160.905C122.993 161.908 109.766 162.723 93.4528 162.723C77.1395 162.723 63.9131 161.908 63.9131 160.905C63.9131 159.903 77.1395 159.088 93.4528 159.088C109.766 159.088 122.993 159.903 122.993 160.905Z" fill="#F7CC7F"/>
<path d="M61.6611 151.299V160.233C61.6611 161.676 77.7218 162.844 97.5394 162.844C117.357 162.844 133.418 161.676 133.418 160.233V151.299H61.6611Z" fill="#E59F39"/>
<path d="M87.6196 162.745V151.299H61.6611V160.233C61.6611 161.423 72.6246 162.425 87.6196 162.745Z" fill="#EAB054"/>
<path d="M88.8281 162.767C91.6184 162.822 94.5295 162.844 97.5286 162.844C102 162.844 106.284 162.789 110.239 162.678V151.299H88.8281V162.767Z" fill="#EAB054"/>
<path d="M111.678 162.634C124.465 162.238 133.418 161.313 133.418 160.233V151.299H111.678V162.634Z" fill="#EAB054"/>
<path d="M97.5394 153.811C117.354 153.811 133.418 152.642 133.418 151.2C133.418 149.758 117.354 148.59 97.5394 148.59C77.7244 148.59 61.6611 149.758 61.6611 151.2C61.6611 152.642 77.7244 153.811 97.5394 153.811Z" fill="#E59F39"/>
<path d="M127.079 151.2C127.079 152.203 113.853 153.018 97.5393 153.018C81.2259 153.018 67.9995 152.203 67.9995 151.2C67.9995 150.198 81.2259 149.383 97.5393 149.383C113.853 149.394 127.079 150.198 127.079 151.2Z" fill="#F7CC7F"/>
<path d="M57.5635 141.727V150.661C57.5635 152.104 73.6241 153.271 93.4418 153.271C113.259 153.271 129.32 152.104 129.32 150.661V141.727H57.5635Z" fill="#E59F39"/>
<path d="M83.533 153.172V141.727H57.5635V150.661C57.5635 151.85 68.5379 152.864 83.533 153.172Z" fill="#EAB054"/>
<path d="M84.7412 153.194C87.5315 153.249 90.4426 153.271 93.4417 153.271C97.9127 153.271 102.197 153.216 106.152 153.106V141.727H84.7412V153.194Z" fill="#EAB054"/>
<path d="M107.591 153.062C120.378 152.666 129.331 151.74 129.331 150.661V141.727H107.591V153.062Z" fill="#EAB054"/>
<path d="M93.4418 144.249C113.257 144.249 129.32 143.081 129.32 141.639C129.32 140.197 113.257 139.028 93.4418 139.028C73.6267 139.028 57.5635 140.197 57.5635 141.639C57.5635 143.081 73.6267 144.249 93.4418 144.249Z" fill="#E59F39"/>
<path d="M122.993 141.639C122.993 142.641 109.766 143.456 93.4528 143.456C77.1395 143.456 63.9131 142.641 63.9131 141.639C63.9131 140.636 77.1395 139.821 93.4528 139.821C109.766 139.821 122.993 140.636 122.993 141.639Z" fill="#F7CC7F"/>
<path d="M308.767 169.685V178.277C308.767 179.665 293.321 180.788 274.261 180.788C255.202 180.788 239.756 179.665 239.756 178.277V169.685H308.767Z" fill="#E59F39"/>
<path d="M283.797 180.689V169.685H308.767V178.277C308.767 179.422 298.21 180.392 283.797 180.689Z" fill="#EAB054"/>
<path d="M282.633 180.711C279.952 180.755 277.151 180.788 274.262 180.788C269.955 180.788 265.847 180.733 262.046 180.623V169.685H282.633V180.711Z" fill="#EAB054"/>
<path d="M260.662 180.59C248.369 180.204 239.756 179.312 239.756 178.277V169.685H260.662V180.59Z" fill="#EAB054"/>
<path d="M274.261 172.108C293.318 172.108 308.767 170.984 308.767 169.597C308.767 168.209 293.318 167.085 274.261 167.085C255.205 167.085 239.756 168.209 239.756 169.597C239.756 170.984 255.205 172.108 274.261 172.108Z" fill="#E59F39"/>
<path d="M245.853 169.596C245.853 170.555 258.574 171.337 274.261 171.337C289.948 171.337 302.67 170.555 302.67 169.596C302.67 168.638 289.948 167.856 274.261 167.856C258.574 167.856 245.853 168.638 245.853 169.596Z" fill="#F7CC7F"/>
<path d="M314.666 160.597V169.189C314.666 170.577 299.22 171.7 280.16 171.7C261.101 171.7 245.655 170.577 245.655 169.189V160.597H314.666Z" fill="#E59F39"/>
<path d="M289.696 171.601V160.597H314.666V169.189C314.666 170.334 304.12 171.304 289.696 171.601Z" fill="#EAB054"/>
<path d="M288.542 171.623C285.862 171.667 283.06 171.7 280.171 171.7C275.865 171.7 271.757 171.645 267.956 171.535V160.597H288.542V171.623Z" fill="#EAB054"/>
<path d="M266.561 171.502C254.268 171.117 245.655 170.224 245.655 169.189V160.597H266.561V171.502Z" fill="#EAB054"/>
<path d="M280.16 163.02C299.217 163.02 314.666 161.896 314.666 160.509C314.666 159.122 299.217 157.997 280.16 157.997C261.104 157.997 245.655 159.122 245.655 160.509C245.655 161.896 261.104 163.02 280.16 163.02Z" fill="#E59F39"/>
<path d="M280.16 162.249C295.85 162.249 308.568 161.47 308.568 160.509C308.568 159.547 295.85 158.768 280.16 158.768C264.471 158.768 251.752 159.547 251.752 160.509C251.752 161.47 264.471 162.249 280.16 162.249Z" fill="#F7CC7F"/>
<path d="M310.733 151.266V159.859C310.733 161.247 295.287 162.37 276.228 162.37C257.168 162.37 241.723 161.247 241.723 159.859V151.266H310.733Z" fill="#E59F39"/>
<path d="M285.763 162.271V151.266H310.733V159.859C310.733 161.004 300.187 161.974 285.763 162.271Z" fill="#EAB054"/>
<path d="M284.61 162.293C281.929 162.337 279.128 162.37 276.239 162.37C271.932 162.37 267.824 162.315 264.023 162.205V151.266H284.61V162.293Z" fill="#EAB054"/>
<path d="M262.628 162.172C250.335 161.786 241.723 160.894 241.723 159.859V151.266H262.628V162.172Z" fill="#EAB054"/>
<path d="M276.228 153.69C295.284 153.69 310.733 152.565 310.733 151.178C310.733 149.791 295.284 148.667 276.228 148.667C257.171 148.667 241.723 149.791 241.723 151.178C241.723 152.565 257.171 153.69 276.228 153.69Z" fill="#E59F39"/>
<path d="M276.228 152.919C291.917 152.919 304.636 152.139 304.636 151.178C304.636 150.217 291.917 149.438 276.228 149.438C260.538 149.438 247.819 150.217 247.819 151.178C247.819 152.139 260.538 152.919 276.228 152.919Z" fill="#F7CC7F"/>
<path d="M314.666 142.068V150.661C314.666 152.049 299.22 153.172 280.16 153.172C261.101 153.172 245.655 152.049 245.655 150.661V142.068H314.666Z" fill="#E59F39"/>
<path d="M289.696 153.073V142.068H314.666V150.661C314.666 151.806 304.12 152.776 289.696 153.073Z" fill="#EAB054"/>
<path d="M288.542 153.095C285.862 153.139 283.06 153.172 280.171 153.172C275.865 153.172 271.757 153.117 267.956 153.007V142.068H288.542V153.095Z" fill="#EAB054"/>
<path d="M266.561 152.963C254.268 152.577 245.655 151.685 245.655 150.65V142.057H266.561V152.963Z" fill="#EAB054"/>
<path d="M280.16 144.492C299.217 144.492 314.666 143.367 314.666 141.98C314.666 140.593 299.217 139.469 280.16 139.469C261.104 139.469 245.655 140.593 245.655 141.98C245.655 143.367 261.104 144.492 280.16 144.492Z" fill="#E59F39"/>
<path d="M280.16 143.721C295.85 143.721 308.568 142.941 308.568 141.98C308.568 141.019 295.85 140.24 280.16 140.24C264.471 140.24 251.752 141.019 251.752 141.98C251.752 142.941 264.471 143.721 280.16 143.721Z" fill="#F7CC7F"/>
<path d="M330.726 131.626L328.65 138.885C328.31 140.053 314.995 137.266 298.902 132.639C282.808 128.012 270.021 123.32 270.362 122.141L272.438 114.882L330.726 131.626Z" fill="#E59F39"/>
<path d="M306.976 134.864L309.635 125.567L330.727 131.625L328.65 138.885C328.376 139.854 319.225 138.114 306.976 134.864Z" fill="#EAB054"/>
<path d="M305.988 134.611C303.714 134.005 301.341 133.344 298.902 132.639C295.266 131.593 291.805 130.546 288.62 129.533L291.256 120.291L308.646 125.292L305.988 134.611Z" fill="#EAB054"/>
<path d="M287.455 129.169C277.162 125.864 270.109 123.022 270.351 122.141L272.427 114.882L290.081 119.949L287.455 129.169Z" fill="#EAB054"/>
<path d="M272.449 114.805C272.12 115.972 284.896 120.676 300.989 125.303C317.083 129.929 330.408 132.727 330.738 131.548C331.067 130.381 318.291 125.677 302.198 121.051C286.104 116.435 272.79 113.637 272.449 114.805Z" fill="#E59F39"/>
<path d="M277.59 116.292C277.359 117.107 287.916 120.852 301.176 124.664C314.435 128.475 325.366 130.899 325.596 130.083C325.827 129.268 315.27 125.523 302.011 121.712C288.762 117.9 277.832 115.477 277.59 116.292Z" fill="#F7CC7F"/>
<path d="M311.864 81.6919L314.072 88.9071C314.424 90.0748 301.735 95.0097 285.73 99.9337C269.724 104.858 256.454 107.898 256.102 106.73L253.894 99.5151L311.864 81.6919Z" fill="#E59F39"/>
<path d="M293.716 97.3891L290.893 88.147L311.875 81.6919L314.083 88.9071C314.369 89.8765 305.756 93.4125 293.716 97.3891Z" fill="#EAB054"/>
<path d="M292.749 97.7088C290.508 98.4468 288.157 99.1849 285.741 99.9339C282.126 101.047 278.655 102.06 275.436 102.952L272.624 93.7651L289.926 88.4446L292.749 97.7088Z" fill="#EAB054"/>
<path d="M274.261 103.282C263.836 106.135 256.377 107.612 256.102 106.741L253.894 99.5261L271.46 94.1284L274.261 103.282Z" fill="#EAB054"/>
<path d="M253.872 99.449C254.224 100.617 267.494 97.5653 283.5 92.6523C299.506 87.7284 312.194 82.7934 311.842 81.6257C311.491 80.4581 298.22 83.5094 282.215 88.4224C266.209 93.3463 253.521 98.2813 253.872 99.449Z" fill="#E59F39"/>
<path d="M258.992 97.8737C259.244 98.6778 270.131 96.0561 283.313 92.0023C296.496 87.9486 306.987 84.005 306.734 83.2009C306.482 82.3967 295.595 85.0184 282.413 89.0722C269.23 93.1149 258.739 97.0585 258.992 97.8737Z" fill="#F7CC7F"/>
<path d="M122.696 171.469C122.696 171.469 123.553 176.008 123.553 176.019C123.597 176.613 123.586 178.101 123.706 178.618C124.19 180.557 132.33 175.842 130.188 175.468C129.99 175.435 128.595 174.014 128.276 173.408C127.716 172.361 127.2 170.412 127.2 170.412L122.696 171.469Z" fill="#F7A491"/>
<path d="M129.792 175.181C129.792 175.181 127.694 175.699 126.618 175.809C125.552 175.919 124.179 174.256 123.41 174.564C122.564 174.906 122.103 180.193 122.103 180.193C122.103 180.193 135.527 180.81 138.701 179.929C139.965 179.576 133.967 176.79 129.792 175.181Z" fill="#F47458"/>
<path d="M141.415 171.26C141.415 171.26 142.272 175.798 142.272 175.809C142.316 176.404 142.305 177.891 142.426 178.409C142.909 180.348 150.895 175.941 148.753 175.567C148.556 175.534 147.314 173.804 146.985 173.198C146.424 172.152 145.908 170.202 145.908 170.202L141.415 171.26Z" fill="#F7A491"/>
<path d="M148.303 175.181C148.303 175.181 146.205 175.699 145.128 175.809C144.063 175.919 142.69 174.256 141.921 174.564C141.075 174.906 140.613 180.193 140.613 180.193C140.613 180.193 154.037 180.81 157.212 179.929C158.476 179.576 152.478 176.79 148.303 175.181Z" fill="#F47458"/>
<path d="M94.8701 125.831L119.291 120.147C119.291 120.147 130.243 117.239 132.891 120.654C135.538 124.058 146.765 171.106 146.765 171.106C146.765 171.106 140.976 171.612 140.591 171.359L127.035 147.235C125.75 144.944 124.893 142.421 124.531 139.81L123.564 132.903L113.622 135.812C113.622 135.812 102.164 138.334 97.5066 135.437C92.8598 132.529 94.8701 125.831 94.8701 125.831Z" fill="#0E2E35"/>
<path d="M104.252 83.6086C104.636 83.6197 105.691 83.9832 107.24 86.9023C109.217 90.6256 112.095 101.895 112.095 101.895L103.483 105.1L102.384 102.743L100.561 84.6441C100.561 84.6441 104.142 83.6086 104.252 83.6086Z" fill="#EAB054"/>
<path d="M92.8708 81.9893C95.3315 81.9893 101.428 82.7053 104.252 83.6086C104.252 83.6086 106.328 101.454 102.384 115.014C101.505 118.054 103.12 127.594 103.12 127.594L77.6011 127.252C77.6011 127.252 80.6221 104.175 79.4906 100.44C78.3481 96.7171 78.3261 83.7187 78.3261 83.7187C78.3261 83.7187 78.5019 83.6967 84.0605 82.7273C86.6311 82.2977 90.2343 81.9893 92.8708 81.9893Z" fill="#F7CC7F"/>
<path d="M78.0293 85.7125C80.4131 84.8203 81.5776 106.301 81.9071 115.146C86.1365 115.554 93.4967 115.146 95.3313 115.014C96.1991 114.948 98.1875 114.221 99.0444 114.111C99.9232 114.001 100.725 113.935 101.154 114.012C101.307 114.034 105.712 115.84 106.097 116.237C106.569 116.722 107.833 117.966 107.613 118.495C107.404 119.024 105.185 117.008 105.185 117.008L104.098 116.402C105.449 117.713 108.019 119.453 107.646 120.081C107.283 120.698 104.965 118.936 103.307 117.735C104.724 119.013 106.481 121.304 106.086 121.668C105.723 121.987 103.713 119.332 101.571 118.572C100.78 118.286 99.9891 119.068 99.3629 119.167C98.9016 119.233 98.1985 119.387 97.7481 119.255L95.595 119.046C94.804 119.112 94.6173 119.134 93.8153 119.31C92.8925 119.509 91.3656 119.718 90.1901 120.004C83.4012 121.668 81.1382 122.428 79.0509 122.428C72.7563 122.417 72.3938 87.8275 78.0293 85.7125Z" fill="#F7A491"/>
<path d="M73.5035 105.882C73.0531 96.8273 73.119 85.6575 78.2052 83.7518C80.2046 83.0028 83.7419 87.5192 83.1047 106.058C80.3913 106.29 76.4146 106.477 73.5035 105.882Z" fill="#EAB054"/>
<path d="M130.1 100.352L106.053 101.927C105.416 101.971 104.866 102.39 104.669 102.996L98.44 121.59L85.1806 122.461C84.8071 122.483 84.5325 122.802 84.5545 123.177C84.5764 123.551 84.895 123.827 85.2685 123.804L122.992 121.337C124.025 121.271 124.926 120.599 125.288 119.619L131.66 102.478C132.066 101.399 131.231 100.275 130.1 100.352Z" fill="#F47458"/>
<path d="M118.115 111.842C118.071 112.668 117.445 113.307 116.72 113.274C115.995 113.23 115.445 112.525 115.489 111.698C115.533 110.872 116.159 110.233 116.884 110.266C117.62 110.299 118.17 111.004 118.115 111.842Z" fill="white"/>
<path d="M77.6119 126.68L104.23 122.075C104.23 122.075 115.742 120.313 118.379 123.727C121.026 127.131 128.705 171.326 128.705 171.326C128.705 171.326 122.916 171.833 122.531 171.579C122.235 171.381 115.226 156.653 112.073 150.022C111.073 147.918 110.37 145.682 109.986 143.379L108.975 137.365L105.625 138.521C99.7365 140.548 93.4638 141.253 87.29 140.493C84.7085 140.174 82.2917 139.612 80.7977 138.687C76.1399 135.768 77.6119 126.68 77.6119 126.68Z" fill="#184655"/>
<path d="M93.8703 78.7286L94.3866 82.584C94.3866 82.584 95.551 88.1359 94.057 89.2044C92.563 90.2729 87.7075 82.4188 87.7075 82.4188L88.2238 72.6479L93.8703 78.7286Z" fill="#F7A491"/>
<path d="M88.0591 75.8314C89.2894 79.1582 92.2335 81.2071 94.3097 82.0002L93.8703 78.7285L88.2239 72.6589L88.0591 75.8314Z" fill="#F47458"/>
<path d="M93.5625 62.0399C96.7263 61.5332 99.5605 64.0668 99.4836 67.2393C99.4507 68.6162 99.3408 70.3347 99.0552 72.1853C98.3631 76.6356 95.3311 80.5461 93.3208 80.2047C91.3105 79.8522 86.2572 76.0187 87.147 69.6847C87.6963 65.7632 90.2449 62.5687 93.5625 62.0399Z" fill="#F7A491"/>
<path d="M88.5423 70.4338C88.3775 71.4142 87.5866 72.0971 86.7956 71.9539C85.9937 71.8107 85.4884 70.9074 85.6532 69.9271C85.818 68.9467 86.6089 68.2637 87.3998 68.4069C88.2017 68.5501 88.7071 69.4534 88.5423 70.4338Z" fill="#F7A491"/>
<path d="M87.3998 68.407C87.3998 68.407 89.8276 69.0129 90.7284 67.4487C91.6292 65.8844 94.8479 62.5247 98.9455 63.9126C103.043 65.3116 95.3423 60.5198 95.0127 60.5198C94.6832 60.5198 90.7504 60.4978 90.7504 60.4978C90.7504 60.4978 87.7184 62.9873 87.6086 63.2627C87.4987 63.5381 86.6309 66.5233 86.6309 66.5233L87.3998 68.407Z" fill="#0E2E35"/>
<path d="M206.39 180.4H266.832V158.335H206.39V180.4Z" fill="#50BFA5"/>
<path d="M206.39 164.391H266.832V161.549H206.39V164.391Z" fill="#96D9C9"/>
<path d="M206.39 169.937H266.832V167.095H206.39V169.937Z" fill="#96D9C9"/>
<path d="M206.39 175.482H266.832V172.64H206.39V175.482Z" fill="#96D9C9"/>
<path d="M206.39 180.399H266.832V177.557H206.39V180.399Z" fill="#96D9C9"/>
<path d="M228.895 180.4H241.462V158.335H228.895V180.4Z" fill="#F7CC7F"/>
<path d="M266.089 180.4H275.218V158.335H266.089V180.4Z" fill="#3C8F7C"/>
<path d="M334 180.083H0V181.989H334V180.083Z" fill="#0E2E35"/>
<path opacity="0.8" d="M141.876 14.4635C141.261 11.7867 138.877 9.79288 136.032 9.79288C135.505 9.79288 134.999 9.85898 134.516 9.99116C133.11 6.97288 130.056 4.87992 126.519 4.87992C125.607 4.87992 124.717 5.02312 123.893 5.27648C121.971 2.115 118.51 0 114.556 0C109.854 0 105.844 2.99625 104.317 7.1932C103.241 6.58734 101.999 6.24585 100.681 6.24585C96.5505 6.24585 93.2109 9.5946 93.2109 13.7365C93.2109 13.9788 93.2219 14.2212 93.2439 14.4635H141.876Z" fill="white"/>
<path opacity="0.8" d="M163.781 44.1837C163.32 42.1568 161.518 40.6477 159.354 40.6477C158.959 40.6477 158.574 40.7027 158.212 40.7909C157.146 38.5106 154.839 36.9244 152.159 36.9244C151.467 36.9244 150.797 37.0345 150.17 37.2218C148.731 34.8314 146.106 33.2231 143.118 33.2231C139.558 33.2231 136.527 35.4924 135.373 38.6649C134.56 38.2132 133.626 37.9488 132.627 37.9488C129.507 37.9488 126.969 40.4824 126.969 43.6219C126.969 43.8092 126.98 43.9854 126.991 44.1727H163.781V44.1837Z" fill="white"/>
<path opacity="0.8" d="M61.3315 40.0087C61.738 38.2462 63.3089 36.9354 65.1874 36.9354C65.528 36.9354 65.8685 36.9794 66.1871 37.0676C67.1208 35.0737 69.1312 33.6968 71.4711 33.6968C72.0753 33.6968 72.6575 33.7849 73.2068 33.9612C74.4591 31.8682 76.7441 30.4802 79.3586 30.4802C82.4675 30.4802 85.1149 32.452 86.1146 35.228C86.8287 34.8314 87.6416 34.6001 88.5094 34.6001C91.2338 34.6001 93.4419 36.8142 93.4419 39.5461C93.4419 39.7113 93.4309 39.8655 93.4199 40.0308H61.3315V40.0087Z" fill="white"/>
<path d="M129.243 65.1684L129.672 70.3898L132.704 66.975L142.492 58.9336L134.143 61.5663C134.143 61.5663 130.034 63.5712 129.847 63.8355C129.661 64.1109 129.243 65.1684 129.243 65.1684Z" fill="#50BFA5"/>
<path d="M124.816 62.9323L142.491 58.9336L129.243 65.1684L124.816 62.9323Z" fill="#96D9C9"/>
<path d="M136.054 69.0459L130.594 66.3141L142.491 58.9336L136.054 69.0459Z" fill="#96D9C9"/>
<path d="M127.189 68.0764C128.002 67.768 128.606 67.7019 128.617 67.7019L128.573 67.3274C128.551 67.3274 127.914 67.4045 127.057 67.7239L127.189 68.0764Z" fill="#3C8F7C"/>
<path d="M118.456 98.9641C119.17 98.3032 119.818 97.5982 120.378 96.8602L120.686 97.0915C120.114 97.8516 119.455 98.5786 118.719 99.2505L118.456 98.9641ZM121.85 94.4367C122.037 94.0402 122.213 93.6326 122.366 93.214C122.542 92.7403 122.696 92.2556 122.817 91.7489L123.19 91.8481C123.058 92.3548 122.905 92.8615 122.729 93.3462C122.575 93.7758 122.399 94.1944 122.202 94.602L121.85 94.4367ZM123.388 86.0759L123.772 86.0649C123.794 87.1003 123.762 88.0587 123.674 88.973L123.289 88.94C123.377 88.0367 123.41 87.1004 123.388 86.0759ZM122.839 80.3478L123.212 80.2927C123.377 81.4053 123.487 82.3196 123.575 83.1678L123.19 83.2008C123.113 82.3747 123.004 81.4604 122.839 80.3478ZM122.421 77.4727C122.267 76.4483 122.224 75.4679 122.278 74.5756L122.663 74.5977C122.608 75.4679 122.652 76.4152 122.806 77.4176V77.4397L122.432 77.4948L122.421 77.4727ZM122.894 71.7006C123.278 70.7642 123.838 69.9381 124.552 69.2661L124.816 69.5415C124.146 70.1804 123.619 70.9515 123.256 71.8438L122.894 71.7006Z" fill="#3C8F7C"/>
</svg>
