<svg width="111" height="48" viewBox="0 0 111 48" fill="none" xmlns="http://www.w3.org/2000/svg">
<path d="M62.8309 17.589L62.8309 17.589C66.9719 16.77 69.7446 13.0771 69.3612 9.23985C68.9289 5.0603 65.6012 2.03735 61.3337 2.02048L62.8309 17.589ZM62.8309 17.589L62.8209 17.591M62.8309 17.589L62.8209 17.591M62.8209 17.591C61.0906 17.9424 59.5632 18.7785 58.5717 20.1071C57.5572 21.4666 57.2438 23.1615 57.6631 24.8784C58.3779 27.8584 61.2658 29.8528 64.3439 29.3539L64.3535 29.3523M62.8209 17.591L64.3535 29.3523M64.3535 29.3523C71.4537 28.1661 76.558 24.1873 79.5245 17.7609M64.3535 29.3523L79.5245 17.7609M79.5245 17.7609C83.7267 17.7829 87.9519 17.7797 92.1691 17.7764C95.3841 17.7739 98.5944 17.7714 101.786 17.7801C105.136 17.7977 107.856 19.7927 108.678 22.4225L108.678 22.4236C109.712 25.7253 108.197 29.1585 104.9 30.6358C99.1399 33.1993 93.3802 35.7373 87.6068 38.2815C86.0001 38.9895 84.3923 39.698 82.7832 40.4076L82.7831 40.4076L82.7734 40.4119C82.0346 40.7424 81.2627 41.0794 80.4803 41.4209C79.3538 41.9126 78.2056 42.4137 77.1035 42.9188C73.5995 44.5155 69.9217 45.279 66.0466 45.279C64.5874 45.279 63.1282 45.2798 61.6692 45.2806C55.8357 45.2839 50.0048 45.2872 44.1855 45.2381L44.1771 45.238H44.1687C43.5609 45.238 42.8198 45.0584 42.1753 44.7537L42.1669 44.7497L42.1585 44.7458C40.4808 43.9715 38.911 43.1834 37.3092 42.3792C36.1426 41.7935 34.959 41.1993 33.7043 40.5957C33.7437 35.3265 33.7437 30.0392 33.7437 24.7606V24.7564C33.7437 23.4287 33.745 22.0994 33.7462 20.769C33.7501 16.8115 33.7539 12.8441 33.7239 8.87944C36.5271 6.82662 39.3102 4.75369 42.073 2.66066C42.6853 2.19838 43.2749 2.00058 44.0003 2C46.8921 2.01025 49.7833 2.01025 52.6703 2.01025H52.6721C55.5621 2.01025 58.4478 2.01025 61.333 2.02048L79.5245 17.7609Z" stroke="white" stroke-width="4"/>
<path d="M21.7974 23.7075V23.6703V23.7075ZM21.7974 23.7075V23.7447M21.7974 23.7075V23.7447M21.7974 23.7447V23.7819M21.7974 23.7447V23.7819M21.7974 23.7819V23.8192M21.7974 23.7819V23.8192M21.7974 23.8192V23.8564M21.7974 23.8192V23.8564M21.7974 23.8564V23.8936M21.7974 23.8564V23.8936M21.7974 23.8936V23.9308M21.7974 23.8936V23.9308M21.7974 23.9308V23.9681M21.7974 23.9308V23.9681M21.7974 23.9681V24.0053M21.7974 23.9681V24.0053M21.7974 24.0053V24.0425M21.7974 24.0053V24.0425M21.7974 24.0425V24.0797M21.7974 24.0425V24.0797M21.7974 24.0797V24.117M21.7974 24.0797V24.117M21.7974 24.117V24.1542M21.7974 24.117V24.1542M21.7974 24.1542V24.1914M21.7974 24.1542V24.1914M21.7974 24.1914V24.2286M21.7974 24.1914V24.2286M21.7974 24.2286V24.2659M21.7974 24.2286V24.2659M21.7974 24.2659V24.3031M21.7974 24.2659V24.3031M21.7974 24.3031V24.3403M21.7974 24.3031V24.3403M21.7974 24.3403V24.3775M21.7974 24.3403V24.3775M21.7974 24.3775V24.4148M21.7974 24.3775V24.4148M21.7974 24.4148V24.452M21.7974 24.4148V24.452M21.7974 24.452V24.4892M21.7974 24.452V24.4892M21.7974 24.4892V24.5264M21.7974 24.4892V24.5264M21.7974 24.5264V24.5637M21.7974 24.5264V24.5637M21.7974 24.5637V24.6009M21.7974 24.5637V24.6009M21.7974 24.6009V24.6381M21.7974 24.6009V24.6381M21.7974 24.6381V24.6753M21.7974 24.6381V24.6753M21.7974 24.6753V24.7126M21.7974 24.6753V24.7126M21.7974 24.7126V24.7498M21.7974 24.7126V24.7498M21.7974 24.7498V24.787M21.7974 24.7498V24.787M21.7974 24.787V24.8242M21.7974 24.787V24.8242M21.7974 24.8242V24.8615M21.7974 24.8242V24.8615M21.7974 24.8615V24.8987M21.7974 24.8615V24.8987M21.7974 24.8987V24.9359M21.7974 24.8987V24.9359M21.7974 24.9359V24.9731M21.7974 24.9359V24.9731M21.7974 24.9731V25.0104M21.7974 24.9731V25.0104M21.7974 25.0104V25.0476M21.7974 25.0104V25.0476M21.7974 25.0476V25.0848M21.7974 25.0476V25.0848M21.7974 25.0848V25.122M21.7974 25.0848V25.122M21.7974 25.122V25.1593M21.7974 25.122V25.1593M21.7974 25.1593V25.1965M21.7974 25.1593V25.1965M21.7974 25.1965V25.2337M21.7974 25.1965V25.2337M21.7974 25.2337V25.2709M21.7974 25.2337V25.2709M21.7974 25.2709V25.3082M21.7974 25.2709V25.3082M21.7974 25.3082V25.3454M21.7974 25.3082V25.3454M21.7974 25.3454V25.3826M21.7974 25.3454V25.3826M21.7974 25.3826V25.4198M21.7974 25.3826V25.4198M21.7974 25.4198V25.4571M21.7974 25.4198V25.4571M21.7974 25.4571V25.4943M21.7974 25.4571V25.4943M21.7974 25.4943V25.5315M21.7974 25.4943V25.5315M21.7974 25.5315V25.5687M21.7974 25.5315V25.5687M21.7974 25.5687V25.606M21.7974 25.5687V25.606M21.7974 25.606V25.6432M21.7974 25.606V25.6432M21.7974 25.6432V25.6804M21.7974 25.6432V25.6804M21.7974 25.6804V25.7176M21.7974 25.6804V25.7176M21.7974 25.7176V25.7549M21.7974 25.7176V25.7549M21.7974 25.7549V25.7921M21.7974 25.7549V25.7921M21.7974 25.7921V25.8293M21.7974 25.7921V25.8293M21.7974 25.8293V25.8665M21.7974 25.8293V25.8665M21.7974 25.8665V25.9038M21.7974 25.8665V25.9038M21.7974 25.9038V25.941M21.7974 25.9038V25.941M21.7974 25.941V25.9782M21.7974 25.941V25.9782M21.7974 25.9782V26.0154M21.7974 25.9782V26.0154M21.7974 26.0154V26.0527M21.7974 26.0154V26.0527M21.7974 26.0527V26.0899M21.7974 26.0527V26.0899M21.7974 26.0899V26.1271M21.7974 26.0899V26.1271M21.7974 26.1271V26.1643M21.7974 26.1271V26.1643M21.7974 26.1643V26.2016M21.7974 26.1643V26.2016M21.7974 26.2016V26.2388M21.7974 26.2016V26.2388M21.7974 26.2388V26.276M21.7974 26.2388V26.276M21.7974 26.276V26.3132M21.7974 26.276V26.3132M21.7974 26.3132V26.3505M21.7974 26.3132V26.3505M21.7974 26.3505V26.3877M21.7974 26.3505V26.3877M21.7974 26.3877V26.4249M21.7974 26.3877V26.4249M21.7974 26.4249V26.4621M21.7974 26.4249V26.4621M21.7974 26.4621V26.4994M21.7974 26.4621V26.4994M21.7974 26.4994V26.5366M21.7974 26.4994V26.5366M21.7974 26.5366V26.5738M21.7974 26.5366V26.5738M21.7974 26.5738V26.611M21.7974 26.5738V26.611M21.7974 26.611V26.6483M21.7974 26.611V26.6483M21.7974 26.6483V26.6855M21.7974 26.6483V26.6855M21.7974 26.6855V26.7227M21.7974 26.6855V26.7227M21.7974 26.7227V26.7599M21.7974 26.7227V26.7599M21.7974 26.7599V26.7972M21.7974 26.7599V26.7972M21.7974 26.7972V26.8344M21.7974 26.7972V26.8344M21.7974 26.8344V26.8716M21.7974 26.8344V26.8716M21.7974 26.8716V26.9088M21.7974 26.8716V26.9088M21.7974 26.9088V26.9461M21.7974 26.9088V26.9461M21.7974 26.9461V26.9833M21.7974 26.9461V26.9833M21.7974 26.9833V27.0205M21.7974 26.9833V27.0205M21.7974 27.0205V27.0577M21.7974 27.0205V27.0577M21.7974 27.0577V27.095M21.7974 27.0577V27.095M21.7974 27.095V27.1322M21.7974 27.095V27.1322M21.7974 27.1322V27.1694M21.7974 27.1322V27.1694M21.7974 27.1694V27.2066M21.7974 27.1694V27.2066M21.7974 27.2066V27.2439M21.7974 27.2066V27.2439M21.7974 27.2439V27.2811M21.7974 27.2439V27.2811M21.7974 27.2811V27.3183M21.7974 27.2811V27.3183M21.7974 27.3183V27.3555M21.7974 27.3183V27.3555M21.7974 27.3555V27.3928M21.7974 27.3555V27.3928M21.7974 27.3928V27.43M21.7974 27.3928V27.43M21.7974 27.43V27.4672M21.7974 27.43V27.4672M21.7974 27.4672V27.5044M21.7974 27.4672V27.5044M21.7974 27.5044V27.5417M21.7974 27.5044V27.5417M21.7974 27.5417V27.5789M21.7974 27.5417V27.5789M21.7974 27.5789V27.6161M21.7974 27.5789V27.6161M21.7974 27.6161V27.6533M21.7974 27.6161V27.6533M21.7974 27.6533V27.6906M21.7974 27.6533V27.6906M21.7974 27.6906V27.7278M21.7974 27.6906V27.7278M21.7974 27.7278V27.765M21.7974 27.7278V27.765M21.7974 27.765V27.8022M21.7974 27.765V27.8022M21.7974 27.8022V27.8395M21.7974 27.8022V27.8395M21.7974 27.8395V27.8767M21.7974 27.8395V27.8767M21.7974 27.8767V27.9139M21.7974 27.8767V27.9139M21.7974 27.9139V27.9511M21.7974 27.9139V27.9511M21.7974 27.9511V27.9884M21.7974 27.9511V27.9884M21.7974 27.9884V28.0256M21.7974 27.9884V28.0256M21.7974 28.0256V28.0628M21.7974 28.0256V28.0628M21.7974 28.0628V28.1M21.7974 28.0628V28.1M21.7974 28.1V28.1373M21.7974 28.1V28.1373M21.7974 28.1373V28.1745M21.7974 28.1373V28.1745M21.7974 28.1745V28.2117M21.7974 28.1745V28.2117M21.7974 28.2117V28.2489M21.7974 28.2117V28.2489M21.7974 28.2489V28.2862M21.7974 28.2489V28.2862M21.7974 28.2862V28.3234M21.7974 28.2862V28.3234M21.7974 28.3234V28.3606M21.7974 28.3234V28.3606M21.7974 28.3606V28.3978M21.7974 28.3606V28.3978M21.7974 28.3978V28.4351M21.7974 28.3978V28.4351M21.7974 28.4351V28.4723M21.7974 28.4351V28.4723M21.7974 28.4723V28.5095M21.7974 28.4723V28.5095M21.7974 28.5095V28.5467M21.7974 28.5095V28.5467M21.7974 28.5467V28.584M21.7974 28.5467V28.584M21.7974 28.584V28.6212M21.7974 28.584V28.6212M21.7974 28.6212V28.6584M21.7974 28.6212V28.6584M21.7974 28.6584V28.6956M21.7974 28.6584V28.6956M21.7974 28.6956V28.7329M21.7974 28.6956V28.7329M21.7974 28.7329V28.7701M21.7974 28.7329V28.7701M21.7974 28.7701V28.8073M21.7974 28.7701V28.8073M21.7974 28.8073V28.8445M21.7974 28.8073V28.8445M21.7974 28.8445V28.8818M21.7974 28.8445V28.8818M21.7974 28.8818V28.919M21.7974 28.8818V28.919M21.7974 28.919V28.9562M21.7974 28.919V28.9562M21.7974 28.9562V28.9934M21.7974 28.9562V28.9934M21.7974 28.9934V29.0307M21.7974 28.9934V29.0307M21.7974 29.0307V29.0679M21.7974 29.0307V29.0679M21.7974 29.0679V29.1051M21.7974 29.0679V29.1051M21.7974 29.1051V29.1423M21.7974 29.1051V29.1423M21.7974 29.1423V29.1796M21.7974 29.1423V29.1796M21.7974 29.1796V29.2168M21.7974 29.1796V29.2168M21.7974 29.2168V29.254M21.7974 29.2168V29.254M21.7974 29.254V29.2912M21.7974 29.254V29.2912M21.7974 29.2912V29.3285M21.7974 29.2912V29.3285M21.7974 29.3285V29.3657M21.7974 29.3285V29.3657M21.7974 29.3657V29.4029M21.7974 29.3657V29.4029M21.7974 29.4029V29.4401M21.7974 29.4029V29.4401M21.7974 29.4401V29.4774M21.7974 29.4401V29.4774M21.7974 29.4774V29.5146M21.7974 29.4774V29.5146M21.7974 29.5146V29.5518M21.7974 29.5146V29.5518M21.7974 29.5518V29.589M21.7974 29.5518V29.589M21.7974 29.589V29.6263M21.7974 29.589V29.6263M21.7974 29.6263V29.6635M21.7974 29.6263V29.6635M21.7974 29.6635V29.7007M21.7974 29.6635V29.7007M21.7974 29.7007V29.7379M21.7974 29.7007V29.7379M21.7974 29.7379V29.7752M21.7974 29.7379V29.7752M21.7974 29.7752V29.8124M21.7974 29.7752V29.8124M21.7974 29.8124V29.8496M21.7974 29.8124V29.8496M21.7974 29.8496V29.8868M21.7974 29.8496V29.8868M21.7974 29.8868V29.9241M21.7974 29.8868V29.9241M21.7974 29.9241V29.9613M21.7974 29.9241V29.9613M21.7974 29.9613V29.9985M21.7974 29.9613V29.9985M21.7974 29.9985V30.0357M21.7974 29.9985V30.0357M21.7974 30.0357V30.073M21.7974 30.0357V30.073M21.7974 30.073V30.1102M21.7974 30.073V30.1102M21.7974 30.1102V30.1474M21.7974 30.1102V30.1474M21.7974 30.1474V30.1846M21.7974 30.1474V30.1846M21.7974 30.1846V30.2219M21.7974 30.1846V30.2219M21.7974 30.2219V30.2591M21.7974 30.2219V30.2591M21.7974 30.2591V30.2963M21.7974 30.2591V30.2963M21.7974 30.2963V30.3335M21.7974 30.2963V30.3335M21.7974 30.3335V30.3708M21.7974 30.3335V30.3708M21.7974 30.3708V30.408M21.7974 30.3708V30.408M21.7974 30.408V30.4452M21.7974 30.408V30.4452M21.7974 30.4452V30.4824M21.7974 30.4452V30.4824M21.7974 30.4824V30.5197M21.7974 30.4824V30.5197M21.7974 30.5197V30.5569M21.7974 30.5197V30.5569M21.7974 30.5569V30.5941M21.7974 30.5569V30.5941M21.7974 30.5941V30.6313M21.7974 30.5941V30.6313M21.7974 30.6313V30.6686M21.7974 30.6313V30.6686M21.7974 30.6686V30.7058M21.7974 30.6686V30.7058M21.7974 30.7058V30.743M21.7974 30.7058V30.743M21.7974 30.743V30.7802M21.7974 30.743V30.7802M21.7974 30.7802V30.8175M21.7974 30.7802V30.8175M21.7974 30.8175V30.8547M21.7974 30.8175V30.8547M21.7974 30.8547V30.8919M21.7974 30.8547V30.8919M21.7974 30.8919V30.9291M21.7974 30.8919V30.9291M21.7974 30.9291V30.9664M21.7974 30.9291V30.9664M21.7974 30.9664V31.0036M21.7974 30.9664V31.0036M21.7974 31.0036V31.0408M21.7974 31.0036V31.0408M21.7974 31.0408V31.078M21.7974 31.0408V31.078M21.7974 31.078V31.1152M21.7974 31.078V31.1152M21.7974 31.1152V31.1525M21.7974 31.1152V31.1525M21.7974 31.1525V31.1897M21.7974 31.1525V31.1897M21.7974 31.1897V31.2269M21.7974 31.1897V31.2269M21.7974 31.2269V31.2642M21.7974 31.2269V31.2642M21.7974 31.2642V31.3014M21.7974 31.2642V31.3014M21.7974 31.3014V31.3386M21.7974 31.3014V31.3386M21.7974 31.3386V31.3758M21.7974 31.3386V31.3758M21.7974 31.3758V31.413M21.7974 31.3758V31.413M21.7974 31.413V31.4503M21.7974 31.413V31.4503M21.7974 31.4503V31.4875M21.7974 31.4503V31.4875M21.7974 31.4875V31.5247M21.7974 31.4875V31.5247M21.7974 31.5247V31.5619M21.7974 31.5247V31.5619M21.7974 31.5619V31.5992M21.7974 31.5619V31.5992M21.7974 31.5992V31.6364M21.7974 31.5992V31.6364M21.7974 31.6364V31.6736M21.7974 31.6364V31.6736M21.7974 31.6736V31.7108M21.7974 31.6736V31.7108M21.7974 31.7108V31.7481M21.7974 31.7108V31.7481M21.7974 31.7481V31.7853M21.7974 31.7481V31.7853M21.7974 31.7853V31.8225M21.7974 31.7853V31.8225M21.7974 31.8225V31.8597M21.7974 31.8225V31.8597M21.7974 31.8597V31.897M21.7974 31.8597V31.897M21.7974 31.897V31.9342M21.7974 31.897V31.9342M21.7974 31.9342V31.9714M21.7974 31.9342V31.9714M21.7974 31.9714V32.0086M21.7974 31.9714V32.0086M21.7974 32.0086V32.0459M21.7974 32.0086V32.0459M21.7974 32.0459V32.0831M21.7974 32.0459V32.0831M21.7974 32.0831V32.1203M21.7974 32.0831V32.1203M21.7974 32.1203V32.1575M21.7974 32.1203V32.1575M21.7974 32.1575V32.1948M21.7974 32.1575V32.1948M21.7974 32.1948V32.232M21.7974 32.1948V32.232M21.7974 32.232V32.2692M21.7974 32.232V32.2692M21.7974 32.2692V32.3064M21.7974 32.2692V32.3064M21.7974 32.3064V32.3437M21.7974 32.3064V32.3437M21.7974 32.3437V32.3809M21.7974 32.3437V32.3809M21.7974 32.3809V32.4181M21.7974 32.3809V32.4181M21.7974 32.4181V32.4553M21.7974 32.4181V32.4553M21.7974 32.4553V32.4926M21.7974 32.4553V32.4926M21.7974 32.4926V32.5298M21.7974 32.4926V32.5298M21.7974 32.5298V32.567M21.7974 32.5298V32.567M21.7974 32.567V32.6042M21.7974 32.567V32.6042M21.7974 32.6042V32.6415M21.7974 32.6042V32.6415M21.7974 32.6415V32.6787M21.7974 32.6415V32.6787M21.7974 32.6787V32.7159M21.7974 32.6787V32.7159M21.7974 32.7159V32.7531M21.7974 32.7159V32.7531M21.7974 32.7531V32.7904M21.7974 32.7531V32.7904M21.7974 32.7904V32.8276M21.7974 32.7904V32.8276M21.7974 32.8276V32.8648M21.7974 32.8276V32.8648M21.7974 32.8648V32.902M21.7974 32.8648V32.902M21.7974 32.902V32.9393M21.7974 32.902V32.9393M21.7974 32.9393V32.9765M21.7974 32.9393V32.9765M21.7974 32.9765V33.0137M21.7974 32.9765V33.0137M21.7974 33.0137V33.0509M21.7974 33.0137V33.0509M21.7974 33.0509V33.0882M21.7974 33.0509V33.0882M21.7974 33.0882V33.1254M21.7974 33.0882V33.1254M21.7974 33.1254V33.1626M21.7974 33.1254V33.1626M21.7974 33.1626V33.1998M21.7974 33.1626V33.1998M21.7974 33.1998V33.2371M21.7974 33.1998V33.2371M21.7974 33.2371V33.2743M21.7974 33.2371V33.2743M21.7974 33.2743V33.3115M21.7974 33.2743V33.3115M21.7974 33.3115V33.3487M21.7974 33.3115V33.3487M21.7974 33.3487V33.386M21.7974 33.3487V33.386M21.7974 33.386V33.4232M21.7974 33.386V33.4232M21.7974 33.4232V33.4604M21.7974 33.4232V33.4604M21.7974 33.4604V33.4976M21.7974 33.4604V33.4976M21.7974 33.4976V33.5349M21.7974 33.4976V33.5349M21.7974 33.5349V33.5721M21.7974 33.5349V33.5721M21.7974 33.5721V33.6093M21.7974 33.5721V33.6093M21.7974 33.6093V33.6465M21.7974 33.6093V33.6465M21.7974 33.6465V33.6838M21.7974 33.6465V33.6838M21.7974 33.6838V33.721M21.7974 33.6838V33.721M21.7974 33.721V33.7582M21.7974 33.721V33.7582M21.7974 33.7582V33.7954M21.7974 33.7582V33.7954M21.7974 33.7954V33.8327M21.7974 33.7954V33.8327M21.7974 33.8327V33.8699M21.7974 33.8327V33.8699M21.7974 33.8699V33.9071M21.7974 33.8699V33.9071M21.7974 33.9071V33.9443M21.7974 33.9071V33.9443M21.7974 33.9443V33.9816M21.7974 33.9443V33.9816M21.7974 33.9816V34.0188M21.7974 33.9816V34.0188M21.7974 34.0188V34.056M21.7974 34.0188V34.056M21.7974 34.056V34.0932M21.7974 34.056V34.0932M21.7974 34.0932V34.1305M21.7974 34.0932V34.1305M21.7974 34.1305V34.1677M21.7974 34.1305V34.1677M21.7974 34.1677V34.2049M21.7974 34.1677V34.2049M21.7974 34.2049V34.2421M21.7974 34.2049V34.2421M21.7974 34.2421V34.2794M21.7974 34.2421V34.2794M21.7974 34.2794V34.3166M21.7974 34.2794V34.3166M21.7974 34.3166V34.3538M21.7974 34.3166V34.3538M21.7974 34.3538V34.391M21.7974 34.3538V34.391M21.7974 34.391V34.4283M21.7974 34.391V34.4283M21.7974 34.4283V34.4655M21.7974 34.4283V34.4655M21.7974 34.4655V34.5027M21.7974 34.4655V34.5027M21.7974 34.5027V34.5399M21.7974 34.5027V34.5399M21.7974 34.5399V34.5772M21.7974 34.5399V34.5772M21.7974 34.5772V34.6144M21.7974 34.5772V34.6144M21.7974 34.6144V34.6516M21.7974 34.6144V34.6516M21.7974 34.6516V34.6888M21.7974 34.6516V34.6888M21.7974 34.6888V34.7261M21.7974 34.6888V34.7261M21.7974 34.7261V34.7633M21.7974 34.7261V34.7633M21.7974 34.7633V34.8005M21.7974 34.7633V34.8005M21.7974 34.8005V34.8377M21.7974 34.8005V34.8377M21.7974 34.8377V34.875M21.7974 34.8377V34.875M21.7974 34.875V34.9122M21.7974 34.875V34.9122M21.7974 34.9122V34.9494M21.7974 34.9122V34.9494M21.7974 34.9494V34.9866M21.7974 34.9494V34.9866M21.7974 34.9866V35.0239M21.7974 34.9866V35.0239M21.7974 35.0239V35.0611M21.7974 35.0239V35.0611M21.7974 35.0611V35.0983M21.7974 35.0611V35.0983M21.7974 35.0983V35.1355M21.7974 35.0983V35.1355M21.7974 35.1355V35.1728M21.7974 35.1355V35.1728M21.7974 35.1728V35.21M21.7974 35.1728V35.21M21.7974 35.21V35.2472M21.7974 35.21V35.2472M21.7974 35.2472V35.2844M21.7974 35.2472V35.2844M21.7974 35.2844V35.3217M21.7974 35.2844V35.3217M21.7974 35.3217V35.3589M21.7974 35.3217V35.3589M21.7974 35.3589V35.3961M21.7974 35.3589V35.3961M21.7974 35.3961V35.4333M21.7974 35.3961V35.4333M21.7974 35.4333V35.4706M21.7974 35.4333V35.4706M21.7974 35.4706V35.5078M21.7974 35.4706V35.5078M21.7974 35.5078V35.545M21.7974 35.5078V35.545M21.7974 35.545V35.5822M21.7974 35.545V35.5822M21.7974 35.5822V35.6195M21.7974 35.5822V35.6195M21.7974 35.6195V35.6567M21.7974 35.6195V35.6567M21.7974 35.6567V35.6939M21.7974 35.6567V35.6939M21.7974 35.6939V35.7311M21.7974 35.6939V35.7311M21.7974 35.7311V35.7684M21.7974 35.7311V35.7684M21.7974 35.7684V35.8056M21.7974 35.7684V35.8056M21.7974 35.8056V35.8428M21.7974 35.8056V35.8428M21.7974 35.8428V35.88M21.7974 35.8428V35.88M21.7974 35.88V35.9173M21.7974 35.88V35.9173M21.7974 35.9173V35.9545M21.7974 35.9173V35.9545M21.7974 35.9545V35.9917M21.7974 35.9545V35.9917M21.7974 35.9917V36.0289M21.7974 35.9917V36.0289M21.7974 36.0289V36.0662M21.7974 36.0289V36.0662M21.7974 36.0662V36.1034M21.7974 36.0662V36.1034M21.7974 36.1034V36.1406M21.7974 36.1034V36.1406M21.7974 36.1406V36.1778M21.7974 36.1406V36.1778M21.7974 36.1778V36.2151M21.7974 36.1778V36.2151M21.7974 36.2151V36.2523M21.7974 36.2151V36.2523M21.7974 36.2523V36.2895M21.7974 36.2523V36.2895M21.7974 36.2895V36.3267M21.7974 36.2895V36.3267M21.7974 36.3267V36.364M21.7974 36.3267V36.364M21.7974 36.364V36.4012M21.7974 36.364V36.4012M21.7974 36.4012V36.4384M21.7974 36.4012V36.4384M21.7974 36.4384V36.4756M21.7974 36.4384V36.4756M21.7974 36.4756V36.5129M21.7974 36.4756V36.5129M21.7974 36.5129V36.5501M21.7974 36.5129V36.5501M21.7974 36.5501V36.5873M21.7974 36.5501V36.5873M21.7974 36.5873V36.6245M21.7974 36.5873V36.6245M21.7974 36.6245V36.6618M21.7974 36.6245V36.6618M21.7974 36.6618V36.699M21.7974 36.6618V36.699M21.7974 36.699V36.7362M21.7974 36.699V36.7362M21.7974 36.7362V36.7734M21.7974 36.7362V36.7734M21.7974 36.7734V36.8107M21.7974 36.7734V36.8107M21.7974 36.8107V36.8479M21.7974 36.8107V36.8479M21.7974 36.8479V36.8851M21.7974 36.8479V36.8851M21.7974 36.8851V36.9223M21.7974 36.8851V36.9223M21.7974 36.9223V36.9596M21.7974 36.9223V36.9596M21.7974 36.9596V36.9968M21.7974 36.9596V36.9968M21.7974 36.9968V37.034M21.7974 36.9968V37.034M21.7974 37.034V37.0712M21.7974 37.034V37.0712M21.7974 37.0712V37.1085M21.7974 37.0712V37.1085M21.7974 37.1085V37.1457M21.7974 37.1085V37.1457M21.7974 37.1457V37.1829M21.7974 37.1457V37.1829M21.7974 37.1829V37.2201M21.7974 37.1829V37.2201M21.7974 37.2201V37.2574M21.7974 37.2201V37.2574M21.7974 37.2574V37.2946M21.7974 37.2574V37.2946M21.7974 37.2946V37.3318M21.7974 37.2946V37.3318M21.7974 37.3318V37.369M21.7974 37.3318V37.369M21.7974 37.369V37.4063M21.7974 37.369V37.4063M21.7974 37.4063V37.4435M21.7974 37.4063V37.4435M21.7974 37.4435V37.4807M21.7974 37.4435V37.4807M21.7974 37.4807V37.5179M21.7974 37.4807V37.5179M21.7974 37.5179V37.5552M21.7974 37.5179V37.5552M21.7974 37.5552V37.5924M21.7974 37.5552V37.5924M21.7974 37.5924V37.6296M21.7974 37.5924V37.6296M21.7974 37.6296V37.6668M21.7974 37.6296V37.6668M21.7974 37.6668V37.7041M21.7974 37.6668V37.7041M21.7974 37.7041V37.7413M21.7974 37.7041V37.7413M21.7974 37.7413V37.7785M21.7974 37.7413V37.7785M21.7974 37.7785V37.8157M21.7974 37.7785V37.8157M21.7974 37.8157V37.853M21.7974 37.8157V37.853M21.7974 37.853V37.8902M21.7974 37.853V37.8902M21.7974 37.8902V37.9274M21.7974 37.8902V37.9274M21.7974 37.9274V37.9646M21.7974 37.9274V37.9646M21.7974 37.9646V38.0019M21.7974 37.9646V38.0019M21.7974 38.0019V38.0391M21.7974 38.0019V38.0391M21.7974 38.0391V38.0763M21.7974 38.0391V38.0763M21.7974 38.0763V38.1135M21.7974 38.0763V38.1135M21.7974 38.1135V38.1508M21.7974 38.1135V38.1508M21.7974 38.1508V38.188M21.7974 38.1508V38.188M21.7974 38.188V38.2252M21.7974 38.188V38.2252M21.7974 38.2252V38.2624M21.7974 38.2252V38.2624M21.7974 38.2624V38.2997M21.7974 38.2624V38.2997M21.7974 38.2997V38.3369M21.7974 38.2997V38.3369M21.7974 38.3369V38.3741M21.7974 38.3369V38.3741M21.7974 38.3741V38.4113M21.7974 38.3741V38.4113M21.7974 38.4113V38.4486M21.7974 38.4113V38.4486M21.7974 38.4486V38.4858M21.7974 38.4486V38.4858M21.7974 38.4858V38.523M21.7974 38.4858V38.523M21.7974 38.523V38.5602M21.7974 38.523V38.5602M21.7974 38.5602V38.5975M21.7974 38.5602V38.5975M21.7974 38.5975V38.6347M21.7974 38.5975V38.6347M21.7974 38.6347V38.6719M21.7974 38.6347V38.6719M21.7974 38.6719V38.7091M21.7974 38.6719V38.7091M21.7974 38.7091V38.7464M21.7974 38.7091V38.7464M21.7974 38.7464V38.7836M21.7974 38.7464V38.7836M21.7974 38.7836V38.8208M21.7974 38.7836V38.8208M21.7974 38.8208V38.858M21.7974 38.8208V38.858M21.7974 38.858V38.8953M21.7974 38.858V38.8953M21.7974 38.8953V38.9325M21.7974 38.8953V38.9325M21.7974 38.9325V38.9697M21.7974 38.9325V38.9697M21.7974 38.9697V39.0069M21.7974 38.9697V39.0069M21.7974 39.0069V39.0442M21.7974 39.0069V39.0442M21.7974 39.0442V39.0814M21.7974 39.0442V39.0814M21.7974 39.0814V39.1186M21.7974 39.0814V39.1186M21.7974 39.1186V39.1558M21.7974 39.1186V39.1558M21.7974 39.1558V39.1931M21.7974 39.1558V39.1931M21.7974 39.1931V39.2303M21.7974 39.1931V39.2303M21.7974 39.2303V39.2675M21.7974 39.2303V39.2675M21.7974 39.2675V39.3047M21.7974 39.2675V39.3047M21.7974 39.3047V39.342M21.7974 39.3047V39.342M21.7974 39.342V39.3792M21.7974 39.342V39.3792M21.7974 39.3792V39.4164M21.7974 39.3792V39.4164M21.7974 39.4164V39.4536M21.7974 39.4164V39.4536M21.7974 39.4536V39.4909M21.7974 39.4536V39.4909M21.7974 39.4909V39.5281M21.7974 39.4909V39.5281M21.7974 39.5281V39.5653M21.7974 39.5281V39.5653M21.7974 39.5653V39.6025M21.7974 39.5653V39.6025M21.7974 39.6025V39.6398M21.7974 39.6025V39.6398M21.7974 39.6398V39.677M21.7974 39.6398V39.677M21.7974 39.677V39.7142M21.7974 39.677V39.7142M21.7974 39.7142V39.7514M21.7974 39.7142V39.7514M21.7974 39.7514V39.7887M21.7974 39.7514V39.7887M21.7974 39.7887V39.8259M21.7974 39.7887V39.8259M21.7974 39.8259V39.8631M21.7974 39.8259V39.8631M21.7974 39.8631V39.9003M21.7974 39.8631V39.9003M21.7974 39.9003V39.9376M21.7974 39.9003V39.9376M21.7974 39.9376V39.9748M21.7974 39.9376V39.9748M21.7974 39.9748V40.012M21.7974 39.9748V40.012M21.7974 40.012V40.0492M21.7974 40.012V40.0492M21.7974 40.0492V40.0865M21.7974 40.0492V40.0865M21.7974 40.0865V40.1237M21.7974 40.0865V40.1237M21.7974 40.1237V40.1609M21.7974 40.1237V40.1609M21.7974 40.1609V40.1981M21.7974 40.1609V40.1981M21.7974 40.1981V40.2354M21.7974 40.1981V40.2354M21.7974 40.2354V40.2726M21.7974 40.2354V40.2726M21.7974 40.2726V40.3098M21.7974 40.2726V40.3098M21.7974 40.3098V40.347M21.7974 40.3098V40.347M21.7974 40.347V40.3843M21.7974 40.347V40.3843M21.7974 40.3843V40.4215M21.7974 40.3843V40.4215M21.7974 40.4215V40.4587M21.7974 40.4215V40.4587M21.7974 40.4587V40.4959M21.7974 40.4587V40.4959M21.7974 40.4959V40.5331M21.7974 40.4959V40.5331M21.7974 40.5331V40.5704M21.7974 40.5331V40.5704M21.7974 40.5704V40.6076M21.7974 40.5704V40.6076M21.7974 40.6076V40.6448M21.7974 40.6076V40.6448M21.7974 40.6448V40.682M21.7974 40.6448V40.682M21.7974 40.682V40.7193M21.7974 40.682V40.7193M21.7974 40.7193V40.7565M21.7974 40.7193V40.7565M21.7974 40.7565V40.7937M21.7974 40.7565V40.7937M21.7974 40.7937V40.8309M21.7974 40.7937V40.8309M21.7974 40.8309V40.8682M21.7974 40.8309V40.8682M21.7974 40.8682V40.9054M21.7974 40.8682V40.9054M21.7974 40.9054V40.9426M21.7974 40.9054V40.9426M21.7974 40.9426V40.9799M21.7974 40.9426V40.9799M21.7974 40.9799V41.0171M21.7974 40.9799V41.0171M21.7974 41.0171V41.0543M21.7974 41.0171V41.0543M21.7974 41.0543V41.0915M21.7974 41.0543V41.0915M21.7974 41.0915V41.1287M21.7974 41.0915V41.1287M21.7974 41.1287V41.166M21.7974 41.1287V41.166M21.7974 41.166V41.2032M21.7974 41.166V41.2032M21.7974 41.2032V41.2404M21.7974 41.2032V41.2404M21.7974 41.2404V41.2776M21.7974 41.2404V41.2776M21.7974 41.2776V41.3149M21.7974 41.2776V41.3149M21.7974 41.3149V41.3521M21.7974 41.3149V41.3521M21.7974 41.3521V41.3893M21.7974 41.3521V41.3893M21.7974 41.3893V41.4265M21.7974 41.3893V41.4265M21.7974 41.4265V41.4638M21.7974 41.4265V41.4638M21.7974 41.4638V41.501M21.7974 41.4638V41.501M21.7974 41.501V41.5382M21.7974 41.501V41.5382M21.7974 41.5382V41.5754M21.7974 41.5382V41.5754M21.7974 41.5754V41.6127M21.7974 41.5754V41.6127M21.7974 41.6127V41.6499M21.7974 41.6127V41.6499M21.7974 41.6499V41.6871M21.7974 41.6499V41.6871M21.7974 41.6871V41.7243M21.7974 41.6871V41.7243M21.7974 41.7243V41.7616M21.7974 41.7243V41.7616M21.7974 41.7616V41.7988M21.7974 41.7616V41.7988M21.7974 41.7988V41.836M21.7974 41.7988V41.836M21.7974 41.836V41.8732M21.7974 41.836V41.8732M21.7974 41.8732V41.9105M21.7974 41.8732V41.9105M21.7974 41.9105V41.9477M21.7974 41.9105V41.9477M21.7974 41.9477V41.9849M21.7974 41.9477V41.9849M21.7974 41.9849V42.0221M21.7974 41.9849V42.0221M21.7974 42.0221V42.0594M21.7974 42.0221V42.0594M21.7974 42.0594V42.0966M21.7974 42.0594V42.0966M21.7974 42.0966V42.1338M21.7974 42.0966V42.1338M21.7974 42.1338V42.171M21.7974 42.1338V42.171M21.7974 42.171V42.2083M21.7974 42.171V42.2083M21.7974 42.2083V42.2455M21.7974 42.2083V42.2455M21.7974 42.2455V42.2827M21.7974 42.2455V42.2827M21.7974 42.2827V42.3199M21.7974 42.2827V42.3199M21.7974 42.3199V42.3572M21.7974 42.3199V42.3572M21.7974 42.3572V42.3944M21.7974 42.3572V42.3944M21.7974 42.3944V42.4316M21.7974 42.3944V42.4316M21.7974 42.4316V42.4688M21.7974 42.4316V42.4688M21.7974 42.4688V42.5061M21.7974 42.4688V42.5061M21.7974 42.5061V42.5433M21.7974 42.5061V42.5433M21.7974 42.5433V42.5805M21.7974 42.5433V42.5805M21.7974 42.5805V42.6177M21.7974 42.5805V42.6177M21.7974 42.6177V42.655M21.7974 42.6177V42.655M21.7974 42.655V42.6922M21.7974 42.655V42.6922M21.7974 42.6922V42.7294M21.7974 42.6922V42.7294M21.7974 42.7294C21.7974 43.982 21.4926 44.5117 21.2501 44.751M21.7974 42.7294L21.2501 44.751M21.2501 44.751C21.0021 44.9955 20.4513 45.2995 19.1741 45.2995M21.2501 44.751L19.1741 45.2995M19.1741 45.2995H19.1457M19.1741 45.2995H19.1457M19.1457 45.2995H19.1173M19.1457 45.2995H19.1173M19.1173 45.2995H19.0889M19.1173 45.2995H19.0889M19.0889 45.2995H19.0604M19.0889 45.2995H19.0604M19.0604 45.2995H19.032M19.0604 45.2995H19.032M19.032 45.2995H19.0036M19.032 45.2995H19.0036M19.0036 45.2995H18.9752M19.0036 45.2995H18.9752M18.9752 45.2995H18.9468M18.9752 45.2995H18.9468M18.9468 45.2995H18.9183M18.9468 45.2995H18.9183M18.9183 45.2995H18.8899M18.9183 45.2995H18.8899M18.8899 45.2995H18.8615M18.8899 45.2995H18.8615M18.8615 45.2995H18.8331M18.8615 45.2995H18.8331M18.8331 45.2995H18.8047M18.8331 45.2995H18.8047M18.8047 45.2995H18.7762M18.8047 45.2995H18.7762M18.7762 45.2995H18.7478M18.7762 45.2995H18.7478M18.7478 45.2995H18.7194M18.7478 45.2995H18.7194M18.7194 45.2995H18.691M18.7194 45.2995H18.691M18.691 45.2995H18.6626M18.691 45.2995H18.6626M18.6626 45.2995H18.6341M18.6626 45.2995H18.6341M18.6341 45.2995H18.6057M18.6341 45.2995H18.6057M18.6057 45.2995H18.5773M18.6057 45.2995H18.5773M18.5773 45.2995H18.5489M18.5773 45.2995H18.5489M18.5489 45.2995H18.5205M18.5489 45.2995H18.5205M18.5205 45.2995H18.492M18.5205 45.2995H18.492M18.492 45.2995H18.4636M18.492 45.2995H18.4636M18.4636 45.2995H18.4352M18.4636 45.2995H18.4352M18.4352 45.2995H18.4068M18.4352 45.2995H18.4068M18.4068 45.2995H18.3784M18.4068 45.2995H18.3784M18.3784 45.2995H18.3499M18.3784 45.2995H18.3499M18.3499 45.2995H18.3215M18.3499 45.2995H18.3215M18.3215 45.2995H18.2931M18.3215 45.2995H18.2931M18.2931 45.2995H18.2647M18.2931 45.2995H18.2647M18.2647 45.2995H18.2363M18.2647 45.2995H18.2363M18.2363 45.2995H18.2078M18.2363 45.2995H18.2078M18.2078 45.2995H18.1794M18.2078 45.2995H18.1794M18.1794 45.2995H18.151M18.1794 45.2995H18.151M18.151 45.2995H18.1226M18.151 45.2995H18.1226M18.1226 45.2995H18.0942M18.1226 45.2995H18.0942M18.0942 45.2995H18.0657M18.0942 45.2995H18.0657M18.0657 45.2995H18.0373M18.0657 45.2995H18.0373M18.0373 45.2995H18.0089M18.0373 45.2995H18.0089M18.0089 45.2995H17.9805M18.0089 45.2995H17.9805M17.9805 45.2995H17.9521M17.9805 45.2995H17.9521M17.9521 45.2995H17.9236M17.9521 45.2995H17.9236M17.9236 45.2995H17.8952M17.9236 45.2995H17.8952M17.8952 45.2995H17.8668M17.8952 45.2995H17.8668M17.8668 45.2995H17.8384M17.8668 45.2995H17.8384M17.8384 45.2995H17.81M17.8384 45.2995H17.81M17.81 45.2995H17.7816M17.81 45.2995H17.7816M17.7816 45.2995H17.7531M17.7816 45.2995H17.7531M17.7531 45.2995H17.7247M17.7531 45.2995H17.7247M17.7247 45.2995H17.6963M17.7247 45.2995H17.6963M17.6963 45.2995H17.6679M17.6963 45.2995H17.6679M17.6679 45.2995H17.6395M17.6679 45.2995H17.6395M17.6395 45.2995H17.611M17.6395 45.2995H17.611M17.611 45.2995H17.5826M17.611 45.2995H17.5826M17.5826 45.2995H17.5542M17.5826 45.2995H17.5542M17.5542 45.2995H17.5258M17.5542 45.2995H17.5258M17.5258 45.2995H17.4974M17.5258 45.2995H17.4974M17.4974 45.2995H17.4689M17.4974 45.2995H17.4689M17.4689 45.2995H17.4405M17.4689 45.2995H17.4405M17.4405 45.2995H17.4121M17.4405 45.2995H17.4121M17.4121 45.2995H17.3837M17.4121 45.2995H17.3837M17.3837 45.2995H17.3553M17.3837 45.2995H17.3553M17.3553 45.2995H17.3268M17.3553 45.2995H17.3268M17.3268 45.2995H17.2984M17.3268 45.2995H17.2984M17.2984 45.2995H17.27M17.2984 45.2995H17.27M17.27 45.2995H17.2416M17.27 45.2995H17.2416M17.2416 45.2995H17.2132M17.2416 45.2995H17.2132M17.2132 45.2995H17.1847M17.2132 45.2995H17.1847M17.1847 45.2995H17.1563M17.1847 45.2995H17.1563M17.1563 45.2995H17.1279M17.1563 45.2995H17.1279M17.1279 45.2995H17.0995M17.1279 45.2995H17.0995M17.0995 45.2995H17.0711M17.0995 45.2995H17.0711M17.0711 45.2995H17.0426M17.0711 45.2995H17.0426M17.0426 45.2995H17.0142M17.0426 45.2995H17.0142M17.0142 45.2995H16.9858M17.0142 45.2995H16.9858M16.9858 45.2995H16.9574M16.9858 45.2995H16.9574M16.9574 45.2995H16.929M16.9574 45.2995H16.929M16.929 45.2995H16.9005M16.929 45.2995H16.9005M16.9005 45.2995H16.8721M16.9005 45.2995H16.8721M16.8721 45.2995H16.8437M16.8721 45.2995H16.8437M16.8437 45.2995H16.8153M16.8437 45.2995H16.8153M16.8153 45.2995H16.7869M16.8153 45.2995H16.7869M16.7869 45.2995H16.7584M16.7869 45.2995H16.7584M16.7584 45.2995H16.73M16.7584 45.2995H16.73M16.73 45.2995H16.7016M16.73 45.2995H16.7016M16.7016 45.2995H16.6732M16.7016 45.2995H16.6732M16.6732 45.2995H16.6448M16.6732 45.2995H16.6448M16.6448 45.2995H16.6163M16.6448 45.2995H16.6163M16.6163 45.2995H16.5879M16.6163 45.2995H16.5879M16.5879 45.2995H16.5595M16.5879 45.2995H16.5595M16.5595 45.2995H16.5311M16.5595 45.2995H16.5311M16.5311 45.2995H16.5027M16.5311 45.2995H16.5027M16.5027 45.2995H16.4742M16.5027 45.2995H16.4742M16.4742 45.2995H16.4458M16.4742 45.2995H16.4458M16.4458 45.2995H16.4174M16.4458 45.2995H16.4174M16.4174 45.2995H16.389M16.4174 45.2995H16.389M16.389 45.2995H16.3606M16.389 45.2995H16.3606M16.3606 45.2995H16.3321M16.3606 45.2995H16.3321M16.3321 45.2995H16.3037M16.3321 45.2995H16.3037M16.3037 45.2995H16.2753M16.3037 45.2995H16.2753M16.2753 45.2995H16.2469M16.2753 45.2995H16.2469M16.2469 45.2995H16.2185M16.2469 45.2995H16.2185M16.2185 45.2995H16.1901M16.2185 45.2995H16.1901M16.1901 45.2995H16.1616M16.1901 45.2995H16.1616M16.1616 45.2995H16.1332M16.1616 45.2995H16.1332M16.1332 45.2995H16.1048M16.1332 45.2995H16.1048M16.1048 45.2995H16.0764M16.1048 45.2995H16.0764M16.0764 45.2995H16.048M16.0764 45.2995H16.048M16.048 45.2995H16.0195M16.048 45.2995H16.0195M16.0195 45.2995H15.9911M16.0195 45.2995H15.9911M15.9911 45.2995H15.9627M15.9911 45.2995H15.9627M15.9627 45.2995H15.9343M15.9627 45.2995H15.9343M15.9343 45.2995H15.9059M15.9343 45.2995H15.9059M15.9059 45.2995H15.8774M15.9059 45.2995H15.8774M15.8774 45.2995H15.849M15.8774 45.2995H15.849M15.849 45.2995H15.8206M15.849 45.2995H15.8206M15.8206 45.2995H15.7922M15.8206 45.2995H15.7922M15.7922 45.2995H15.7638M15.7922 45.2995H15.7638M15.7638 45.2995H15.7353M15.7638 45.2995H15.7353M15.7353 45.2995H15.7069M15.7353 45.2995H15.7069M15.7069 45.2995H15.6785M15.7069 45.2995H15.6785M15.6785 45.2995H15.6501M15.6785 45.2995H15.6501M15.6501 45.2995H15.6217M15.6501 45.2995H15.6217M15.6217 45.2995H15.5932M15.6217 45.2995H15.5932M15.5932 45.2995H15.5648M15.5932 45.2995H15.5648M15.5648 45.2995H15.5364M15.5648 45.2995H15.5364M15.5364 45.2995H15.508M15.5364 45.2995H15.508M15.508 45.2995H15.4796M15.508 45.2995H15.4796M15.4796 45.2995H15.4511M15.4796 45.2995H15.4511M15.4511 45.2995H15.4227M15.4511 45.2995H15.4227M15.4227 45.2995H15.3943M15.4227 45.2995H15.3943M15.3943 45.2995H15.3659M15.3943 45.2995H15.3659M15.3659 45.2995H15.3375M15.3659 45.2995H15.3375M15.3375 45.2995H15.309M15.3375 45.2995H15.309M15.309 45.2995H15.2806M15.309 45.2995H15.2806M15.2806 45.2995H15.2522M15.2806 45.2995H15.2522M15.2522 45.2995H15.2238M15.2522 45.2995H15.2238M15.2238 45.2995H15.1954M15.2238 45.2995H15.1954M15.1954 45.2995H15.1669M15.1954 45.2995H15.1669M15.1669 45.2995H15.1385M15.1669 45.2995H15.1385M15.1385 45.2995H15.1101M15.1385 45.2995H15.1101M15.1101 45.2995H15.0817M15.1101 45.2995H15.0817M15.0817 45.2995H15.0533M15.0817 45.2995H15.0533M15.0533 45.2995H15.0248M15.0533 45.2995H15.0248M15.0248 45.2995H14.9964M15.0248 45.2995H14.9964M14.9964 45.2995H14.968M14.9964 45.2995H14.968M14.968 45.2995H14.9396M14.968 45.2995H14.9396M14.9396 45.2995H14.9112M14.9396 45.2995H14.9112M14.9112 45.2995H14.8827M14.9112 45.2995H14.8827M14.8827 45.2995H14.8543M14.8827 45.2995H14.8543M14.8543 45.2995H14.8259M14.8543 45.2995H14.8259M14.8259 45.2995H14.7975M14.8259 45.2995H14.7975M14.7975 45.2995H14.7691M14.7975 45.2995H14.7691M14.7691 45.2995H14.7406M14.7691 45.2995H14.7406M14.7406 45.2995H14.7122M14.7406 45.2995H14.7122M14.7122 45.2995H14.6838M14.7122 45.2995H14.6838M14.6838 45.2995H14.6554M14.6838 45.2995H14.6554M14.6554 45.2995H14.627M14.6554 45.2995H14.627M14.627 45.2995H14.5985M14.627 45.2995H14.5985M14.5985 45.2995H14.5701M14.5985 45.2995H14.5701M14.5701 45.2995H14.5417M14.5701 45.2995H14.5417M14.5417 45.2995H14.5133M14.5417 45.2995H14.5133M14.5133 45.2995H14.4849M14.5133 45.2995H14.4849M14.4849 45.2995H14.4565M14.4849 45.2995H14.4565M14.4565 45.2995H14.428M14.4565 45.2995H14.428M14.428 45.2995H14.3996M14.428 45.2995H14.3996M14.3996 45.2995H14.3712M14.3996 45.2995H14.3712M14.3712 45.2995H14.3428M14.3712 45.2995H14.3428M14.3428 45.2995H14.3144M14.3428 45.2995H14.3144M14.3144 45.2995H14.2859M14.3144 45.2995H14.2859M14.2859 45.2995H14.2575M14.2859 45.2995H14.2575M14.2575 45.2995H14.2291M14.2575 45.2995H14.2291M14.2291 45.2995H14.2007M14.2291 45.2995H14.2007M14.2007 45.2995H14.1723M14.2007 45.2995H14.1723M14.1723 45.2995H14.1438M14.1723 45.2995H14.1438M14.1438 45.2995H14.1154M14.1438 45.2995H14.1154M14.1154 45.2995H14.087M14.1154 45.2995H14.087M14.087 45.2995H14.0586M14.087 45.2995H14.0586M14.0586 45.2995H14.0302M14.0586 45.2995H14.0302M14.0302 45.2995H14.0017M14.0302 45.2995H14.0017M14.0017 45.2995H13.9733M14.0017 45.2995H13.9733M13.9733 45.2995H13.9449M13.9733 45.2995H13.9449M13.9449 45.2995H13.9165M13.9449 45.2995H13.9165M13.9165 45.2995H13.8881M13.9165 45.2995H13.8881M13.8881 45.2995H13.8596M13.8881 45.2995H13.8596M13.8596 45.2995H13.8312M13.8596 45.2995H13.8312M13.8312 45.2995H13.8028M13.8312 45.2995H13.8028M13.8028 45.2995H13.7744M13.8028 45.2995H13.7744M13.7744 45.2995H13.746M13.7744 45.2995H13.746M13.746 45.2995H13.7175M13.746 45.2995H13.7175M13.7175 45.2995H13.6891M13.7175 45.2995H13.6891M13.6891 45.2995H13.6607M13.6891 45.2995H13.6607M13.6607 45.2995H13.6323M13.6607 45.2995H13.6323M13.6323 45.2995H13.6039M13.6323 45.2995H13.6039M13.6039 45.2995H13.5754M13.6039 45.2995H13.5754M13.5754 45.2995H13.547M13.5754 45.2995H13.547M13.547 45.2995H13.5186M13.547 45.2995H13.5186M13.5186 45.2995H13.4902M13.5186 45.2995H13.4902M13.4902 45.2995H13.4618M13.4902 45.2995H13.4618M13.4618 45.2995H13.4333M13.4618 45.2995H13.4333M13.4333 45.2995H13.4049M13.4333 45.2995H13.4049M13.4049 45.2995H13.3765M13.4049 45.2995H13.3765M13.3765 45.2995H13.3481M13.3765 45.2995H13.3481M13.3481 45.2995H13.3197M13.3481 45.2995H13.3197M13.3197 45.2995H13.2912M13.3197 45.2995H13.2912M13.2912 45.2995H13.2628M13.2912 45.2995H13.2628M13.2628 45.2995H13.2344M13.2628 45.2995H13.2344M13.2344 45.2995H13.206M13.2344 45.2995H13.206M13.206 45.2995H13.1776M13.206 45.2995H13.1776M13.1776 45.2995H13.1491M13.1776 45.2995H13.1491M13.1491 45.2995H13.1207M13.1491 45.2995H13.1207M13.1207 45.2995H13.0923M13.1207 45.2995H13.0923M13.0923 45.2995H13.0639M13.0923 45.2995H13.0639M13.0639 45.2995H13.0355M13.0639 45.2995H13.0355M13.0355 45.2995H13.007M13.0355 45.2995H13.007M13.007 45.2995H12.9786M13.007 45.2995H12.9786M12.9786 45.2995H12.9502M12.9786 45.2995H12.9502M12.9502 45.2995H12.9218M12.9502 45.2995H12.9218M12.9218 45.2995H12.8934M12.9218 45.2995H12.8934M12.8934 45.2995H12.865M12.8934 45.2995H12.865M12.865 45.2995H12.8365M12.865 45.2995H12.8365M12.8365 45.2995H12.8081M12.8365 45.2995H12.8081M12.8081 45.2995H12.7797M12.8081 45.2995H12.7797M12.7797 45.2995H12.7513M12.7797 45.2995H12.7513M12.7513 45.2995H12.7229M12.7513 45.2995H12.7229M12.7229 45.2995H12.6944M12.7229 45.2995H12.6944M12.6944 45.2995H12.666M12.6944 45.2995H12.666M12.666 45.2995H12.6376M12.666 45.2995H12.6376M12.6376 45.2995H12.6092M12.6376 45.2995H12.6092M12.6092 45.2995H12.5808M12.6092 45.2995H12.5808M12.5808 45.2995H12.5523M12.5808 45.2995H12.5523M12.5523 45.2995H12.5239M12.5523 45.2995H12.5239M12.5239 45.2995H12.4955M12.5239 45.2995H12.4955M12.4955 45.2995H12.4671M12.4955 45.2995H12.4671M12.4671 45.2995H12.4387M12.4671 45.2995H12.4387M12.4387 45.2995H12.4102M12.4387 45.2995H12.4102M12.4102 45.2995H12.3818M12.4102 45.2995H12.3818M12.3818 45.2995H12.3534M12.3818 45.2995H12.3534M12.3534 45.2995H12.325M12.3534 45.2995H12.325M12.325 45.2995H12.2966M12.325 45.2995H12.2966M12.2966 45.2995H12.2681M12.2966 45.2995H12.2681M12.2681 45.2995H12.2397M12.2681 45.2995H12.2397M12.2397 45.2995H12.2113M12.2397 45.2995H12.2113M12.2113 45.2995H12.1829M12.2113 45.2995H12.1829M12.1829 45.2995H12.1545M12.1829 45.2995H12.1545M12.1545 45.2995H12.126M12.1545 45.2995H12.126M12.126 45.2995H12.0976M12.126 45.2995H12.0976M12.0976 45.2995H12.0692M12.0976 45.2995H12.0692M12.0692 45.2995H12.0408M12.0692 45.2995H12.0408M12.0408 45.2995H12.0124M12.0408 45.2995H12.0124M12.0124 45.2995H11.9839M12.0124 45.2995H11.9839M11.9839 45.2995H11.9555M11.9839 45.2995H11.9555M11.9555 45.2995H11.9271M11.9555 45.2995H11.9271M11.9271 45.2995H11.8987M11.9271 45.2995H11.8987M11.8987 45.2995H11.8703M11.8987 45.2995H11.8703M11.8703 45.2995H11.8418M11.8703 45.2995H11.8418M11.8418 45.2995H11.8134M11.8418 45.2995H11.8134M11.8134 45.2995H11.785M11.8134 45.2995H11.785M11.785 45.2995H11.7566M11.785 45.2995H11.7566M11.7566 45.2995H11.7282M11.7566 45.2995H11.7282M11.7282 45.2995H11.6997M11.7282 45.2995H11.6997M11.6997 45.2995H11.6713M11.6997 45.2995H11.6713M11.6713 45.2995H11.6429M11.6713 45.2995H11.6429M11.6429 45.2995H11.6145M11.6429 45.2995H11.6145M11.6145 45.2995H11.5861M11.6145 45.2995H11.5861M11.5861 45.2995H11.5576M11.5861 45.2995H11.5576M11.5576 45.2995H11.5292M11.5576 45.2995H11.5292M11.5292 45.2995H11.5008M11.5292 45.2995H11.5008M11.5008 45.2995H11.4724M11.5008 45.2995H11.4724M11.4724 45.2995H11.444M11.4724 45.2995H11.444M11.444 45.2995H11.4155M11.444 45.2995H11.4155M11.4155 45.2995H11.3871M11.4155 45.2995H11.3871M11.3871 45.2995H11.3587M11.3871 45.2995H11.3587M11.3587 45.2995H11.3303M11.3587 45.2995H11.3303M11.3303 45.2995H11.3019M11.3303 45.2995H11.3019M11.3019 45.2995H11.2735M11.3019 45.2995H11.2735M11.2735 45.2995H11.245M11.2735 45.2995H11.245M11.245 45.2995H11.2166M11.245 45.2995H11.2166M11.2166 45.2995H11.1882M11.2166 45.2995H11.1882M11.1882 45.2995H11.1598M11.1882 45.2995H11.1598M11.1598 45.2995H11.1314M11.1598 45.2995H11.1314M11.1314 45.2995H11.1029M11.1314 45.2995H11.1029M11.1029 45.2995H11.0745M11.1029 45.2995H11.0745M11.0745 45.2995H11.0461M11.0745 45.2995H11.0461M11.0461 45.2995H11.0177M11.0461 45.2995H11.0177M11.0177 45.2995H10.9893M11.0177 45.2995H10.9893M10.9893 45.2995H10.9608M10.9893 45.2995H10.9608M10.9608 45.2995H10.9324M10.9608 45.2995H10.9324M10.9324 45.2995H10.904M10.9324 45.2995H10.904M10.904 45.2995H10.8756M10.904 45.2995H10.8756M10.8756 45.2995H10.8472M10.8756 45.2995H10.8472M10.8472 45.2995H10.8187M10.8472 45.2995H10.8187M10.8187 45.2995H10.7903M10.8187 45.2995H10.7903M10.7903 45.2995H10.7619M10.7903 45.2995H10.7619M10.7619 45.2995H10.7335M10.7619 45.2995H10.7335M10.7335 45.2995H10.7051M10.7335 45.2995H10.7051M10.7051 45.2995H10.6766M10.7051 45.2995H10.6766M10.6766 45.2995H10.6482M10.6766 45.2995H10.6482M10.6482 45.2995H10.6198M10.6482 45.2995H10.6198M10.6198 45.2995H10.5914M10.6198 45.2995H10.5914M10.5914 45.2995H10.563M10.5914 45.2995H10.563M10.563 45.2995H10.5345M10.563 45.2995H10.5345M10.5345 45.2995H10.5061M10.5345 45.2995H10.5061M10.5061 45.2995H10.4777M10.5061 45.2995H10.4777M10.4777 45.2995H10.4493M10.4777 45.2995H10.4493M10.4493 45.2995H10.4209M10.4493 45.2995H10.4209M10.4209 45.2995H10.3924M10.4209 45.2995H10.3924M10.3924 45.2995H10.364M10.3924 45.2995H10.364M10.364 45.2995H10.3356M10.364 45.2995H10.3356M10.3356 45.2995H10.3072M10.3356 45.2995H10.3072M10.3072 45.2995H10.2788M10.3072 45.2995H10.2788M10.2788 45.2995H10.2503M10.2788 45.2995H10.2503M10.2503 45.2995H10.2219M10.2503 45.2995H10.2219M10.2219 45.2995H10.1935M10.2219 45.2995H10.1935M10.1935 45.2995H10.1651M10.1935 45.2995H10.1651M10.1651 45.2995H10.1367M10.1651 45.2995H10.1367M10.1367 45.2995H10.1082M10.1367 45.2995H10.1082M10.1082 45.2995H10.0798M10.1082 45.2995H10.0798M10.0798 45.2995H10.0514M10.0798 45.2995H10.0514M10.0514 45.2995H10.023M10.0514 45.2995H10.023M10.023 45.2995H9.99457M10.023 45.2995H9.99457M9.99457 45.2995H9.96615M9.99457 45.2995H9.96615M9.96615 45.2995H9.93773M9.96615 45.2995H9.93773M9.93773 45.2995H9.90931M9.93773 45.2995H9.90931M9.90931 45.2995H9.88089M9.90931 45.2995H9.88089M9.88089 45.2995H9.85247M9.88089 45.2995H9.85247M9.85247 45.2995H9.82405M9.85247 45.2995H9.82405M9.82405 45.2995H9.79563M9.82405 45.2995H9.79563M9.79563 45.2995H9.76721M9.79563 45.2995H9.76721M9.76721 45.2995H9.73879M9.76721 45.2995H9.73879M9.73879 45.2995H9.71037M9.73879 45.2995H9.71037M9.71037 45.2995H9.68195M9.71037 45.2995H9.68195M9.68195 45.2995H9.65353M9.68195 45.2995H9.65353M9.65353 45.2995H9.62511M9.65353 45.2995H9.62511M9.62511 45.2995H9.59669M9.62511 45.2995H9.59669M9.59669 45.2995H9.56827M9.59669 45.2995H9.56827M9.56827 45.2995H9.53985M9.56827 45.2995H9.53985M9.53985 45.2995H9.51143M9.53985 45.2995H9.51143M9.51143 45.2995H9.48301M9.51143 45.2995H9.48301M9.48301 45.2995H9.45459M9.48301 45.2995H9.45459M9.45459 45.2995H9.42617M9.45459 45.2995H9.42617M9.42617 45.2995H9.39775M9.42617 45.2995H9.39775M9.39775 45.2995H9.36933M9.39775 45.2995H9.36933M9.36933 45.2995H9.34091M9.36933 45.2995H9.34091M9.34091 45.2995H9.3125M9.34091 45.2995H9.3125M9.3125 45.2995H9.28407M9.3125 45.2995H9.28407M9.28407 45.2995H9.25566M9.28407 45.2995H9.25566M9.25566 45.2995H9.22724M9.25566 45.2995H9.22724M9.22724 45.2995H9.19882M9.22724 45.2995H9.19882M9.19882 45.2995H9.1704M9.19882 45.2995H9.1704M9.1704 45.2995H9.14198M9.1704 45.2995H9.14198M9.14198 45.2995H9.11356M9.14198 45.2995H9.11356M9.11356 45.2995H9.08514M9.11356 45.2995H9.08514M9.08514 45.2995H9.05672M9.08514 45.2995H9.05672M9.05672 45.2995H9.0283M9.05672 45.2995H9.0283M9.0283 45.2995H8.99988M9.0283 45.2995H8.99988M8.99988 45.2995H8.97146M8.99988 45.2995H8.97146M8.97146 45.2995H8.94304M8.97146 45.2995H8.94304M8.94304 45.2995H8.91462M8.94304 45.2995H8.91462M8.91462 45.2995H8.8862M8.91462 45.2995H8.8862M8.8862 45.2995H8.85778M8.8862 45.2995H8.85778M8.85778 45.2995H8.82936M8.85778 45.2995H8.82936M8.82936 45.2995H8.80094M8.82936 45.2995H8.80094M8.80094 45.2995H8.77252M8.80094 45.2995H8.77252M8.77252 45.2995H8.7441M8.77252 45.2995H8.7441M8.7441 45.2995H8.71568M8.7441 45.2995H8.71568M8.71568 45.2995H8.68726M8.71568 45.2995H8.68726M8.68726 45.2995H8.65884M8.68726 45.2995H8.65884M8.65884 45.2995H8.63042M8.65884 45.2995H8.63042M8.63042 45.2995H8.602M8.63042 45.2995H8.602M8.602 45.2995H8.57358M8.602 45.2995H8.57358M8.57358 45.2995H8.54516M8.57358 45.2995H8.54516M8.54516 45.2995H8.51674M8.54516 45.2995H8.51674M8.51674 45.2995H8.48833M8.51674 45.2995H8.48833M8.48833 45.2995H8.45991M8.48833 45.2995H8.45991M8.45991 45.2995H8.43149M8.45991 45.2995H8.43149M8.43149 45.2995H8.40307M8.43149 45.2995H8.40307M8.40307 45.2995H8.37465M8.40307 45.2995H8.37465M8.37465 45.2995H8.34623M8.37465 45.2995H8.34623M8.34623 45.2995H8.31781M8.34623 45.2995H8.31781M8.31781 45.2995H8.28939M8.31781 45.2995H8.28939M8.28939 45.2995H8.26097M8.28939 45.2995H8.26097M8.26097 45.2995H8.23255M8.26097 45.2995H8.23255M8.23255 45.2995H8.20413M8.23255 45.2995H8.20413M8.20413 45.2995H8.17571M8.20413 45.2995H8.17571M8.17571 45.2995H8.14729M8.17571 45.2995H8.14729M8.14729 45.2995H8.11887M8.14729 45.2995H8.11887M8.11887 45.2995H8.09045M8.11887 45.2995H8.09045M8.09045 45.2995H8.06203M8.09045 45.2995H8.06203M8.06203 45.2995H8.03361M8.06203 45.2995H8.03361M8.03361 45.2995H8.00519M8.03361 45.2995H8.00519M8.00519 45.2995H7.97677M8.00519 45.2995H7.97677M7.97677 45.2995H7.94835M7.97677 45.2995H7.94835M7.94835 45.2995H7.91993M7.94835 45.2995H7.91993M7.91993 45.2995H7.89151M7.91993 45.2995H7.89151M7.89151 45.2995H7.86309M7.89151 45.2995H7.86309M7.86309 45.2995H7.83467M7.86309 45.2995H7.83467M7.83467 45.2995H7.80625M7.83467 45.2995H7.80625M7.80625 45.2995H7.77783M7.80625 45.2995H7.77783M7.77783 45.2995H7.74941M7.77783 45.2995H7.74941M7.74941 45.2995H7.72099M7.74941 45.2995H7.72099M7.72099 45.2995H7.69257M7.72099 45.2995H7.69257M7.69257 45.2995H7.66416M7.69257 45.2995H7.66416M7.66416 45.2995H7.63574M7.66416 45.2995H7.63574M7.63574 45.2995H7.60732M7.63574 45.2995H7.60732M7.60732 45.2995H7.5789M7.60732 45.2995H7.5789M7.5789 45.2995H7.55048M7.5789 45.2995H7.55048M7.55048 45.2995H7.52206M7.55048 45.2995H7.52206M7.52206 45.2995H7.49364M7.52206 45.2995H7.49364M7.49364 45.2995H7.46522M7.49364 45.2995H7.46522M7.46522 45.2995H7.4368M7.46522 45.2995H7.4368M7.4368 45.2995H7.40838M7.4368 45.2995H7.40838M7.40838 45.2995H7.37996M7.40838 45.2995H7.37996M7.37996 45.2995H7.35154M7.37996 45.2995H7.35154M7.35154 45.2995H7.32312M7.35154 45.2995H7.32312M7.32312 45.2995H7.2947M7.32312 45.2995H7.2947M7.2947 45.2995H7.26628M7.2947 45.2995H7.26628M7.26628 45.2995H7.23786M7.26628 45.2995H7.23786M7.23786 45.2995H7.20944M7.23786 45.2995H7.20944M7.20944 45.2995H7.18102M7.20944 45.2995H7.18102M7.18102 45.2995H7.1526M7.18102 45.2995H7.1526M7.1526 45.2995H7.12418M7.1526 45.2995H7.12418M7.12418 45.2995H7.09576M7.12418 45.2995H7.09576M7.09576 45.2995H7.06734M7.09576 45.2995H7.06734M7.06734 45.2995H7.03892M7.06734 45.2995H7.03892M7.03892 45.2995H7.0105M7.03892 45.2995H7.0105M7.0105 45.2995H6.98208M7.0105 45.2995H6.98208M6.98208 45.2995H6.95366M6.98208 45.2995H6.95366M6.95366 45.2995H6.92524M6.95366 45.2995H6.92524M6.92524 45.2995H6.89682M6.92524 45.2995H6.89682M6.89682 45.2995H6.8684M6.89682 45.2995H6.8684M6.8684 45.2995H6.83999M6.8684 45.2995H6.83999M6.83999 45.2995H6.81157M6.83999 45.2995H6.81157M6.81157 45.2995H6.78315M6.81157 45.2995H6.78315M6.78315 45.2995H6.75473M6.78315 45.2995H6.75473M6.75473 45.2995H6.72631M6.75473 45.2995H6.72631M6.72631 45.2995H6.69789M6.72631 45.2995H6.69789M6.69789 45.2995H6.66947M6.69789 45.2995H6.66947M6.66947 45.2995H6.64105M6.66947 45.2995H6.64105M6.64105 45.2995H6.61263M6.64105 45.2995H6.61263M6.61263 45.2995H6.58421M6.61263 45.2995H6.58421M6.58421 45.2995H6.55579M6.58421 45.2995H6.55579M6.55579 45.2995H6.52737M6.55579 45.2995H6.52737M6.52737 45.2995H6.49895M6.52737 45.2995H6.49895M6.49895 45.2995H6.47053M6.49895 45.2995H6.47053M6.47053 45.2995H6.44211M6.47053 45.2995H6.44211M6.44211 45.2995H6.41369M6.44211 45.2995H6.41369M6.41369 45.2995H6.38527M6.41369 45.2995H6.38527M6.38527 45.2995H6.35685M6.38527 45.2995H6.35685M6.35685 45.2995H6.32843M6.35685 45.2995H6.32843M6.32843 45.2995H6.30001M6.32843 45.2995H6.30001M6.30001 45.2995H6.27159M6.30001 45.2995H6.27159M6.27159 45.2995H6.24317M6.27159 45.2995H6.24317M6.24317 45.2995H6.21475M6.24317 45.2995H6.21475M6.21475 45.2995H6.18633M6.21475 45.2995H6.18633M6.18633 45.2995H6.15791M6.18633 45.2995H6.15791M6.15791 45.2995H6.12949M6.15791 45.2995H6.12949M6.12949 45.2995H6.10107M6.12949 45.2995H6.10107M6.10107 45.2995H6.07265M6.10107 45.2995H6.07265M6.07265 45.2995H6.04423M6.07265 45.2995H6.04423M6.04423 45.2995H6.01582M6.04423 45.2995H6.01582M6.01582 45.2995H5.9874M6.01582 45.2995H5.9874M5.9874 45.2995H5.95898M5.9874 45.2995H5.95898M5.95898 45.2995H5.93056M5.95898 45.2995H5.93056M5.93056 45.2995H5.90214M5.93056 45.2995H5.90214M5.90214 45.2995H5.87372M5.90214 45.2995H5.87372M5.87372 45.2995H5.8453M5.87372 45.2995H5.8453M5.8453 45.2995H5.81688M5.8453 45.2995H5.81688M5.81688 45.2995H5.78846M5.81688 45.2995H5.78846M5.78846 45.2995H5.76004M5.78846 45.2995H5.76004M5.76004 45.2995H5.73162M5.76004 45.2995H5.73162M5.73162 45.2995H5.7032M5.73162 45.2995H5.7032M5.7032 45.2995H5.67478M5.7032 45.2995H5.67478M5.67478 45.2995H5.64636M5.67478 45.2995H5.64636M5.64636 45.2995H5.61794M5.64636 45.2995H5.61794M5.61794 45.2995H5.58952M5.61794 45.2995H5.58952M5.58952 45.2995H5.5611M5.58952 45.2995H5.5611M5.5611 45.2995H5.53268M5.5611 45.2995H5.53268M5.53268 45.2995H5.50426M5.53268 45.2995H5.50426M5.50426 45.2995H5.47584M5.50426 45.2995H5.47584M5.47584 45.2995H5.44742M5.47584 45.2995H5.44742M5.44742 45.2995H5.419M5.44742 45.2995H5.419M5.419 45.2995H5.39058M5.419 45.2995H5.39058M5.39058 45.2995H5.36216M5.39058 45.2995H5.36216M5.36216 45.2995H5.33374M5.36216 45.2995H5.33374M5.33374 45.2995H5.30532M5.33374 45.2995H5.30532M5.30532 45.2995H5.2769M5.30532 45.2995H5.2769M5.2769 45.2995H5.24848M5.2769 45.2995H5.24848M5.24848 45.2995H5.22007M5.24848 45.2995H5.22007M5.22007 45.2995H5.19165M5.22007 45.2995H5.19165M5.19165 45.2995H5.16323M5.19165 45.2995H5.16323M5.16323 45.2995H5.13481M5.16323 45.2995H5.13481M5.13481 45.2995H5.10639M5.13481 45.2995H5.10639M5.10639 45.2995H5.07797M5.10639 45.2995H5.07797M5.07797 45.2995H5.04955M5.07797 45.2995H5.04955M5.04955 45.2995H5.02113M5.04955 45.2995H5.02113M5.02113 45.2995H4.99271M5.02113 45.2995H4.99271M4.99271 45.2995H4.96429M4.99271 45.2995H4.96429M4.96429 45.2995H4.93587M4.96429 45.2995H4.93587M4.93587 45.2995H4.90745M4.93587 45.2995H4.90745M4.90745 45.2995H4.87903M4.90745 45.2995H4.87903M4.87903 45.2995H4.85061M4.87903 45.2995H4.85061M4.85061 45.2995H4.82219M4.85061 45.2995H4.82219M4.82219 45.2995H4.79377M4.82219 45.2995H4.79377M4.79377 45.2995H4.76535M4.79377 45.2995H4.76535M4.76535 45.2995H4.73693M4.76535 45.2995H4.73693M4.73693 45.2995H4.70851M4.73693 45.2995H4.70851M4.70851 45.2995H4.68009M4.70851 45.2995H4.68009M4.68009 45.2995H4.65167M4.68009 45.2995H4.65167M4.65167 45.2995H4.62325M4.65167 45.2995H4.62325M4.62325 45.2995C3.37327 45.2995 2.81747 44.9936 2.55984 44.7378M4.62325 45.2995L2.55984 44.7378M2.55984 44.7378C2.30489 44.4846 2 43.9409 2 42.7089M2.55984 44.7378L2 42.7089M2 42.7089V42.6345M2 42.7089V42.6345M2 42.6345V42.56M2 42.6345V42.56M2 42.56V42.4856M2 42.56V42.4856M2 42.4856V42.4111M2 42.4856V42.4111M2 42.4111V42.3367M2 42.4111V42.3367M2 42.3367V42.2622M2 42.3367V42.2622M2 42.2622V42.1878M2 42.2622V42.1878M2 42.1878V42.1133M2 42.1878V42.1133M2 42.1133V42.0389M2 42.1133V42.0389M2 42.0389V41.9645M2 42.0389V41.9645M2 41.9645V41.89M2 41.9645V41.89M2 41.89V41.8156M2 41.89V41.8156M2 41.8156V41.7411M2 41.8156V41.7411M2 41.7411V41.6667M2 41.7411V41.6667M2 41.6667V41.5922M2 41.6667V41.5922M2 41.5922V41.5178M2 41.5922V41.5178M2 41.5178V41.4433M2 41.5178V41.4433M2 41.4433V41.3689M2 41.4433V41.3689M2 41.3689V41.2945M2 41.3689V41.2945M2 41.2945V41.22M2 41.2945V41.22M2 41.22V41.1456M2 41.22V41.1456M2 41.1456V41.0711M2 41.1456V41.0711M2 41.0711V40.9967M2 41.0711V40.9967M2 40.9967V40.9223M2 40.9967V40.9223M2 40.9223V40.8478M2 40.9223V40.8478M2 40.8478V40.7734M2 40.8478V40.7734M2 40.7734V40.6989M2 40.7734V40.6989M2 40.6989V40.6245M2 40.6989V40.6245M2 40.6245V40.5501M2 40.6245V40.5501M2 40.5501V40.4756M2 40.5501V40.4756M2 40.4756V40.4012M2 40.4756V40.4012M2 40.4012V40.3268M2 40.4012V40.3268M2 40.3268V40.2523M2 40.3268V40.2523M2 40.2523V40.1779M2 40.2523V40.1779M2 40.1779V40.1035M2 40.1779V40.1035M2 40.1035V40.029M2 40.1035V40.029M2 40.029V39.9546M2 40.029V39.9546M2 39.9546V39.8802M2 39.9546V39.8802M2 39.8802V39.8057M2 39.8802V39.8057M2 39.8057V39.7313M2 39.8057V39.7313M2 39.7313V39.6569M2 39.7313V39.6569M2 39.6569V39.5824M2 39.6569V39.5824M2 39.5824V39.508M2 39.5824V39.508M2 39.508V39.4336M2 39.508V39.4336M2 39.4336V39.3591M2 39.4336V39.3591M2 39.3591V39.2847M2 39.3591V39.2847M2 39.2847V39.2103M2 39.2847V39.2103M2 39.2103V39.1358M2 39.2103V39.1358M2 39.1358V39.0614M2 39.1358V39.0614M2 39.0614V38.987M2 39.0614V38.987M2 38.987V38.9126M2 38.987V38.9126M2 38.9126V38.8381M2 38.9126V38.8381M2 38.8381V38.7637M2 38.8381V38.7637M2 38.7637V38.6893M2 38.7637V38.6893M2 38.6893V38.6148M2 38.6893V38.6148M2 38.6148V38.5404M2 38.6148V38.5404M2 38.5404V38.466M2 38.5404V38.466M2 38.466V38.3916M2 38.466V38.3916M2 38.3916V38.3171M2 38.3916V38.3171M2 38.3171V38.2427M2 38.3171V38.2427M2 38.2427V38.1683M2 38.2427V38.1683M2 38.1683V38.0939M2 38.1683V38.0939M2 38.0939V38.0194M2 38.0939V38.0194M2 38.0194V37.945M2 38.0194V37.945M2 37.945V37.8706M2 37.945V37.8706M2 37.8706V37.7962M2 37.8706V37.7962M2 37.7962V37.7218M2 37.7962V37.7218M2 37.7218V37.6473M2 37.7218V37.6473M2 37.6473V37.5729M2 37.6473V37.5729M2 37.5729V37.4985M2 37.5729V37.4985M2 37.4985V37.4241M2 37.4985V37.4241M2 37.4241V37.3496M2 37.4241V37.3496M2 37.3496V37.2752M2 37.3496V37.2752M2 37.2752V37.2008M2 37.2752V37.2008M2 37.2008V37.1264M2 37.2008V37.1264M2 37.1264V37.052M2 37.1264V37.052M2 37.052V36.9775M2 37.052V36.9775M2 36.9775V36.9031M2 36.9775V36.9031M2 36.9031V36.8287M2 36.9031V36.8287M2 36.8287V36.7543M2 36.8287V36.7543M2 36.7543V36.6799M2 36.7543V36.6799M2 36.6799V36.6054M2 36.6799V36.6054M2 36.6054V36.531M2 36.6054V36.531M2 36.531V36.4566M2 36.531V36.4566M2 36.4566V36.3822M2 36.4566V36.3822M2 36.3822V36.3078M2 36.3822V36.3078M2 36.3078V36.2334M2 36.3078V36.2334M2 36.2334V36.159M2 36.2334V36.159M2 36.159V36.0845M2 36.159V36.0845M2 36.0845V36.0101M2 36.0845V36.0101M2 36.0101V35.9357M2 36.0101V35.9357M2 35.9357V35.8613M2 35.9357V35.8613M2 35.8613V35.7869M2 35.8613V35.7869M2 35.7869V35.7125M2 35.7869V35.7125M2 35.7125V35.6381M2 35.7125V35.6381M2 35.6381V35.5636M2 35.6381V35.5636M2 35.5636V35.4892M2 35.5636V35.4892M2 35.4892V35.4148M2 35.4892V35.4148M2 35.4148V35.3404M2 35.4148V35.3404M2 35.3404V35.266M2 35.3404V35.266M2 35.266V35.1916M2 35.266V35.1916M2 35.1916V35.1172M2 35.1916V35.1172M2 35.1172V35.0428M2 35.1172V35.0428M2 35.0428V34.9683M2 35.0428V34.9683M2 34.9683V34.8939M2 34.9683V34.8939M2 34.8939V34.8195M2 34.8939V34.8195M2 34.8195V34.7451M2 34.8195V34.7451M2 34.7451V34.6707M2 34.7451V34.6707M2 34.6707V34.5963M2 34.6707V34.5963M2 34.5963V34.5219M2 34.5963V34.5219M2 34.5219V34.4475M2 34.5219V34.4475M2 34.4475V34.3731M2 34.4475V34.3731M2 34.3731V34.2987M2 34.3731V34.2987M2 34.2987V34.2242M2 34.2987V34.2242M2 34.2242V34.1498M2 34.2242V34.1498M2 34.1498V34.0754M2 34.1498V34.0754M2 34.0754V34.001M2 34.0754V34.001M2 34.001V33.9266M2 34.001V33.9266M2 33.9266V33.8522M2 33.9266V33.8522M2 33.8522V33.7778M2 33.8522V33.7778M2 33.7778V33.7034M2 33.7778V33.7034M2 33.7034V33.629M2 33.7034V33.629M2 33.629V33.5546M2 33.629V33.5546M2 33.5546V33.4802M2 33.5546V33.4802M2 33.4802V33.4058M2 33.4802V33.4058M2 33.4058V33.3314M2 33.4058V33.3314M2 33.3314V33.257M2 33.3314V33.257M2 33.257V33.1826M2 33.257V33.1826M2 33.1826V33.1081M2 33.1826V33.1081M2 33.1081V33.0337M2 33.1081V33.0337M2 33.0337V32.9593M2 33.0337V32.9593M2 32.9593V32.8849M2 32.9593V32.8849M2 32.8849V32.8105M2 32.8849V32.8105M2 32.8105V32.7361M2 32.8105V32.7361M2 32.7361V32.6617M2 32.7361V32.6617M2 32.6617V32.5873M2 32.6617V32.5873M2 32.5873V32.5129M2 32.5873V32.5129M2 32.5129V32.4385M2 32.5129V32.4385M2 32.4385V32.3641M2 32.4385V32.3641M2 32.3641V32.2897M2 32.3641V32.2897M2 32.2897V32.2153M2 32.2897V32.2153M2 32.2153V32.1409M2 32.2153V32.1409M2 32.1409V32.0665M2 32.1409V32.0665M2 32.0665V31.9921M2 32.0665V31.9921M2 31.9921V31.9177M2 31.9921V31.9177M2 31.9177V31.8433M2 31.9177V31.8433M2 31.8433V31.7689M2 31.8433V31.7689M2 31.7689V31.6945M2 31.7689V31.6945M2 31.6945V31.6201M2 31.6945V31.6201M2 31.6201V31.5457M2 31.6201V31.5457M2 31.5457V31.4713M2 31.5457V31.4713M2 31.4713V31.3969M2 31.4713V31.3969M2 31.3969V31.3225M2 31.3969V31.3225M2 31.3225V31.2481M2 31.3225V31.2481M2 31.2481V31.1737M2 31.2481V31.1737M2 31.1737V31.0993M2 31.1737V31.0993M2 31.0993V31.0249M2 31.0993V31.0249M2 31.0249V30.9505M2 31.0249V30.9505M2 30.9505V30.8761M2 30.9505V30.8761M2 30.8761V30.8017M2 30.8761V30.8017M2 30.8017V30.7273M2 30.8017V30.7273M2 30.7273V30.6529M2 30.7273V30.6529M2 30.6529V30.5785M2 30.6529V30.5785M2 30.5785V30.5041M2 30.5785V30.5041M2 30.5041V30.4297M2 30.5041V30.4297M2 30.4297V30.3553M2 30.4297V30.3553M2 30.3553V30.2809M2 30.3553V30.2809M2 30.2809V30.2065M2 30.2809V30.2065M2 30.2065V30.1321M2 30.2065V30.1321M2 30.1321V30.0577M2 30.1321V30.0577M2 30.0577V29.9833M2 30.0577V29.9833M2 29.9833V29.9089M2 29.9833V29.9089M2 29.9089V29.8345M2 29.9089V29.8345M2 29.8345V29.7602M2 29.8345V29.7602M2 29.7602V29.6858M2 29.7602V29.6858M2 29.6858V29.6114M2 29.6858V29.6114M2 29.6114V29.537M2 29.6114V29.537M2 29.537V29.4626M2 29.537V29.4626M2 29.4626V29.3882M2 29.4626V29.3882M2 29.3882V29.3138M2 29.3882V29.3138M2 29.3138V29.2394M2 29.3138V29.2394M2 29.2394V29.165M2 29.2394V29.165M2 29.165V29.0906M2 29.165V29.0906M2 29.0906V29.0162M2 29.0906V29.0162M2 29.0162V28.9418M2 29.0162V28.9418M2 28.9418V28.8674M2 28.9418V28.8674M2 28.8674V28.793M2 28.8674V28.793M2 28.793V28.7186M2 28.793V28.7186M2 28.7186V28.6442M2 28.7186V28.6442M2 28.6442V28.5698M2 28.6442V28.5698M2 28.5698V28.4954M2 28.5698V28.4954M2 28.4954V28.421M2 28.4954V28.421M2 28.421V28.3467M2 28.421V28.3467M2 28.3467V28.2723M2 28.3467V28.2723M2 28.2723V28.1979M2 28.2723V28.1979M2 28.1979V28.1235M2 28.1979V28.1235M2 28.1235V28.0491M2 28.1235V28.0491M2 28.0491V27.9747M2 28.0491V27.9747M2 27.9747V27.9003M2 27.9747V27.9003M2 27.9003V27.8259M2 27.9003V27.8259M2 27.8259V27.7515M2 27.8259V27.7515M2 27.7515V27.6771M2 27.7515V27.6771M2 27.6771V27.6027M2 27.6771V27.6027M2 27.6027V27.5283M2 27.6027V27.5283M2 27.5283V27.4539M2 27.5283V27.4539M2 27.4539V27.3795M2 27.4539V27.3795M2 27.3795V27.3052M2 27.3795V27.3052M2 27.3052V27.2308M2 27.3052V27.2308M2 27.2308V27.1564M2 27.2308V27.1564M2 27.1564V27.082M2 27.1564V27.082M2 27.082V27.0076M2 27.082V27.0076M2 27.0076V26.9332M2 27.0076V26.9332M2 26.9332V26.8588M2 26.9332V26.8588M2 26.8588V26.7844M2 26.8588V26.7844M2 26.7844V26.71M2 26.7844V26.71M2 26.71V26.6356M2 26.71V26.6356M2 26.6356V26.5612M2 26.6356V26.5612M2 26.5612V26.4868M2 26.5612V26.4868M2 26.4868V26.4125M2 26.4868V26.4125M2 26.4125V26.3381M2 26.4125V26.3381M2 26.3381V26.2637M2 26.3381V26.2637M2 26.2637V26.1893M2 26.2637V26.1893M2 26.1893V26.1149M2 26.1893V26.1149M2 26.1149V26.0405M2 26.1149V26.0405M2 26.0405V25.9661M2 26.0405V25.9661M2 25.9661V25.8917M2 25.9661V25.8917M2 25.8917V25.8173M2 25.8917V25.8173M2 25.8173V25.7429M2 25.8173V25.7429M2 25.7429V25.6686M2 25.7429V25.6686M2 25.6686V25.5942M2 25.6686V25.5942M2 25.5942V25.5198M2 25.5942V25.5198M2 25.5198V25.4454M2 25.5198V25.4454M2 25.4454V25.371M2 25.4454V25.371M2 25.371V25.2966M2 25.371V25.2966M2 25.2966V25.2222M2 25.2966V25.2222M2 25.2222V25.1478M2 25.2222V25.1478M2 25.1478V25.0734M2 25.1478V25.0734M2 25.0734V24.999M2 25.0734V24.999M2 24.999V24.9246M2 24.999V24.9246M2 24.9246V24.8503M2 24.9246V24.8503M2 24.8503V24.7759M2 24.8503V24.7759M2 24.7759V24.7015M2 24.7759V24.7015M2 24.7015V24.6271M2 24.7015V24.6271M2 24.6271V24.5527M2 24.6271V24.5527M2 24.5527V24.4783M2 24.5527V24.4783M2 24.4783V24.4039M2 24.4783V24.4039M2 24.4039V24.3295M2 24.4039V24.3295M2 24.3295V24.2551M2 24.3295V24.2551M2 24.2551V24.1807M2 24.2551V24.1807M2 24.1807V24.1064M2 24.1807V24.1064M2 24.1064V24.032M2 24.1064V24.032M2 24.032V23.9576M2 24.032V23.9576M2 23.9576V23.8832M2 23.9576V23.8832M2 23.8832V23.8088M2 23.8832V23.8088M2 23.8088V23.7344M2 23.8088V23.7344M2 23.7344V23.66M2 23.7344V23.66M2 23.66V23.5856M2 23.66V23.5856M2 23.5856V23.5112M2 23.5856V23.5112M2 23.5112V23.4369M2 23.5112V23.4369M2 23.4369V23.3625M2 23.4369V23.3625M2 23.3625V23.2881M2 23.3625V23.2881M2 23.2881V23.2137M2 23.2881V23.2137M2 23.2137V23.1393M2 23.2137V23.1393M2 23.1393V23.0649M2 23.1393V23.0649M2 23.0649V22.9905M2 23.0649V22.9905M2 22.9905V22.9161M2 22.9905V22.9161M2 22.9161V22.8417M2 22.9161V22.8417M2 22.8417V22.7673M2 22.8417V22.7673M2 22.7673V22.693M2 22.7673V22.693M2 22.693V22.6186M2 22.693V22.6186M2 22.6186V22.5442M2 22.6186V22.5442M2 22.5442V22.4698M2 22.5442V22.4698M2 22.4698V22.3954M2 22.4698V22.3954M2 22.3954V22.321M2 22.3954V22.321M2 22.321V22.2466M2 22.321V22.2466M2 22.2466V22.1722M2 22.2466V22.1722M2 22.1722V22.0978M2 22.1722V22.0978M2 22.0978V22.0234M2 22.0978V22.0234M2 22.0234V21.9491M2 22.0234V21.9491M2 21.9491V21.8747M2 21.9491V21.8747M2 21.8747V21.8003M2 21.8747V21.8003M2 21.8003V21.7259M2 21.8003V21.7259M2 21.7259V21.6515M2 21.7259V21.6515M2 21.6515V21.5771M2 21.6515V21.5771M2 21.5771V21.5027M2 21.5771V21.5027M2 21.5027V21.4283M2 21.5027V21.4283M2 21.4283V21.3539M2 21.4283V21.3539M2 21.3539V21.2795M2 21.3539V21.2795M2 21.2795V21.2051M2 21.2795V21.2051M2 21.2051V21.1308M2 21.2051V21.1308M2 21.1308V21.0564M2 21.1308V21.0564M2 21.0564V20.982M2 21.0564V20.982M2 20.982V20.9076M2 20.982V20.9076M2 20.9076V20.8332M2 20.9076V20.8332M2 20.8332V20.7588M2 20.8332V20.7588M2 20.7588V20.6844M2 20.7588V20.6844M2 20.6844V20.61M2 20.6844V20.61M2 20.61V20.5356M2 20.61V20.5356M2 20.5356V20.4612M2 20.5356V20.4612M2 20.4612V20.3868M2 20.4612V20.3868M2 20.3868V20.3125M2 20.3868V20.3125M2 20.3125V20.2381M2 20.3125V20.2381M2 20.2381V20.1637M2 20.2381V20.1637M2 20.1637V20.0893M2 20.1637V20.0893M2 20.0893V20.0149M2 20.0893V20.0149M2 20.0149V19.9405M2 20.0149V19.9405M2 19.9405V19.8661M2 19.9405V19.8661M2 19.8661V19.7917M2 19.8661V19.7917M2 19.7917V19.7173M2 19.7917V19.7173M2 19.7173V19.6429M2 19.7173V19.6429M2 19.6429V19.5685M2 19.6429V19.5685M2 19.5685V19.4941M2 19.5685V19.4941M2 19.4941V19.4197M2 19.4941V19.4197M2 19.4197V19.3454M2 19.4197V19.3454M2 19.3454V19.271M2 19.3454V19.271M2 19.271V19.1966M2 19.271V19.1966M2 19.1966V19.1222M2 19.1966V19.1222M2 19.1222V19.0478M2 19.1222V19.0478M2 19.0478V18.9734M2 19.0478V18.9734M2 18.9734V18.899M2 18.9734V18.899M2 18.899V18.8246M2 18.899V18.8246M2 18.8246V18.7502M2 18.8246V18.7502M2 18.7502V18.6758M2 18.7502V18.6758M2 18.6758V18.6014M2 18.6758V18.6014M2 18.6014V18.527M2 18.6014V18.527M2 18.527V18.4526M2 18.527V18.4526M2 18.4526V18.3782M2 18.4526V18.3782M2 18.3782V18.3038M2 18.3782V18.3038M2 18.3038V18.2294M2 18.3038V18.2294M2 18.2294V18.1551M2 18.2294V18.1551M2 18.1551V18.0807M2 18.1551V18.0807M2 18.0807V18.0063M2 18.0807V18.0063M2 18.0063V17.9319M2 18.0063V17.9319M2 17.9319V17.8575M2 17.9319V17.8575M2 17.8575V17.7831M2 17.8575V17.7831M2 17.7831V17.7087M2 17.7831V17.7087M2 17.7087V17.6343M2 17.7087V17.6343M2 17.6343V17.5599M2 17.6343V17.5599M2 17.5599V17.4855M2 17.5599V17.4855M2 17.4855V17.4111M2 17.4855V17.4111M2 17.4111V17.3367M2 17.4111V17.3367M2 17.3367V17.2623M2 17.3367V17.2623M2 17.2623V17.1879M2 17.2623V17.1879M2 17.1879V17.1135M2 17.1879V17.1135M2 17.1135V17.0391M2 17.1135V17.0391M2 17.0391V16.9647M2 17.0391V16.9647M2 16.9647V16.8903M2 16.9647V16.8903M2 16.8903V16.8159M2 16.8903V16.8159M2 16.8159V16.7415M2 16.8159V16.7415M2 16.7415V16.6671M2 16.7415V16.6671M2 16.6671V16.5927M2 16.6671V16.5927M2 16.5927V16.5183M2 16.5927V16.5183M2 16.5183V16.4439M2 16.5183V16.4439M2 16.4439V16.3695M2 16.4439V16.3695M2 16.3695V16.2951M2 16.3695V16.2951M2 16.2951V16.2207M2 16.2951V16.2207M2 16.2207V16.1463M2 16.2207V16.1463M2 16.1463V16.0719M2 16.1463V16.0719M2 16.0719V15.9975M2 16.0719V15.9975M2 15.9975V15.9231M2 15.9975V15.9231M2 15.9231V15.8487M2 15.9231V15.8487M2 15.8487V15.7743M2 15.8487V15.7743M2 15.7743V15.6999M2 15.7743V15.6999M2 15.6999V15.6255M2 15.6999V15.6255M2 15.6255V15.5511M2 15.6255V15.5511M2 15.5511V15.4767M2 15.5511V15.4767M2 15.4767V15.4023M2 15.4767V15.4023M2 15.4023V15.3279M2 15.4023V15.3279M2 15.3279V15.2535M2 15.3279V15.2535M2 15.2535V15.1791M2 15.2535V15.1791M2 15.1791V15.1047M2 15.1791V15.1047M2 15.1047V15.0303M2 15.1047V15.0303M2 15.0303V14.9559M2 15.0303V14.9559M2 14.9559V14.8815M2 14.9559V14.8815M2 14.8815V14.8071M2 14.8815V14.8071M2 14.8071V14.7327M2 14.8071V14.7327M2 14.7327V14.6583M2 14.7327V14.6583M2 14.6583V14.5839M2 14.6583V14.5839M2 14.5839V14.5095M2 14.5839V14.5095M2 14.5095V14.4351M2 14.5095V14.4351M2 14.4351V14.3607M2 14.4351V14.3607M2 14.3607V14.2863M2 14.3607V14.2863M2 14.2863V14.2119M2 14.2863V14.2119M2 14.2119V14.1375M2 14.2119V14.1375M2 14.1375V14.0631M2 14.1375V14.0631M2 14.0631V13.9887M2 14.0631V13.9887M2 13.9887V13.9143M2 13.9887V13.9143M2 13.9143V13.8399M2 13.9143V13.8399M2 13.8399V13.7655M2 13.8399V13.7655M2 13.7655V13.6911M2 13.7655V13.6911M2 13.6911V13.6166M2 13.6911V13.6166M2 13.6166V13.5422M2 13.6166V13.5422M2 13.5422V13.4678M2 13.5422V13.4678M2 13.4678V13.3934M2 13.4678V13.3934M2 13.3934V13.319M2 13.3934V13.319M2 13.319V13.2446M2 13.319V13.2446M2 13.2446V13.1702M2 13.2446V13.1702M2 13.1702V13.0958M2 13.1702V13.0958M2 13.0958V13.0214M2 13.0958V13.0214M2 13.0214V12.947M2 13.0214V12.947M2 12.947V12.8726M2 12.947V12.8726M2 12.8726V12.7982M2 12.8726V12.7982M2 12.7982V12.7238M2 12.7982V12.7238M2 12.7238V12.6493M2 12.7238V12.6493M2 12.6493V12.5749M2 12.6493V12.5749M2 12.5749V12.5005M2 12.5749V12.5005M2 12.5005V12.4261M2 12.5005V12.4261M2 12.4261V12.3517M2 12.4261V12.3517M2 12.3517V12.2773M2 12.3517V12.2773M2 12.2773V12.2029M2 12.2773V12.2029M2 12.2029V12.1285M2 12.2029V12.1285M2 12.1285V12.0541M2 12.1285V12.0541M2 12.0541V11.9796M2 12.0541V11.9796M2 11.9796V11.9052M2 11.9796V11.9052M2 11.9052V11.8308M2 11.9052V11.8308M2 11.8308V11.7564M2 11.8308V11.7564M2 11.7564V11.682M2 11.7564V11.682M2 11.682V11.6076M2 11.682V11.6076M2 11.6076V11.5332M2 11.6076V11.5332M2 11.5332V11.4587M2 11.5332V11.4587M2 11.4587V11.3843M2 11.4587V11.3843M2 11.3843V11.3099M2 11.3843V11.3099M2 11.3099V11.2355M2 11.3099V11.2355M2 11.2355V11.1611M2 11.2355V11.1611M2 11.1611V11.0867M2 11.1611V11.0867M2 11.0867V11.0123M2 11.0867V11.0123M2 11.0123V10.9378M2 11.0123V10.9378M2 10.9378V10.8634M2 10.9378V10.8634M2 10.8634V10.789M2 10.8634V10.789M2 10.789V10.7146M2 10.789V10.7146M2 10.7146V10.6402M2 10.7146V10.6402M2 10.6402V10.5658M2 10.6402V10.5658M2 10.5658V10.4913M2 10.5658V10.4913M2 10.4913V10.4169M2 10.4913V10.4169M2 10.4169V10.3425M2 10.4169V10.3425M2 10.3425V10.2681M2 10.3425V10.2681M2 10.2681V10.1937M2 10.2681V10.1937M2 10.1937V10.1192M2 10.1937V10.1192M2 10.1192V10.0448M2 10.1192V10.0448M2 10.0448V9.9704M2 10.0448V9.9704M2 9.9704V9.89598M2 9.9704V9.89598M2 9.89598V9.82156M2 9.89598V9.82156M2 9.82156V9.74714M2 9.82156V9.74714M2 9.74714V9.67271M2 9.74714V9.67271M2 9.67271V9.59829M2 9.67271V9.59829M2 9.59829V9.52387M2 9.59829V9.52387M2 9.52387V9.44945M2 9.52387V9.44945M2 9.44945V9.37502M2 9.44945V9.37502M2 9.37502V9.3006M2 9.37502V9.3006M2 9.3006V9.22617M2 9.3006V9.22617M2 9.22617V9.15175M2 9.22617V9.15175M2 9.15175V9.07732M2 9.15175V9.07732M2 9.07732V9.0029M2 9.07732V9.0029M2 9.0029V8.92847M2 9.0029V8.92847M2 8.92847V8.85405M2 8.92847V8.85405M2 8.85405V8.77962M2 8.85405V8.77962M2 8.77962V8.7052M2 8.77962V8.7052M2 8.7052V8.63077M2 8.7052V8.63077M2 8.63077V8.55634M2 8.63077V8.55634M2 8.55634V8.48191M2 8.55634V8.48191M2 8.48191V8.40749M2 8.48191V8.40749M2 8.40749V8.33306M2 8.40749V8.33306M2 8.33306V8.25863M2 8.33306V8.25863M2 8.25863V8.1842M2 8.25863V8.1842M2 8.1842V8.10977M2 8.1842V8.10977M2 8.10977V8.03534M2 8.10977V8.03534M2 8.03534V7.96091M2 8.03534V7.96091M2 7.96091V7.88648M2 7.96091V7.88648M2 7.88648V7.81205M2 7.88648V7.81205M2 7.81205V7.73762M2 7.81205V7.73762M2 7.73762V7.66318M2 7.73762V7.66318M2 7.66318V7.58875M2 7.66318V7.58875M2 7.58875V7.51432M2 7.58875V7.51432M2 7.51432V7.43989M2 7.51432V7.43989M2 7.43989V7.36545M2 7.43989V7.36545M2 7.36545V7.29102M2 7.36545V7.29102M2 7.29102V7.21658M2 7.29102V7.21658M2 7.21658V7.14215M2 7.21658V7.14215M2 7.14215V7.06771M2 7.14215V7.06771M2 7.06771V6.99328M2 7.06771V6.99328M2 6.99328V6.91884M2 6.99328V6.91884M2 6.91884V6.84441M2 6.91884V6.84441M2 6.84441V6.76997M2 6.84441V6.76997M2 6.76997V6.69553M2 6.76997V6.69553M2 6.69553V6.62109M2 6.69553V6.62109M2 6.62109V6.54666M2 6.62109V6.54666M2 6.54666V6.47222M2 6.54666V6.47222M2 6.47222V6.39778M2 6.47222V6.39778M2 6.39778V6.32334M2 6.39778V6.32334M2 6.32334V6.2489M2 6.32334V6.2489M2 6.2489V6.17446M2 6.2489V6.17446M2 6.17446V6.10002M2 6.17446V6.10002M2 6.10002V6.02558M2 6.10002V6.02558M2 6.02558V5.95114M2 6.02558V5.95114M2 5.95114V5.87669M2 5.95114V5.87669M2 5.87669V5.80225M2 5.87669V5.80225M2 5.80225V5.72781M2 5.80225V5.72781M2 5.72781V5.65337M2 5.72781V5.65337M2 5.65337V5.57892M2 5.65337V5.57892M2 5.57892V5.50448M2 5.57892V5.50448M2 5.50448V5.43003M2 5.50448V5.43003M2 5.43003V5.35559M2 5.43003V5.35559M2 5.35559V5.28114M2 5.35559V5.28114M2 5.28114V5.2067M2 5.28114V5.2067M2 5.2067V5.13225M2 5.2067V5.13225M2 5.13225V5.0578M2 5.13225V5.0578M2 5.0578V4.98336M2 5.0578V4.98336M2 4.98336V4.90891M2 4.98336V4.90891M2 4.90891V4.83446M2 4.90891V4.83446M2 4.83446V4.76001M2 4.83446V4.76001M2 4.76001V4.68556M2 4.76001V4.68556M2 4.68556V4.61111M2 4.68556V4.61111M2 4.61111C2 3.41327 2.30338 2.86257 2.56443 2.60073M2 4.61111L2.56443 2.60073M2.56443 2.60073C2.82444 2.33993 3.36619 2.04102 4.54069 2.04102M2.56443 2.60073L4.54069 2.04102M4.54069 2.04102H4.56972M4.54069 2.04102H4.56972M4.56972 2.04102H4.59874M4.56972 2.04102H4.59874M4.59874 2.04102H4.62777M4.59874 2.04102H4.62777M4.62777 2.04102H4.65679M4.62777 2.04102H4.65679M4.65679 2.04102H4.68582M4.65679 2.04102H4.68582M4.68582 2.04102H4.71484M4.68582 2.04102H4.71484M4.71484 2.04102H4.74386M4.71484 2.04102H4.74386M4.74386 2.04102H4.77289M4.74386 2.04102H4.77289M4.77289 2.04102H4.80191M4.77289 2.04102H4.80191M4.80191 2.04102H4.83094M4.80191 2.04102H4.83094M4.83094 2.04102H4.85996M4.83094 2.04102H4.85996M4.85996 2.04102H4.88899M4.85996 2.04102H4.88899M4.88899 2.04102H4.91801M4.88899 2.04102H4.91801M4.91801 2.04102H4.94703M4.91801 2.04102H4.94703M4.94703 2.04102H4.97606M4.94703 2.04102H4.97606M4.97606 2.04102H5.00508M4.97606 2.04102H5.00508M5.00508 2.04102H5.03411M5.00508 2.04102H5.03411M5.03411 2.04102H5.06313M5.03411 2.04102H5.06313M5.06313 2.04102H5.09216M5.06313 2.04102H5.09216M5.09216 2.04102H5.12118M5.09216 2.04102H5.12118M5.12118 2.04102H5.15021M5.12118 2.04102H5.15021M5.15021 2.04102H5.17923M5.15021 2.04102H5.17923M5.17923 2.04102H5.20825M5.17923 2.04102H5.20825M5.20825 2.04102H5.23728M5.20825 2.04102H5.23728M5.23728 2.04102H5.2663M5.23728 2.04102H5.2663M5.2663 2.04102H5.29533M5.2663 2.04102H5.29533M5.29533 2.04102H5.32435M5.29533 2.04102H5.32435M5.32435 2.04102H5.35338M5.32435 2.04102H5.35338M5.35338 2.04102H5.3824M5.35338 2.04102H5.3824M5.3824 2.04102H5.41142M5.3824 2.04102H5.41142M5.41142 2.04102H5.44045M5.41142 2.04102H5.44045M5.44045 2.04102H5.46947M5.44045 2.04102H5.46947M5.46947 2.04102H5.4985M5.46947 2.04102H5.4985M5.4985 2.04102H5.52752M5.4985 2.04102H5.52752M5.52752 2.04102H5.55655M5.52752 2.04102H5.55655M5.55655 2.04102H5.58557M5.55655 2.04102H5.58557M5.58557 2.04102H5.61459M5.58557 2.04102H5.61459M5.61459 2.04102H5.64362M5.61459 2.04102H5.64362M5.64362 2.04102H5.67264M5.64362 2.04102H5.67264M5.67264 2.04102H5.70167M5.67264 2.04102H5.70167M5.70167 2.04102H5.73069M5.70167 2.04102H5.73069M5.73069 2.04102H5.75972M5.73069 2.04102H5.75972M5.75972 2.04102H5.78874M5.75972 2.04102H5.78874M5.78874 2.04102H5.81776M5.78874 2.04102H5.81776M5.81776 2.04102H5.84679M5.81776 2.04102H5.84679M5.84679 2.04102H5.87581M5.84679 2.04102H5.87581M5.87581 2.04102H5.90484M5.87581 2.04102H5.90484M5.90484 2.04102H5.93386M5.90484 2.04102H5.93386M5.93386 2.04102H5.96289M5.93386 2.04102H5.96289M5.96289 2.04102H5.99191M5.96289 2.04102H5.99191M5.99191 2.04102H6.02093M5.99191 2.04102H6.02093M6.02093 2.04102H6.04996M6.02093 2.04102H6.04996M6.04996 2.04102H6.07898M6.04996 2.04102H6.07898M6.07898 2.04102H6.10801M6.07898 2.04102H6.10801M6.10801 2.04102H6.13703M6.10801 2.04102H6.13703M6.13703 2.04102H6.16606M6.13703 2.04102H6.16606M6.16606 2.04102H6.19508M6.16606 2.04102H6.19508M6.19508 2.04102H6.2241M6.19508 2.04102H6.2241M6.2241 2.04102H6.25313M6.2241 2.04102H6.25313M6.25313 2.04102H6.28215M6.25313 2.04102H6.28215M6.28215 2.04102H6.31118M6.28215 2.04102H6.31118M6.31118 2.04102H6.3402M6.31118 2.04102H6.3402M6.3402 2.04102H6.36923M6.3402 2.04102H6.36923M6.36923 2.04102H6.39825M6.36923 2.04102H6.39825M6.39825 2.04102H6.42728M6.39825 2.04102H6.42728M6.42728 2.04102H6.4563M6.42728 2.04102H6.4563M6.4563 2.04102H6.48532M6.4563 2.04102H6.48532M6.48532 2.04102H6.51435M6.48532 2.04102H6.51435M6.51435 2.04102H6.54337M6.51435 2.04102H6.54337M6.54337 2.04102H6.5724M6.54337 2.04102H6.5724M6.5724 2.04102H6.60142M6.5724 2.04102H6.60142M6.60142 2.04102H6.63045M6.60142 2.04102H6.63045M6.63045 2.04102H6.65947M6.63045 2.04102H6.65947M6.65947 2.04102H6.68849M6.65947 2.04102H6.68849M6.68849 2.04102H6.71752M6.68849 2.04102H6.71752M6.71752 2.04102H6.74654M6.71752 2.04102H6.74654M6.74654 2.04102H6.77557M6.74654 2.04102H6.77557M6.77557 2.04102H6.80459M6.77557 2.04102H6.80459M6.80459 2.04102H6.83362M6.80459 2.04102H6.83362M6.83362 2.04102H6.86264M6.83362 2.04102H6.86264M6.86264 2.04102H6.89166M6.86264 2.04102H6.89166M6.89166 2.04102H6.92069M6.89166 2.04102H6.92069M6.92069 2.04102H6.94971M6.92069 2.04102H6.94971M6.94971 2.04102H6.97874M6.94971 2.04102H6.97874M6.97874 2.04102H7.00776M6.97874 2.04102H7.00776M7.00776 2.04102H7.03679M7.00776 2.04102H7.03679M7.03679 2.04102H7.06581M7.03679 2.04102H7.06581M7.06581 2.04102H7.09483M7.06581 2.04102H7.09483M7.09483 2.04102H7.12386M7.09483 2.04102H7.12386M7.12386 2.04102H7.15288M7.12386 2.04102H7.15288M7.15288 2.04102H7.18191M7.15288 2.04102H7.18191M7.18191 2.04102H7.21093M7.18191 2.04102H7.21093M7.21093 2.04102H7.23996M7.21093 2.04102H7.23996M7.23996 2.04102H7.26898M7.23996 2.04102H7.26898M7.26898 2.04102H7.29801M7.26898 2.04102H7.29801M7.29801 2.04102H7.32703M7.29801 2.04102H7.32703M7.32703 2.04102H7.35605M7.32703 2.04102H7.35605M7.35605 2.04102H7.38508M7.35605 2.04102H7.38508M7.38508 2.04102H7.4141M7.38508 2.04102H7.4141M7.4141 2.04102H7.44313M7.4141 2.04102H7.44313M7.44313 2.04102H7.47215M7.44313 2.04102H7.47215M7.47215 2.04102H7.50118M7.47215 2.04102H7.50118M7.50118 2.04102H7.5302M7.50118 2.04102H7.5302M7.5302 2.04102H7.55922M7.5302 2.04102H7.55922M7.55922 2.04102H7.58825M7.55922 2.04102H7.58825M7.58825 2.04102H7.61727M7.58825 2.04102H7.61727M7.61727 2.04102H7.6463M7.61727 2.04102H7.6463M7.6463 2.04102H7.67532M7.6463 2.04102H7.67532M7.67532 2.04102H7.70435M7.67532 2.04102H7.70435M7.70435 2.04102H7.73337M7.70435 2.04102H7.73337M7.73337 2.04102H7.76239M7.73337 2.04102H7.76239M7.76239 2.04102H7.79142M7.76239 2.04102H7.79142M7.79142 2.04102H7.82044M7.79142 2.04102H7.82044M7.82044 2.04102H7.84947M7.82044 2.04102H7.84947M7.84947 2.04102H7.87849M7.84947 2.04102H7.87849M7.87849 2.04102H7.90752M7.87849 2.04102H7.90752M7.90752 2.04102H7.93654M7.90752 2.04102H7.93654M7.93654 2.04102H7.96556M7.93654 2.04102H7.96556M7.96556 2.04102H7.99459M7.96556 2.04102H7.99459M7.99459 2.04102H8.02361M7.99459 2.04102H8.02361M8.02361 2.04102H8.05264M8.02361 2.04102H8.05264M8.05264 2.04102H8.08166M8.05264 2.04102H8.08166M8.08166 2.04102H8.11069M8.08166 2.04102H8.11069M8.11069 2.04102H8.13971M8.11069 2.04102H8.13971M8.13971 2.04102H8.16873M8.13971 2.04102H8.16873M8.16873 2.04102H8.19776M8.16873 2.04102H8.19776M8.19776 2.04102H8.22678M8.19776 2.04102H8.22678M8.22678 2.04102H8.25581M8.22678 2.04102H8.25581M8.25581 2.04102H8.28483M8.25581 2.04102H8.28483M8.28483 2.04102H8.31386M8.28483 2.04102H8.31386M8.31386 2.04102H8.34288M8.31386 2.04102H8.34288M8.34288 2.04102H8.37191M8.34288 2.04102H8.37191M8.37191 2.04102H8.40093M8.37191 2.04102H8.40093M8.40093 2.04102H8.42995M8.40093 2.04102H8.42995M8.42995 2.04102H8.45898M8.42995 2.04102H8.45898M8.45898 2.04102H8.488M8.45898 2.04102H8.488M8.488 2.04102H8.51703M8.488 2.04102H8.51703M8.51703 2.04102H8.54605M8.51703 2.04102H8.54605M8.54605 2.04102H8.57508M8.54605 2.04102H8.57508M8.57508 2.04102H8.6041M8.57508 2.04102H8.6041M8.6041 2.04102H8.63312M8.6041 2.04102H8.63312M8.63312 2.04102H8.66215M8.63312 2.04102H8.66215M8.66215 2.04102H8.69117M8.66215 2.04102H8.69117M8.69117 2.04102H8.7202M8.69117 2.04102H8.7202M8.7202 2.04102H8.74922M8.7202 2.04102H8.74922M8.74922 2.04102H8.77825M8.74922 2.04102H8.77825M8.77825 2.04102H8.80727M8.77825 2.04102H8.80727M8.80727 2.04102H8.83629M8.80727 2.04102H8.83629M8.83629 2.04102H8.86532M8.83629 2.04102H8.86532M8.86532 2.04102H8.89434M8.86532 2.04102H8.89434M8.89434 2.04102H8.92337M8.89434 2.04102H8.92337M8.92337 2.04102H8.95239M8.92337 2.04102H8.95239M8.95239 2.04102H8.98142M8.95239 2.04102H8.98142M8.98142 2.04102H9.01044M8.98142 2.04102H9.01044M9.01044 2.04102H9.03946M9.01044 2.04102H9.03946M9.03946 2.04102H9.06849M9.03946 2.04102H9.06849M9.06849 2.04102H9.09751M9.06849 2.04102H9.09751M9.09751 2.04102H9.12654M9.09751 2.04102H9.12654M9.12654 2.04102H9.15556M9.12654 2.04102H9.15556M9.15556 2.04102H9.18459M9.15556 2.04102H9.18459M9.18459 2.04102H9.21361M9.18459 2.04102H9.21361M9.21361 2.04102H9.24263M9.21361 2.04102H9.24263M9.24263 2.04102H9.27166M9.24263 2.04102H9.27166M9.27166 2.04102H9.30068M9.27166 2.04102H9.30068M9.30068 2.04102H9.32971M9.30068 2.04102H9.32971M9.32971 2.04102H9.35873M9.32971 2.04102H9.35873M9.35873 2.04102H9.38776M9.35873 2.04102H9.38776M9.38776 2.04102H9.41678M9.38776 2.04102H9.41678M9.41678 2.04102H9.4458M9.41678 2.04102H9.4458M9.4458 2.04102H9.47483M9.4458 2.04102H9.47483M9.47483 2.04102H9.50385M9.47483 2.04102H9.50385M9.50385 2.04102H9.53288M9.50385 2.04102H9.53288M9.53288 2.04102H9.5619M9.53288 2.04102H9.5619M9.5619 2.04102H9.59093M9.5619 2.04102H9.59093M9.59093 2.04102H9.61995M9.59093 2.04102H9.61995M9.61995 2.04102H9.64898M9.61995 2.04102H9.64898M9.64898 2.04102H9.678M9.64898 2.04102H9.678M9.678 2.04102H9.70702M9.678 2.04102H9.70702M9.70702 2.04102H9.73605M9.70702 2.04102H9.73605M9.73605 2.04102H9.76507M9.73605 2.04102H9.76507M9.76507 2.04102H9.7941M9.76507 2.04102H9.7941M9.7941 2.04102H9.82312M9.7941 2.04102H9.82312M9.82312 2.04102H9.85215M9.82312 2.04102H9.85215M9.85215 2.04102H9.88117M9.85215 2.04102H9.88117M9.88117 2.04102H9.91019M9.88117 2.04102H9.91019M9.91019 2.04102H9.93922M9.91019 2.04102H9.93922M9.93922 2.04102H9.96824M9.93922 2.04102H9.96824M9.96824 2.04102H9.99727M9.96824 2.04102H9.99727M9.99727 2.04102H10.0263M9.99727 2.04102H10.0263M10.0263 2.04102H10.0553M10.0263 2.04102H10.0553M10.0553 2.04102H10.0843M10.0553 2.04102H10.0843M10.0843 2.04102H10.1134M10.0843 2.04102H10.1134M10.1134 2.04102H10.1424M10.1134 2.04102H10.1424M10.1424 2.04102H10.1714M10.1424 2.04102H10.1714M10.1714 2.04102H10.2004M10.1714 2.04102H10.2004M10.2004 2.04102H10.2295M10.2004 2.04102H10.2295M10.2295 2.04102H10.2585M10.2295 2.04102H10.2585M10.2585 2.04102H10.2875M10.2585 2.04102H10.2875M10.2875 2.04102H10.3165M10.2875 2.04102H10.3165M10.3165 2.04102H10.3456M10.3165 2.04102H10.3456M10.3456 2.04102H10.3746M10.3456 2.04102H10.3746M10.3746 2.04102H10.4036M10.3746 2.04102H10.4036M10.4036 2.04102H10.4326M10.4036 2.04102H10.4326M10.4326 2.04102H10.4617M10.4326 2.04102H10.4617M10.4617 2.04102H10.4907M10.4617 2.04102H10.4907M10.4907 2.04102H10.5197M10.4907 2.04102H10.5197M10.5197 2.04102H10.5487M10.5197 2.04102H10.5487M10.5487 2.04102H10.5778M10.5487 2.04102H10.5778M10.5778 2.04102H10.6068M10.5778 2.04102H10.6068M10.6068 2.04102H10.6358M10.6068 2.04102H10.6358M10.6358 2.04102H10.6648M10.6358 2.04102H10.6648M10.6648 2.04102H10.6939M10.6648 2.04102H10.6939M10.6939 2.04102H10.7229M10.6939 2.04102H10.7229M10.7229 2.04102H10.7519M10.7229 2.04102H10.7519M10.7519 2.04102H10.7809M10.7519 2.04102H10.7809M10.7809 2.04102H10.8099M10.7809 2.04102H10.8099M10.8099 2.04102H10.839M10.8099 2.04102H10.839M10.839 2.04102H10.868M10.839 2.04102H10.868M10.868 2.04102H10.897M10.868 2.04102H10.897M10.897 2.04102H10.926M10.897 2.04102H10.926M10.926 2.04102H10.9551M10.926 2.04102H10.9551M10.9551 2.04102H10.9841M10.9551 2.04102H10.9841M10.9841 2.04102H11.0131M10.9841 2.04102H11.0131M11.0131 2.04102H11.0421M11.0131 2.04102H11.0421M11.0421 2.04102H11.0712M11.0421 2.04102H11.0712M11.0712 2.04102H11.1002M11.0712 2.04102H11.1002M11.1002 2.04102H11.1292M11.1002 2.04102H11.1292M11.1292 2.04102H11.1582M11.1292 2.04102H11.1582M11.1582 2.04102H11.1873M11.1582 2.04102H11.1873M11.1873 2.04102H11.2163M11.1873 2.04102H11.2163M11.2163 2.04102H11.2453M11.2163 2.04102H11.2453M11.2453 2.04102H11.2743M11.2453 2.04102H11.2743M11.2743 2.04102H11.3034M11.2743 2.04102H11.3034M11.3034 2.04102H11.3324M11.3034 2.04102H11.3324M11.3324 2.04102H11.3614M11.3324 2.04102H11.3614M11.3614 2.04102H11.3904M11.3614 2.04102H11.3904M11.3904 2.04102H11.4195M11.3904 2.04102H11.4195M11.4195 2.04102H11.4485M11.4195 2.04102H11.4485M11.4485 2.04102H11.4775M11.4485 2.04102H11.4775M11.4775 2.04102H11.5065M11.4775 2.04102H11.5065M11.5065 2.04102H11.5356M11.5065 2.04102H11.5356M11.5356 2.04102H11.5646M11.5356 2.04102H11.5646M11.5646 2.04102H11.5936M11.5646 2.04102H11.5936M11.5936 2.04102H11.6226M11.5936 2.04102H11.6226M11.6226 2.04102H11.6517M11.6226 2.04102H11.6517M11.6517 2.04102H11.6807M11.6517 2.04102H11.6807M11.6807 2.04102H11.7097M11.6807 2.04102H11.7097M11.7097 2.04102H11.7387M11.7097 2.04102H11.7387M11.7387 2.04102H11.7678M11.7387 2.04102H11.7678M11.7678 2.04102H11.7968M11.7678 2.04102H11.7968M11.7968 2.04102H11.8258M11.7968 2.04102H11.8258M11.8258 2.04102H11.8548M11.8258 2.04102H11.8548M11.8548 2.04102H11.8838M11.8548 2.04102H11.8838M11.8838 2.04102H11.9129M11.8838 2.04102H11.9129M11.9129 2.04102H11.9419M11.9129 2.04102H11.9419M11.9419 2.04102H11.9709M11.9419 2.04102H11.9709M11.9709 2.04102H11.9999M11.9709 2.04102H11.9999M11.9999 2.04102H12.029M11.9999 2.04102H12.029M12.029 2.04102H12.058M12.029 2.04102H12.058M12.058 2.04102H12.087M12.058 2.04102H12.087M12.087 2.04102H12.116M12.087 2.04102H12.116M12.116 2.04102H12.1451M12.116 2.04102H12.1451M12.1451 2.04102H12.1741M12.1451 2.04102H12.1741M12.1741 2.04102H12.2031M12.1741 2.04102H12.2031M12.2031 2.04102H12.2321M12.2031 2.04102H12.2321M12.2321 2.04102H12.2612M12.2321 2.04102H12.2612M12.2612 2.04102H12.2902M12.2612 2.04102H12.2902M12.2902 2.04102H12.3192M12.2902 2.04102H12.3192M12.3192 2.04102H12.3482M12.3192 2.04102H12.3482M12.3482 2.04102H12.3773M12.3482 2.04102H12.3773M12.3773 2.04102H12.4063M12.3773 2.04102H12.4063M12.4063 2.04102H12.4353M12.4063 2.04102H12.4353M12.4353 2.04102H12.4643M12.4353 2.04102H12.4643M12.4643 2.04102H12.4934M12.4643 2.04102H12.4934M12.4934 2.04102H12.5224M12.4934 2.04102H12.5224M12.5224 2.04102H12.5514M12.5224 2.04102H12.5514M12.5514 2.04102H12.5804M12.5514 2.04102H12.5804M12.5804 2.04102H12.6095M12.5804 2.04102H12.6095M12.6095 2.04102H12.6385M12.6095 2.04102H12.6385M12.6385 2.04102H12.6675M12.6385 2.04102H12.6675M12.6675 2.04102H12.6965M12.6675 2.04102H12.6965M12.6965 2.04102H12.7256M12.6965 2.04102H12.7256M12.7256 2.04102H12.7546M12.7256 2.04102H12.7546M12.7546 2.04102H12.7836M12.7546 2.04102H12.7836M12.7836 2.04102H12.8126M12.7836 2.04102H12.8126M12.8126 2.04102H12.8417M12.8126 2.04102H12.8417M12.8417 2.04102H12.8707M12.8417 2.04102H12.8707M12.8707 2.04102H12.8997M12.8707 2.04102H12.8997M12.8997 2.04102H12.9287M12.8997 2.04102H12.9287M12.9287 2.04102H12.9577M12.9287 2.04102H12.9577M12.9577 2.04102H12.9868M12.9577 2.04102H12.9868M12.9868 2.04102H13.0158M12.9868 2.04102H13.0158M13.0158 2.04102H13.0448M13.0158 2.04102H13.0448M13.0448 2.04102H13.0738M13.0448 2.04102H13.0738M13.0738 2.04102H13.1029M13.0738 2.04102H13.1029M13.1029 2.04102H13.1319M13.1029 2.04102H13.1319M13.1319 2.04102H13.1609M13.1319 2.04102H13.1609M13.1609 2.04102H13.1899M13.1609 2.04102H13.1899M13.1899 2.04102H13.219M13.1899 2.04102H13.219M13.219 2.04102H13.248M13.219 2.04102H13.248M13.248 2.04102H13.277M13.248 2.04102H13.277M13.277 2.04102H13.306M13.277 2.04102H13.306M13.306 2.04102H13.3351M13.306 2.04102H13.3351M13.3351 2.04102H13.3641M13.3351 2.04102H13.3641M13.3641 2.04102H13.3931M13.3641 2.04102H13.3931M13.3931 2.04102H13.4221M13.3931 2.04102H13.4221M13.4221 2.04102H13.4512M13.4221 2.04102H13.4512M13.4512 2.04102H13.4802M13.4512 2.04102H13.4802M13.4802 2.04102H13.5092M13.4802 2.04102H13.5092M13.5092 2.04102H13.5382M13.5092 2.04102H13.5382M13.5382 2.04102H13.5673M13.5382 2.04102H13.5673M13.5673 2.04102H13.5963M13.5673 2.04102H13.5963M13.5963 2.04102H13.6253M13.5963 2.04102H13.6253M13.6253 2.04102H13.6543M13.6253 2.04102H13.6543M13.6543 2.04102H13.6834M13.6543 2.04102H13.6834M13.6834 2.04102H13.7124M13.6834 2.04102H13.7124M13.7124 2.04102H13.7414M13.7124 2.04102H13.7414M13.7414 2.04102H13.7704M13.7414 2.04102H13.7704M13.7704 2.04102H13.7995M13.7704 2.04102H13.7995M13.7995 2.04102H13.8285M13.7995 2.04102H13.8285M13.8285 2.04102H13.8575M13.8285 2.04102H13.8575M13.8575 2.04102H13.8865M13.8575 2.04102H13.8865M13.8865 2.04102H13.9156M13.8865 2.04102H13.9156M13.9156 2.04102H13.9446M13.9156 2.04102H13.9446M13.9446 2.04102H13.9736M13.9446 2.04102H13.9736M13.9736 2.04102H14.0026M13.9736 2.04102H14.0026M14.0026 2.04102H14.0316M14.0026 2.04102H14.0316M14.0316 2.04102H14.0607M14.0316 2.04102H14.0607M14.0607 2.04102H14.0897M14.0607 2.04102H14.0897M14.0897 2.04102H14.1187M14.0897 2.04102H14.1187M14.1187 2.04102H14.1477M14.1187 2.04102H14.1477M14.1477 2.04102H14.1768M14.1477 2.04102H14.1768M14.1768 2.04102H14.2058M14.1768 2.04102H14.2058M14.2058 2.04102H14.2348M14.2058 2.04102H14.2348M14.2348 2.04102H14.2638M14.2348 2.04102H14.2638M14.2638 2.04102H14.2929M14.2638 2.04102H14.2929M14.2929 2.04102H14.3219M14.2929 2.04102H14.3219M14.3219 2.04102H14.3509M14.3219 2.04102H14.3509M14.3509 2.04102H14.3799M14.3509 2.04102H14.3799M14.3799 2.04102H14.409M14.3799 2.04102H14.409M14.409 2.04102H14.438M14.409 2.04102H14.438M14.438 2.04102H14.467M14.438 2.04102H14.467M14.467 2.04102H14.496M14.467 2.04102H14.496M14.496 2.04102H14.5251M14.496 2.04102H14.5251M14.5251 2.04102H14.5541M14.5251 2.04102H14.5541M14.5541 2.04102H14.5831M14.5541 2.04102H14.5831M14.5831 2.04102H14.6121M14.5831 2.04102H14.6121M14.6121 2.04102H14.6412M14.6121 2.04102H14.6412M14.6412 2.04102H14.6702M14.6412 2.04102H14.6702M14.6702 2.04102H14.6992M14.6702 2.04102H14.6992M14.6992 2.04102H14.7282M14.6992 2.04102H14.7282M14.7282 2.04102H14.7573M14.7282 2.04102H14.7573M14.7573 2.04102H14.7863M14.7573 2.04102H14.7863M14.7863 2.04102H14.8153M14.7863 2.04102H14.8153M14.8153 2.04102H14.8443M14.8153 2.04102H14.8443M14.8443 2.04102H14.8734M14.8443 2.04102H14.8734M14.8734 2.04102H14.9024M14.8734 2.04102H14.9024M14.9024 2.04102H14.9314M14.9024 2.04102H14.9314M14.9314 2.04102H14.9604M14.9314 2.04102H14.9604M14.9604 2.04102H14.9895M14.9604 2.04102H14.9895M14.9895 2.04102H15.0185M14.9895 2.04102H15.0185M15.0185 2.04102H15.0475M15.0185 2.04102H15.0475M15.0475 2.04102H15.0765M15.0475 2.04102H15.0765M15.0765 2.04102H15.1055M15.0765 2.04102H15.1055M15.1055 2.04102H15.1346M15.1055 2.04102H15.1346M15.1346 2.04102H15.1636M15.1346 2.04102H15.1636M15.1636 2.04102H15.1926M15.1636 2.04102H15.1926M15.1926 2.04102H15.2216M15.1926 2.04102H15.2216M15.2216 2.04102H15.2507M15.2216 2.04102H15.2507M15.2507 2.04102H15.2797M15.2507 2.04102H15.2797M15.2797 2.04102H15.3087M15.2797 2.04102H15.3087M15.3087 2.04102H15.3377M15.3087 2.04102H15.3377M15.3377 2.04102H15.3668M15.3377 2.04102H15.3668M15.3668 2.04102H15.3958M15.3668 2.04102H15.3958M15.3958 2.04102H15.4248M15.3958 2.04102H15.4248M15.4248 2.04102H15.4538M15.4248 2.04102H15.4538M15.4538 2.04102H15.4829M15.4538 2.04102H15.4829M15.4829 2.04102H15.5119M15.4829 2.04102H15.5119M15.5119 2.04102H15.5409M15.5119 2.04102H15.5409M15.5409 2.04102H15.5699M15.5409 2.04102H15.5699M15.5699 2.04102H15.599M15.5699 2.04102H15.599M15.599 2.04102H15.628M15.599 2.04102H15.628M15.628 2.04102H15.657M15.628 2.04102H15.657M15.657 2.04102H15.686M15.657 2.04102H15.686M15.686 2.04102H15.7151M15.686 2.04102H15.7151M15.7151 2.04102H15.7441M15.7151 2.04102H15.7441M15.7441 2.04102H15.7731M15.7441 2.04102H15.7731M15.7731 2.04102H15.8021M15.7731 2.04102H15.8021M15.8021 2.04102H15.8312M15.8021 2.04102H15.8312M15.8312 2.04102H15.8602M15.8312 2.04102H15.8602M15.8602 2.04102H15.8892M15.8602 2.04102H15.8892M15.8892 2.04102H15.9182M15.8892 2.04102H15.9182M15.9182 2.04102H15.9473M15.9182 2.04102H15.9473M15.9473 2.04102H15.9763M15.9473 2.04102H15.9763M15.9763 2.04102H16.0053M15.9763 2.04102H16.0053M16.0053 2.04102H16.0343M16.0053 2.04102H16.0343M16.0343 2.04102H16.0634M16.0343 2.04102H16.0634M16.0634 2.04102H16.0924M16.0634 2.04102H16.0924M16.0924 2.04102H16.1214M16.0924 2.04102H16.1214M16.1214 2.04102H16.1504M16.1214 2.04102H16.1504M16.1504 2.04102H16.1794M16.1504 2.04102H16.1794M16.1794 2.04102H16.2085M16.1794 2.04102H16.2085M16.2085 2.04102H16.2375M16.2085 2.04102H16.2375M16.2375 2.04102H16.2665M16.2375 2.04102H16.2665M16.2665 2.04102H16.2955M16.2665 2.04102H16.2955M16.2955 2.04102H16.3246M16.2955 2.04102H16.3246M16.3246 2.04102H16.3536M16.3246 2.04102H16.3536M16.3536 2.04102H16.3826M16.3536 2.04102H16.3826M16.3826 2.04102H16.4116M16.3826 2.04102H16.4116M16.4116 2.04102H16.4407M16.4116 2.04102H16.4407M16.4407 2.04102H16.4697M16.4407 2.04102H16.4697M16.4697 2.04102H16.4987M16.4697 2.04102H16.4987M16.4987 2.04102H16.5277M16.4987 2.04102H16.5277M16.5277 2.04102H16.5568M16.5277 2.04102H16.5568M16.5568 2.04102H16.5858M16.5568 2.04102H16.5858M16.5858 2.04102H16.6148M16.5858 2.04102H16.6148M16.6148 2.04102H16.6438M16.6148 2.04102H16.6438M16.6438 2.04102H16.6729M16.6438 2.04102H16.6729M16.6729 2.04102H16.7019M16.6729 2.04102H16.7019M16.7019 2.04102H16.7309M16.7019 2.04102H16.7309M16.7309 2.04102H16.7599M16.7309 2.04102H16.7599M16.7599 2.04102H16.789M16.7599 2.04102H16.789M16.789 2.04102H16.818M16.789 2.04102H16.818M16.818 2.04102H16.847M16.818 2.04102H16.847M16.847 2.04102H16.876M16.847 2.04102H16.876M16.876 2.04102H16.9051M16.876 2.04102H16.9051M16.9051 2.04102H16.9341M16.9051 2.04102H16.9341M16.9341 2.04102H16.9631M16.9341 2.04102H16.9631M16.9631 2.04102H16.9921M16.9631 2.04102H16.9921M16.9921 2.04102H17.0212M16.9921 2.04102H17.0212M17.0212 2.04102H17.0502M17.0212 2.04102H17.0502M17.0502 2.04102H17.0792M17.0502 2.04102H17.0792M17.0792 2.04102H17.1082M17.0792 2.04102H17.1082M17.1082 2.04102H17.1373M17.1082 2.04102H17.1373M17.1373 2.04102H17.1663M17.1373 2.04102H17.1663M17.1663 2.04102H17.1953M17.1663 2.04102H17.1953M17.1953 2.04102H17.2243M17.1953 2.04102H17.2243M17.2243 2.04102H17.2533M17.2243 2.04102H17.2533M17.2533 2.04102H17.2824M17.2533 2.04102H17.2824M17.2824 2.04102H17.3114M17.2824 2.04102H17.3114M17.3114 2.04102H17.3404M17.3114 2.04102H17.3404M17.3404 2.04102H17.3694M17.3404 2.04102H17.3694M17.3694 2.04102H17.3985M17.3694 2.04102H17.3985M17.3985 2.04102H17.4275M17.3985 2.04102H17.4275M17.4275 2.04102H17.4565M17.4275 2.04102H17.4565M17.4565 2.04102H17.4855M17.4565 2.04102H17.4855M17.4855 2.04102H17.5146M17.4855 2.04102H17.5146M17.5146 2.04102H17.5436M17.5146 2.04102H17.5436M17.5436 2.04102H17.5726M17.5436 2.04102H17.5726M17.5726 2.04102H17.6016M17.5726 2.04102H17.6016M17.6016 2.04102H17.6307M17.6016 2.04102H17.6307M17.6307 2.04102H17.6597M17.6307 2.04102H17.6597M17.6597 2.04102H17.6887M17.6597 2.04102H17.6887M17.6887 2.04102H17.7177M17.6887 2.04102H17.7177M17.7177 2.04102H17.7468M17.7177 2.04102H17.7468M17.7468 2.04102H17.7758M17.7468 2.04102H17.7758M17.7758 2.04102H17.8048M17.7758 2.04102H17.8048M17.8048 2.04102H17.8338M17.8048 2.04102H17.8338M17.8338 2.04102H17.8629M17.8338 2.04102H17.8629M17.8629 2.04102H17.8919M17.8629 2.04102H17.8919M17.8919 2.04102H17.9209M17.8919 2.04102H17.9209M17.9209 2.04102H17.9499M17.9209 2.04102H17.9499M17.9499 2.04102H17.979M17.9499 2.04102H17.979M17.979 2.04102H18.008M17.979 2.04102H18.008M18.008 2.04102H18.037M18.008 2.04102H18.037M18.037 2.04102H18.066M18.037 2.04102H18.066M18.066 2.04102H18.0951M18.066 2.04102H18.0951M18.0951 2.04102H18.1241M18.0951 2.04102H18.1241M18.1241 2.04102H18.1531M18.1241 2.04102H18.1531M18.1531 2.04102H18.1821M18.1531 2.04102H18.1821M18.1821 2.04102H18.2112M18.1821 2.04102H18.2112M18.2112 2.04102H18.2402M18.2112 2.04102H18.2402M18.2402 2.04102H18.2692M18.2402 2.04102H18.2692M18.2692 2.04102H18.2982M18.2692 2.04102H18.2982M18.2982 2.04102H18.3272M18.2982 2.04102H18.3272M18.3272 2.04102H18.3563M18.3272 2.04102H18.3563M18.3563 2.04102H18.3853M18.3563 2.04102H18.3853M18.3853 2.04102H18.4143M18.3853 2.04102H18.4143M18.4143 2.04102H18.4433M18.4143 2.04102H18.4433M18.4433 2.04102H18.4724M18.4433 2.04102H18.4724M18.4724 2.04102H18.5014M18.4724 2.04102H18.5014M18.5014 2.04102H18.5304M18.5014 2.04102H18.5304M18.5304 2.04102H18.5594M18.5304 2.04102H18.5594M18.5594 2.04102H18.5885M18.5594 2.04102H18.5885M18.5885 2.04102H18.6175M18.5885 2.04102H18.6175M18.6175 2.04102H18.6465M18.6175 2.04102H18.6465M18.6465 2.04102H18.6755M18.6465 2.04102H18.6755M18.6755 2.04102H18.7046M18.6755 2.04102H18.7046M18.7046 2.04102H18.7336M18.7046 2.04102H18.7336M18.7336 2.04102H18.7626M18.7336 2.04102H18.7626M18.7626 2.04102H18.7916M18.7626 2.04102H18.7916M18.7916 2.04102H18.8207M18.7916 2.04102H18.8207M18.8207 2.04102H18.8497M18.8207 2.04102H18.8497M18.8497 2.04102H18.8787M18.8497 2.04102H18.8787M18.8787 2.04102H18.9077M18.8787 2.04102H18.9077M18.9077 2.04102H18.9368M18.9077 2.04102H18.9368M18.9368 2.04102H18.9658M18.9368 2.04102H18.9658M18.9658 2.04102H18.9948M18.9658 2.04102H18.9948M18.9948 2.04102H19.0238M18.9948 2.04102H19.0238M19.0238 2.04102H19.0529M19.0238 2.04102H19.0529M19.0529 2.04102H19.0819M19.0529 2.04102H19.0819M19.0819 2.04102H19.1109M19.0819 2.04102H19.1109M19.1109 2.04102H19.1399M19.1109 2.04102H19.1399M19.1399 2.04102H19.169M19.1399 2.04102H19.169M19.169 2.04102H19.198M19.169 2.04102H19.198M19.198 2.04102H19.227M19.198 2.04102H19.227M19.227 2.04102H19.256M19.227 2.04102H19.256M19.256 2.04102H19.2851M19.256 2.04102H19.2851M19.2851 2.04102H19.3141M19.2851 2.04102H19.3141M19.3141 2.04102H19.3431M19.3141 2.04102H19.3431M19.3431 2.04102H19.3721M19.3431 2.04102H19.3721M19.3721 2.04102H19.4011M19.3721 2.04102H19.4011M19.4011 2.04102C20.4577 2.04102 20.9836 2.32663 21.248 2.59008L19.4011 2.04102ZM21.7974 4.42667L21.7974 4.43313L23.7974 4.42667H21.7974Z" stroke="white" stroke-width="4"/>
</svg>
