<svg width="128" height="109" viewBox="0 0 128 109" fill="none" xmlns="http://www.w3.org/2000/svg">
<g filter="url(#filter0_d_478:242)">
<g clip-path="url(#clip0_478:242)">
<path d="M48.6925 94.0002C40.4834 94.0002 32.2744 94.0002 24.1619 94.0002C18.9467 94.0002 15.0836 89.8474 15.4699 84.7288C15.5665 83.2801 16.146 81.8315 16.9186 80.4794C22.4235 70.8217 28.025 61.1639 33.6264 51.5062C34.0127 50.8302 34.3025 49.8644 34.3025 49.0918C34.3991 41.6553 34.3025 34.2189 34.3025 26.7824C34.3025 26.1064 34.0127 25.4303 33.6264 24.9475C32.0812 22.9193 31.6949 20.7946 32.7572 18.4768C33.723 16.1589 35.558 15 37.9724 15C45.1191 15 52.2659 15 59.316 15C61.827 15 63.7585 16.2555 64.7243 18.5734C65.7867 20.7946 65.3038 22.9193 63.7585 24.9475C63.3722 25.4303 63.0825 26.1064 63.0825 26.6858C63.0825 34.2189 63.0825 41.7519 63.0825 49.2849C63.0825 50.0575 63.2757 50.8302 63.662 51.5062C69.4566 61.1639 75.0581 70.9182 80.7561 80.7691C83.75 85.9843 81.4322 92.0687 75.8307 93.7105C74.8649 94.0002 73.8026 94.0968 72.8368 94.0968C64.7243 94.0002 56.7084 94.0002 48.6925 94.0002ZM41.5458 23.3056C41.4492 23.7885 41.4492 24.1748 41.4492 24.5611C41.4492 33.3497 41.4492 42.1382 41.4492 50.9267C41.4492 51.7959 41.1595 52.8583 40.7732 53.6309C34.9785 63.7715 29.0873 73.9121 23.1961 84.0527C22.1337 85.9843 22.6166 86.8535 24.8379 86.8535C31.5983 86.8535 38.4553 86.8535 45.2157 86.8535C54.3905 86.8535 63.5654 86.8535 72.7402 86.8535C73.5128 86.8535 74.382 86.8535 74.5752 85.9843C74.6718 85.4048 74.4786 84.6322 74.0923 84.1493C68.2011 74.0087 62.4065 63.7715 56.5152 53.6309C56.1289 52.9549 55.8392 51.9891 55.8392 51.2165C55.8392 42.4279 55.8392 33.736 55.8392 24.9475C55.8392 24.4646 55.8392 23.9817 55.8392 23.4988C51.0103 23.3056 46.3746 23.3056 41.5458 23.3056Z" fill="#F5D800"/>
<path d="M85.9713 80.3827C84.6192 78.0648 83.3637 75.8436 82.1082 73.5257C89.8344 72.1736 95.2427 68.1174 97.9469 60.8741C99.7819 55.9487 99.3956 50.9266 97.1743 46.0978C92.9249 36.9229 79.5972 30.9352 67.9114 39.4339C67.9114 36.5366 67.9114 33.8325 67.9114 31.0317C67.9114 30.742 68.2977 30.3557 68.684 30.2591C70.1327 29.6796 71.5813 29.1002 73.1265 28.6173C73.8992 28.4241 74.2855 28.0378 74.4786 27.2652C74.7684 25.8166 75.1547 24.3679 75.541 22.9192C75.7341 22.2432 76.0239 21.8569 76.7965 21.8569C78.9212 21.8569 81.0459 21.7603 83.1706 21.8569C83.5569 21.8569 84.1364 22.4364 84.2329 22.8227C84.7158 24.3679 85.0055 26.0097 85.4884 27.5549C85.585 28.0378 86.0679 28.5207 86.4542 28.6173C89.7378 29.4865 92.6352 30.9352 95.4359 32.7701C95.7256 32.9633 96.4017 33.0599 96.788 32.8667C98.3332 32.1907 99.7819 31.418 101.231 30.6454C101.81 30.3557 102.196 30.4523 102.679 30.9352C104.031 32.577 105.48 34.3154 106.929 35.9572C107.411 36.4401 107.315 36.8264 106.929 37.3093C105.963 38.5648 105.094 39.9168 104.031 41.2689C103.548 41.8484 103.548 42.3313 103.838 43.0073C104.514 44.6491 105.094 46.1944 105.673 47.9327C105.963 48.7054 106.349 49.0917 107.122 49.2848C108.57 49.5746 110.019 49.9609 111.468 50.2506C112.24 50.4438 112.53 50.7335 112.53 51.6027C112.433 53.6308 112.433 55.6589 112.53 57.687C112.53 58.5562 112.24 58.9426 111.468 59.0391C109.922 59.3289 108.377 59.7152 106.832 60.1981C106.349 60.2946 105.866 60.8741 105.673 61.2604C104.9 63.0954 104.224 64.9303 103.548 66.7653C103.355 67.2482 103.452 67.8277 103.645 68.214C104.514 69.5661 105.383 70.9181 106.349 72.2702C106.832 72.8497 106.735 73.3326 106.253 73.912C104.804 75.4573 103.452 76.9059 102.1 78.5477C101.617 79.1272 101.231 79.2238 100.458 78.8375C99.2024 78.0649 97.8503 77.4854 96.5948 76.7128C95.7256 76.2299 95.1462 76.3265 94.3735 76.9059C91.9591 78.4512 89.1584 79.7067 85.9713 80.3827Z" fill="white"/>
</g>
</g>
<defs>
<filter id="filter0_d_478:242" x="0.373352" y="0" width="127.253" height="109" filterUnits="userSpaceOnUse" color-interpolation-filters="sRGB">
<feFlood flood-opacity="0" result="BackgroundImageFix"/>
<feColorMatrix in="SourceAlpha" type="matrix" values="0 0 0 0 0 0 0 0 0 0 0 0 0 0 0 0 0 0 127 0" result="hardAlpha"/>
<feOffset/>
<feGaussianBlur stdDeviation="7.5"/>
<feComposite in2="hardAlpha" operator="out"/>
<feColorMatrix type="matrix" values="0 0 0 0 0.960784 0 0 0 0 0.847059 0 0 0 0 0 0 0 0 0.45 0"/>
<feBlend mode="normal" in2="BackgroundImageFix" result="effect1_dropShadow_478:242"/>
<feBlend mode="normal" in="SourceGraphic" in2="effect1_dropShadow_478:242" result="shape"/>
</filter>
<clipPath id="clip0_478:242">
<rect width="97.2533" height="79.0002" fill="white" transform="translate(15.3734 15)"/>
</clipPath>
</defs>
</svg>
