<svg width="158" height="134" viewBox="0 0 158 134" fill="none" xmlns="http://www.w3.org/2000/svg">
<g filter="url(#filter0_d_478:225)">
<path d="M103.189 118.499C86.8778 118.499 70.9852 118.499 54.7672 118.499C54.7672 115.39 54.7672 112.419 54.7672 109.448C54.7208 103.182 54.9996 96.9156 54.4884 90.7422C54.2561 88.1893 52.6296 85.4971 50.9567 83.3619C48.1221 79.695 44.7763 76.4458 41.7093 73.011C33.8094 64.1918 25.8166 55.4654 18.0562 46.5534C16.6621 44.9288 15.7327 42.5151 15.4539 40.3335C14.9892 36.6666 16.7551 33.6959 20.0544 31.9321C23.3538 30.1683 26.5602 30.8645 29.3948 33.0925C30.8354 34.2529 32.0436 35.6919 33.2518 37.0844C38.6887 43.3042 44.2651 49.4777 49.4697 55.8832C53.0943 60.3856 57.416 61.9638 63.0853 61.4532C67.407 61.0819 71.8216 61.546 76.1898 61.546C79.4891 61.546 82.7885 61.4068 86.0878 61.4068C89.9448 61.3604 93.8018 61.2211 97.6588 61.4068C101.655 61.6389 104.676 60.1535 107.232 57.1829C113.505 49.8954 119.825 42.7008 126.098 35.4598C126.609 34.8564 127.121 34.2994 127.678 33.7424C131.21 30.4004 135.857 29.9826 139.249 32.7676C142.781 35.599 143.664 40.7513 141.294 44.7431C140.643 45.8107 139.853 46.7855 139.017 47.6674C130.466 57.1364 121.869 66.559 113.319 76.0281C110.949 78.6738 108.579 81.3196 106.349 84.1046C104.072 86.8896 103.096 90.1388 103.142 93.8057C103.282 101.929 103.189 110.144 103.189 118.499ZM86.0878 73.2895C82.3702 69.2976 78.8385 68.8799 75.6786 71.8506C72.6581 74.682 72.3793 79.2772 75.7251 82.8978C78.4668 85.8684 81.952 88.1429 85.1584 90.6494C85.5302 90.9279 86.4596 91.0207 86.8313 90.7422C90.6418 88.2821 94.5918 85.8684 97.1941 81.9694C98.5417 79.9735 99.1923 77.7919 98.5417 75.3782C97.7982 72.7325 96.1253 70.9222 93.43 70.1796C90.2236 69.2976 88.086 70.9222 86.0878 73.2895Z" fill="#F5D800"/>
<path d="M58.2059 36.0169C58.2523 24.5056 67.5463 15.4079 79.1637 15.5007C90.5952 15.5935 99.7498 24.8305 99.6568 36.249C99.6103 47.8532 90.4094 56.9045 78.7919 56.9045C67.2675 56.8581 58.1594 47.6211 58.2059 36.0169Z" fill="white"/>
</g>
<defs>
<filter id="filter0_d_478:225" x="0.380493" y="0.5" width="157.239" height="133" filterUnits="userSpaceOnUse" color-interpolation-filters="sRGB">
<feFlood flood-opacity="0" result="BackgroundImageFix"/>
<feColorMatrix in="SourceAlpha" type="matrix" values="0 0 0 0 0 0 0 0 0 0 0 0 0 0 0 0 0 0 127 0" result="hardAlpha"/>
<feOffset/>
<feGaussianBlur stdDeviation="7.5"/>
<feComposite in2="hardAlpha" operator="out"/>
<feColorMatrix type="matrix" values="0 0 0 0 0.960784 0 0 0 0 0.847059 0 0 0 0 0 0 0 0 0.45 0"/>
<feBlend mode="normal" in2="BackgroundImageFix" result="effect1_dropShadow_478:225"/>
<feBlend mode="normal" in="SourceGraphic" in2="effect1_dropShadow_478:225" result="shape"/>
</filter>
</defs>
</svg>
