<svg width="128" height="138" viewBox="0 0 128 138" fill="none" xmlns="http://www.w3.org/2000/svg">
<g filter="url(#filter0_d_478:230)">
<path d="M16.7488 88.0164C16.9171 87.3423 17.0293 86.6681 17.2538 86.0502C18.4321 82.2861 20.9571 79.7581 24.6605 78.4659C24.9972 78.3536 25.446 78.0727 25.5583 77.7918C26.5122 74.8705 28.4761 73.2974 31.45 72.9042C31.5622 72.9042 31.6183 72.848 31.7866 72.7918C32.0111 68.5222 33.6944 64.8705 36.9489 62.0616C40.2033 59.3088 44.0189 58.2414 48.3395 58.6908C49.1811 54.0841 51.3695 50.3763 55.1851 47.6797C58.2151 45.5449 61.5818 44.646 65.2851 44.7583C71.5696 44.9269 79.4252 49.9268 80.8841 59.6459C84.8119 59.3088 88.3469 60.32 91.3769 62.9043C94.3508 65.4885 95.9219 68.8031 96.1464 72.7918C96.4269 72.848 96.6514 72.9042 96.9319 72.9604C99.6814 73.4098 101.477 74.9828 102.375 77.6233C102.487 77.9603 102.936 78.3536 103.329 78.4659C108.21 80.0951 111.465 84.7018 111.24 89.7018C111.016 94.7579 107.313 99.0838 102.319 100.264C101.87 100.376 101.365 100.488 100.916 100.488C99.9058 100.376 99.513 100.938 99.0641 101.78C92.443 114.252 82.1185 120.938 67.9785 121.443C63.714 121.612 59.3934 121.387 55.129 121.05C51.6501 120.769 48.3395 119.589 45.2534 117.904C44.1872 117.342 43.8506 116.499 44.2995 115.657C44.7484 114.814 45.6461 114.645 46.7122 115.207C50.4717 117.342 54.624 118.297 58.8884 118.353C63.4895 118.409 68.1468 118.522 72.6357 117.96C86.1024 116.218 97.5491 104.589 99.2325 91.1063C99.7375 87.2299 99.5692 83.2974 99.6253 79.3648C99.6253 77.6233 98.2225 76.2749 96.4269 76.0502C96.0341 75.9941 95.6975 76.0502 95.3047 76.0502C74.4874 76.0502 53.6701 76.0502 32.7966 76.0502C29.6544 76.0502 28.4199 77.2862 28.4761 80.376C28.5322 84.2524 28.2516 88.185 29.0372 92.0052C30.6644 99.8141 34.5922 106.219 40.6522 111.331C40.9889 111.612 41.2694 111.836 41.6061 112.117C42.3917 112.792 42.5039 113.634 41.9428 114.365C41.3817 115.095 40.4839 115.151 39.6983 114.533C36.9489 112.398 34.4239 109.926 32.46 107.061C31.1694 105.207 30.1033 103.241 28.9811 101.275C28.7005 100.825 28.5322 100.544 27.9149 100.544C22.2477 100.32 18.0393 96.5557 16.9732 90.8816C16.9732 90.7692 16.861 90.6569 16.8049 90.5445C16.7488 89.6456 16.7488 88.8029 16.7488 88.0164ZM93.0602 72.7918C93.1163 69.1402 90.5352 65.32 87.0002 63.6346C84.7558 62.5672 82.4552 62.4548 80.0424 62.7919C78.5274 63.0166 78.0785 62.511 77.9102 60.9942C77.6857 59.4773 77.4613 57.8481 76.9002 56.4436C73.8701 48.4662 64.6679 45.3201 57.4856 49.8145C53.7262 52.174 51.7062 55.6571 51.3134 60.1515C51.2012 61.6683 50.64 62.1178 49.125 62.0054C48.9006 62.0054 48.6761 61.9492 48.3956 61.9492C44.1872 61.1627 40.6522 62.4548 37.7905 65.6009C35.9389 67.6233 34.985 70.039 34.8727 72.848C54.3434 72.7918 73.6457 72.7918 93.0602 72.7918ZM25.3899 81.612C22.1916 82.23 19.5543 86.2187 19.891 89.8142C20.2277 93.8029 23.5944 97.2298 27.2977 97.2298C25.3899 92.1737 25.2216 86.8928 25.3899 81.612ZM100.86 97.2298C104.451 97.1737 107.649 93.8591 108.098 89.9265C108.491 86.331 105.966 82.3985 102.599 81.5558C102.768 86.8367 102.655 92.1175 100.86 97.2298Z" fill="#F5D800" stroke="#F5D800" stroke-width="2" stroke-miterlimit="10"/>
<path d="M68.4834 16.5C70.7279 16.7247 72.9723 16.8371 75.1607 17.118C80.9963 17.8483 86.4952 19.3651 91.1524 23.2415C94.463 25.9943 96.5952 29.5336 97.6613 33.6347C98.6152 37.3425 95.9219 40.8256 92.1063 40.8256C73.3651 40.8256 54.6239 40.8256 35.8827 40.8256C31.3938 40.8256 28.8688 36.7807 30.7766 32.7358C35.0972 23.5786 42.4478 18.6348 52.3234 17.118C53.9506 16.8933 55.6339 16.7247 57.2612 16.5C61.0206 16.5 64.7801 16.5 68.4834 16.5ZM63.9384 37.792C73.2529 37.792 82.6235 37.792 91.938 37.792C93.6213 37.792 94.7997 36.6684 94.7997 35.1515C94.7997 34.5336 94.5752 33.8594 94.3508 33.2976C92.2185 27.1179 87.6735 23.5786 81.6696 21.6685C77.349 20.3202 72.9162 19.8708 68.4834 19.7584C62.7601 19.5337 57.0367 19.309 51.3695 20.3764C43.1772 21.9494 37.1172 26.3314 33.5822 34.0279C33.3577 34.5336 33.1894 35.2077 33.2455 35.7695C33.4138 37.1178 34.4238 37.7358 36.0511 37.7358C45.3655 37.792 54.6239 37.792 63.9384 37.792Z" fill="white" stroke="white" stroke-width="2" stroke-miterlimit="10"/>
<path d="M63.9945 86.8926C65.4534 86.8926 66.9123 86.8926 68.3712 86.8926C70.5595 86.8926 71.9062 88.1847 71.9062 90.3757C71.9062 92.2858 72.0184 94.1959 71.7379 96.106C71.2329 100.039 67.6417 102.904 63.7139 102.735C59.6739 102.567 56.4195 99.3644 56.195 95.3757C56.0828 93.6903 56.0828 91.9487 56.1389 90.2633C56.195 88.2409 57.4856 86.9488 59.5056 86.9488C61.0206 86.8926 62.4795 86.9488 63.9945 86.8926ZM59.225 89.9824C59.225 91.724 59.1689 93.3532 59.225 94.9824C59.3373 97.6228 61.4134 99.6453 63.9384 99.6453C66.4634 99.7015 68.5956 97.7914 68.8201 95.2071C68.9323 93.6903 68.8762 92.1173 68.8201 90.6004C68.8201 90.3757 68.4834 89.9824 68.259 89.9824C65.2851 89.9263 62.3112 89.9824 59.225 89.9824Z" fill="#F5D800" stroke="#F5D800" stroke-width="2" stroke-miterlimit="10"/>
<path d="M80.7718 85.8255C80.7718 85.3199 80.7157 84.8142 80.7718 84.3086C80.8279 83.4659 81.3329 82.9041 82.1746 82.9041C83.0724 82.848 83.6335 83.3536 83.7457 84.1963C83.8579 85.3199 83.8579 86.4434 83.7457 87.567C83.6896 88.4097 83.0724 88.9153 82.1746 88.8592C81.3329 88.803 80.8279 88.2974 80.7157 87.4547C80.7157 86.8929 80.7718 86.3873 80.7718 85.8255Z" fill="#F5D800" stroke="#F5D800" stroke-width="2" stroke-miterlimit="10"/>
<path d="M47.2733 85.9936C47.2733 86.4992 47.2733 86.9486 47.2733 87.4543C47.2172 88.3531 46.6561 88.9711 45.8144 89.0273C45.0289 89.0835 44.2994 88.4655 44.2433 87.5666C44.1872 86.4992 44.1311 85.4318 44.2433 84.4206C44.2994 83.5779 44.9167 83.0723 45.7583 83.0723C46.6561 83.1284 47.1611 83.6341 47.2172 84.4767C47.2733 84.9824 47.2172 85.488 47.2733 85.9936C47.2172 85.9936 47.2172 85.9936 47.2733 85.9936Z" fill="#F5D800"/>
<path d="M47.2733 85.9936C47.2733 86.4992 47.2733 86.9486 47.2733 87.4543C47.2172 88.3531 46.6561 88.9711 45.8144 89.0273C45.0289 89.0835 44.2994 88.4655 44.2433 87.5666C44.1872 86.4992 44.1311 85.4318 44.2433 84.4206C44.2994 83.5779 44.9167 83.0723 45.7583 83.0723C46.6561 83.1284 47.1611 83.6341 47.2172 84.4767C47.2733 84.9824 47.2172 85.488 47.2733 85.9936ZM47.2733 85.9936C47.2172 85.9936 47.2172 85.9936 47.2733 85.9936Z" stroke="#F5D800" stroke-width="2" stroke-miterlimit="10"/>
</g>
<defs>
<filter id="filter0_d_478:230" x="0.748779" y="0.5" width="126.503" height="137" filterUnits="userSpaceOnUse" color-interpolation-filters="sRGB">
<feFlood flood-opacity="0" result="BackgroundImageFix"/>
<feColorMatrix in="SourceAlpha" type="matrix" values="0 0 0 0 0 0 0 0 0 0 0 0 0 0 0 0 0 0 127 0" result="hardAlpha"/>
<feOffset/>
<feGaussianBlur stdDeviation="7.5"/>
<feComposite in2="hardAlpha" operator="out"/>
<feColorMatrix type="matrix" values="0 0 0 0 0.960784 0 0 0 0 0.847059 0 0 0 0 0 0 0 0 0.45 0"/>
<feBlend mode="normal" in2="BackgroundImageFix" result="effect1_dropShadow_478:230"/>
<feBlend mode="normal" in="SourceGraphic" in2="effect1_dropShadow_478:230" result="shape"/>
</filter>
</defs>
</svg>
