<svg width="146" height="122" viewBox="0 0 146 122" fill="none" xmlns="http://www.w3.org/2000/svg">
<g filter="url(#filter0_d_478:217)">
<path d="M117.169 88.1553C118.806 88.1553 120.374 88.1209 121.942 88.1553C126.886 88.3272 130.534 92.2118 130.466 97.1622C130.432 101.975 126.681 105.963 121.874 105.963C104.384 106.032 86.8593 105.997 69.369 105.963C66.6073 105.963 64.1866 104.897 61.9705 103.281C54.9471 98.1591 47.9237 93.0713 40.9343 87.8803C38.7182 86.2302 36.4339 85.4051 33.7063 85.5082C30.4333 85.6114 27.1261 85.5426 23.8531 85.5082C18.5344 85.5082 15.5 82.4143 15.5 77.017C15.5 69.7634 15.5 62.5098 15.5 55.2905C15.5 50.0995 18.6026 47.0056 23.7508 47.0056C33.8768 47.0056 44.0369 47.0399 54.1629 46.9712C59.0384 46.9368 63.0615 48.7244 66.3346 52.3684C72.9489 59.6565 79.5973 66.9101 86.2797 74.095C86.8593 74.7137 87.8822 75.1607 88.7004 75.195C95.2124 75.2982 101.724 75.195 108.236 75.2638C113.555 75.2982 117.271 78.6328 117.612 83.6519C117.749 85.0613 117.34 86.5052 117.169 88.1553ZM33.4336 80.2141C33.7745 80.2829 34.0473 80.386 34.32 80.3516C38.0022 80.2829 41.1048 81.6236 44.0369 83.7894C50.8217 88.8429 57.7087 93.7244 64.4935 98.8123C66.5732 100.359 68.7212 101.047 71.2782 101.012C87.5753 100.978 103.906 100.978 120.204 100.978C120.783 100.978 121.329 100.978 121.908 100.909C124.261 100.6 125.693 98.5373 125.181 96.234C124.704 94.1026 123.34 93.14 120.579 93.14C108.339 93.14 96.0989 93.1057 83.8931 93.14C80.8587 93.14 78.3699 92.1431 76.3583 89.9086C68.9257 81.7611 61.4932 73.6137 54.0947 65.4319C52.8332 64.0568 52.765 62.5785 53.8561 61.4785C54.9471 60.3784 56.3449 60.5159 57.7087 61.891C58.2542 62.441 58.7997 63.0598 59.3452 63.6442C66.13 71.0697 72.9148 78.4953 79.7677 85.8864C80.586 86.7458 81.677 87.5021 82.8021 87.9147C84.3363 88.4647 85.7342 87.7772 86.6207 86.4364C87.5753 85.027 87.6435 83.5487 86.6207 82.1393C86.2797 81.6924 85.9047 81.2455 85.5296 80.8329C77.8925 72.4792 70.2213 64.1599 62.6183 55.7718C60.3681 53.2966 57.7087 52.059 54.3675 52.0934C47.8555 52.1278 41.3435 52.0934 34.8315 52.0934C34.3882 52.0934 33.9791 52.1622 33.4677 52.2309C33.4336 61.616 33.4336 70.8979 33.4336 80.2141ZM28.1149 80.3173C28.1149 70.7947 28.1149 61.5128 28.1149 52.1278C26.3079 52.1278 24.6373 52.059 22.9326 52.1622C21.4665 52.2309 20.6141 53.1591 20.6141 54.6374C20.58 62.4066 20.58 70.1416 20.6141 77.9108C20.6141 79.2859 21.3983 80.2141 22.7962 80.3173C24.535 80.4204 26.2738 80.3173 28.1149 80.3173ZM92.0076 80.4548C92.0076 83.1706 92.0076 85.577 92.0076 88.0866C97.599 88.0866 103.293 88.1209 109.021 88.0522C110.623 88.0178 111.816 87.0896 112.362 85.5426C112.907 84.03 112.737 82.4487 111.441 81.4861C110.521 80.7985 109.191 80.386 108.032 80.386C103.054 80.2829 98.0763 80.3173 93.0986 80.3516C92.6213 80.386 92.178 80.4548 92.0076 80.4548Z" fill="#F5D800"/>
<path d="M79.4268 41.7114C79.4609 27.5823 90.9165 16.0315 104.929 15.9971C119.01 15.9628 130.5 27.6167 130.5 41.8146C130.466 56.0124 118.874 67.632 104.827 67.5289C90.8143 67.4601 79.3927 55.8405 79.4268 41.7114ZM107.52 62.1316C117.306 62.0972 125.795 51.7153 125.352 40.5426C124.977 30.9513 115.669 21.0506 107.52 21.7382C107.52 22.7351 107.589 23.7664 107.52 24.7634C107.418 26.0353 107.759 26.7573 109.021 27.3761C111.919 28.7855 113.555 31.2263 113.828 34.5266C113.998 36.4861 113.214 37.6549 111.714 37.8268C110.078 38.0331 109.055 37.0705 108.748 35.0766C108.407 32.7733 106.907 31.5013 104.691 31.6389C102.781 31.742 101.281 33.2202 101.179 35.1454C101.043 37.3455 102.372 38.9269 104.588 39.2706C104.861 39.305 105.134 39.3394 105.441 39.3738C109.907 39.8894 113.044 42.6396 113.76 46.6618C114.51 50.8558 112.566 54.4998 108.543 56.6312C108.134 56.8375 107.589 57.3531 107.589 57.7657C107.452 59.2095 107.52 60.6878 107.52 62.1316ZM102.406 62.0285C102.406 60.8253 102.338 59.7596 102.44 58.6939C102.543 57.3531 102.168 56.5968 100.872 55.9437C97.7354 54.3623 96.0989 51.6809 96.0989 48.0713C96.0989 46.1117 98.0422 44.771 99.6106 45.8023C100.361 46.2836 100.906 47.4525 101.145 48.415C101.622 50.3058 102.713 51.6121 104.418 51.8528C106.6 52.1278 108.543 50.6152 108.714 48.4838C108.952 46.0774 107.486 44.4616 104.929 44.221C100.258 43.8085 96.9853 41.0926 96.1671 37.0017C95.3488 32.7733 97.2922 29.0949 101.418 26.8948C101.793 26.6885 102.304 26.2416 102.338 25.8978C102.44 24.454 102.372 22.9758 102.372 21.4975C93.8827 21.4632 85.2569 30.4356 84.575 39.7863C83.7567 50.959 91.3257 60.5159 102.406 62.0285Z" fill="white"/>
</g>
<defs>
<filter id="filter0_d_478:217" x="0.5" y="0.99707" width="145" height="120.005" filterUnits="userSpaceOnUse" color-interpolation-filters="sRGB">
<feFlood flood-opacity="0" result="BackgroundImageFix"/>
<feColorMatrix in="SourceAlpha" type="matrix" values="0 0 0 0 0 0 0 0 0 0 0 0 0 0 0 0 0 0 127 0" result="hardAlpha"/>
<feOffset/>
<feGaussianBlur stdDeviation="7.5"/>
<feComposite in2="hardAlpha" operator="out"/>
<feColorMatrix type="matrix" values="0 0 0 0 0.960784 0 0 0 0 0.847059 0 0 0 0 0 0 0 0 0.45 0"/>
<feBlend mode="normal" in2="BackgroundImageFix" result="effect1_dropShadow_478:217"/>
<feBlend mode="normal" in="SourceGraphic" in2="effect1_dropShadow_478:217" result="shape"/>
</filter>
</defs>
</svg>
